ISO-10303-21;
HEADER;
FILE_DESCRIPTION (( 'STEP AP214' ),
    '1' );
FILE_NAME ('AMPLA7030Q-150MT.STEP',
    '2026-02-09T19:23:00',
    ( '' ),
    ( '' ),
    'SwSTEP 2.0',
    'SolidWorks 2025',
    '' );
FILE_SCHEMA (( 'AUTOMOTIVE_DESIGN' ));
ENDSEC;

DATA;
#1 = VECTOR ( 'NONE', #21, 1000.000000000000000 ) ;
#2 = CARTESIAN_POINT ( 'NONE',  ( -3.149999999999999911, 0.000000000000000000, -3.299999999999999378 ) ) ;
#3 = CARTESIAN_POINT ( 'NONE',  ( 1.949999999999999512, -0.1000000000000000056, -1.499999999999999556 ) ) ;
#4 =( NAMED_UNIT ( * ) SI_UNIT ( $, .STERADIAN. ) SOLID_ANGLE_UNIT ( ) );
#5 = EDGE_CURVE ( 'NONE', #852, #611, #824, .T. ) ;
#6 = FACE_OUTER_BOUND ( 'NONE', #35, .T. ) ;
#7 = CARTESIAN_POINT ( 'NONE',  ( -1.949999999999999956, 1.399999999999999911, -1.499999999999999112 ) ) ;
#8 = DIRECTION ( 'NONE',  ( -2.168404344971008868E-16, -0.000000000000000000, -1.000000000000000000 ) ) ;
#9 = CARTESIAN_POINT ( 'NONE',  ( -3.649999999999999911, 0.000000000000000000, 3.299999999999999822 ) ) ;
#10 = CARTESIAN_POINT ( 'NONE',  ( 3.149999999999998579, 0.000000000000000000, -2.799999999999999378 ) ) ;
#11 = DIRECTION ( 'NONE',  ( -7.228014483236695816E-17, 0.000000000000000000, -1.000000000000000000 ) ) ;
#12 = ORIENTED_EDGE ( 'NONE', *, *, #186, .F. ) ;
#13 = PRESENTATION_STYLE_ASSIGNMENT (( #418 ) ) ;
#14 = LINE ( 'NONE', #284, #1 ) ;
#15 = STYLED_ITEM ( 'NONE', ( #558 ), #361 ) ;
#16 = LINE ( 'NONE', #162, #131 ) ;
#17 = EDGE_CURVE ( 'NONE', #90, #233, #828, .T. ) ;
#18 = ORIENTED_EDGE ( 'NONE', *, *, #504, .F. ) ;
#19 = AXIS2_PLACEMENT_3D ( 'NONE', #1057, #557, #293 ) ;
#20 = CARTESIAN_POINT ( 'NONE',  ( 1.949999999999999512, 1.399999999999999911, -1.499999999999999556 ) ) ;
#21 = DIRECTION ( 'NONE',  ( 1.000000000000000000, -0.000000000000000000, 1.204669080539449344E-16 ) ) ;
#22 = LINE ( 'NONE', #527, #403 ) ;
#23 = FILL_AREA_STYLE ('',( #940 ) ) ;
#24 = ORIENTED_EDGE ( 'NONE', *, *, #1027, .F. ) ;
#25 = CARTESIAN_POINT ( 'NONE',  ( -1.949999999999999734, 0.000000000000000000, 1.500000000000000888 ) ) ;
#26 = EDGE_CURVE ( 'NONE', #611, #75, #421, .T. ) ;
#27 = DIRECTION ( 'NONE',  ( 7.228014483236695816E-17, 0.000000000000000000, 1.000000000000000000 ) ) ;
#28 = CYLINDRICAL_SURFACE ( 'NONE', #747, 0.5000000000000000000 ) ;
#29 =( NAMED_UNIT ( * ) SI_UNIT ( $, .STERADIAN. ) SOLID_ANGLE_UNIT ( ) );
#30 = ORIENTED_EDGE ( 'NONE', *, *, #424, .F. ) ;
#31 = DIRECTION ( 'NONE',  ( 0.000000000000000000, 0.000000000000000000, -1.000000000000000000 ) ) ;
#32 = CARTESIAN_POINT ( 'NONE',  ( -1.949999999999999956, 1.399999999999999911, -1.499999999999999112 ) ) ;
#33 = PRESENTATION_STYLE_ASSIGNMENT (( #273 ) ) ;
#34 = CLOSED_SHELL ( 'NONE', ( #535, #69, #309, #179, #927, #972 ) ) ;
#35 = EDGE_LOOP ( 'NONE', ( #148, #959, #700, #395 ) ) ;
#36 = FACE_OUTER_BOUND ( 'NONE', #943, .T. ) ;
#37 = VECTOR ( 'NONE', #1033, 1000.000000000000000 ) ;
#38 = AXIS2_PLACEMENT_3D ( 'NONE', #430, #680, #754 ) ;
#39 = STYLED_ITEM ( 'NONE', ( #545 ), #987 ) ;
#40 = DIRECTION ( 'NONE',  ( -1.000000000000000000, 0.000000000000000000, -1.204669080539449097E-16 ) ) ;
#41 = APPLICATION_CONTEXT ( 'automotive_design' ) ;
#42 = ORIENTED_EDGE ( 'NONE', *, *, #86, .T. ) ;
#43 = PRESENTATION_STYLE_ASSIGNMENT (( #521 ) ) ;
#44 = ORIENTED_EDGE ( 'NONE', *, *, #382, .T. ) ;
#45 = CARTESIAN_POINT ( 'NONE',  ( 0.000000000000000000, 1.399999999999999911, 0.000000000000000000 ) ) ;
#46 = SURFACE_SIDE_STYLE ('',( #118 ) ) ;
#47 = VERTEX_POINT ( 'NONE', #256 ) ;
#48 = EDGE_CURVE ( 'NONE', #976, #233, #912, .T. ) ;
#49 = VECTOR ( 'NONE', #698, 1000.000000000000000 ) ;
#50 = DIRECTION ( 'NONE',  ( 0.000000000000000000, 0.000000000000000000, -1.000000000000000000 ) ) ;
#51 = CARTESIAN_POINT ( 'NONE',  ( 3.149999999999998579, 0.000000000000000000, 3.299999999999999822 ) ) ;
#52 = ORIENTED_EDGE ( 'NONE', *, *, #156, .F. ) ;
#53 = EDGE_CURVE ( 'NONE', #515, #784, #16, .T. ) ;
#54 = CARTESIAN_POINT ( 'NONE',  ( 1.949999999999999512, -0.1000000000000000056, -1.499999999999999556 ) ) ;
#55 = CARTESIAN_POINT ( 'NONE',  ( 3.649999999999999023, 0.000000000000000000, 3.299999999999999822 ) ) ;
#56 = ORIENTED_EDGE ( 'NONE', *, *, #907, .T. ) ;
#57 = LINE ( 'NONE', #303, #314 ) ;
#58 = ADVANCED_FACE ( 'NONE', ( #659 ), #983, .F. ) ;
#59 = FACE_OUTER_BOUND ( 'NONE', #509, .T. ) ;
#60 = ORIENTED_EDGE ( 'NONE', *, *, #721, .T. ) ;
#61 = AXIS2_PLACEMENT_3D ( 'NONE', #436, #248, #578 ) ;
#62 =( GEOMETRIC_REPRESENTATION_CONTEXT ( 3 ) GLOBAL_UNCERTAINTY_ASSIGNED_CONTEXT ( ( #657 ) ) GLOBAL_UNIT_ASSIGNED_CONTEXT ( ( #438, #91, #678 ) ) REPRESENTATION_CONTEXT ( 'NONE', 'WORKASPACE' ) );
#63 =( LENGTH_UNIT ( ) NAMED_UNIT ( * ) SI_UNIT ( .MILLI., .METRE. ) );
#64 = ORIENTED_EDGE ( 'NONE', *, *, #5, .T. ) ;
#65 = VECTOR ( 'NONE', #910, 1000.000000000000000 ) ;
#66 = PRESENTATION_STYLE_ASSIGNMENT (( #734 ) ) ;
#67 = AXIS2_PLACEMENT_3D ( 'NONE', #254, #407, #340 ) ;
#68 = CARTESIAN_POINT ( 'NONE',  ( 3.750000000000000000, -0.1000000000000000056, -1.500000000000000222 ) ) ;
#69 = ADVANCED_FACE ( 'NONE', ( #97 ), #904, .F. ) ;
#70 = CARTESIAN_POINT ( 'NONE',  ( 3.649999999999999023, 2.799999999999999822, -1.500000000000000444 ) ) ;
#71 = EDGE_LOOP ( 'NONE', ( #196, #671, #865, #954 ) ) ;
#72 = SURFACE_STYLE_FILL_AREA ( #718 ) ;
#73 = ORIENTED_EDGE ( 'NONE', *, *, #79, .T. ) ;
#74 = LINE ( 'NONE', #70, #104 ) ;
#75 = VERTEX_POINT ( 'NONE', #429 ) ;
#76 =( NAMED_UNIT ( * ) PLANE_ANGLE_UNIT ( ) SI_UNIT ( $, .RADIAN. ) );
#77 = DIRECTION ( 'NONE',  ( 0.000000000000000000, -0.000000000000000000, -1.000000000000000000 ) ) ;
#78 = DIRECTION ( 'NONE',  ( -2.168404344971008868E-16, -0.000000000000000000, -1.000000000000000000 ) ) ;
#79 = EDGE_CURVE ( 'NONE', #852, #956, #253, .T. ) ;
#80 =( GEOMETRIC_REPRESENTATION_CONTEXT ( 3 ) GLOBAL_UNCERTAINTY_ASSIGNED_CONTEXT ( ( #380 ) ) GLOBAL_UNIT_ASSIGNED_CONTEXT ( ( #772, #459, #29 ) ) REPRESENTATION_CONTEXT ( 'NONE', 'WORKASPACE' ) );
#81 = AXIS2_PLACEMENT_3D ( 'NONE', #785, #805, #379 ) ;
#82 = AXIS2_PLACEMENT_3D ( 'NONE', #111, #598, #848 ) ;
#83 = CARTESIAN_POINT ( 'NONE',  ( -1.949999999999999956, 1.399999999999999911, -1.499999999999999112 ) ) ;
#84 = FACE_OUTER_BOUND ( 'NONE', #484, .T. ) ;
#85 = PLANE ( 'NONE',  #38 ) ;
#86 = EDGE_CURVE ( 'NONE', #683, #572, #347, .T. ) ;
#87 = SURFACE_SIDE_STYLE ('',( #236 ) ) ;
#88 = DIRECTION ( 'NONE',  ( 2.168404344971008868E-16, 0.000000000000000000, 1.000000000000000000 ) ) ;
#89 = VERTEX_POINT ( 'NONE', #343 ) ;
#90 = VERTEX_POINT ( 'NONE', #503 ) ;
#91 =( NAMED_UNIT ( * ) PLANE_ANGLE_UNIT ( ) SI_UNIT ( $, .RADIAN. ) );
#92 = CARTESIAN_POINT ( 'NONE',  ( -3.750000000000000000, -0.1000000000000000056, -1.499999999999999334 ) ) ;
#93 = APPLICATION_PROTOCOL_DEFINITION ( 'draft international standard', 'automotive_design', 1998, #41 ) ;
#94 = ADVANCED_FACE ( 'NONE', ( #84 ), #753, .F. ) ;
#95 = FACE_OUTER_BOUND ( 'NONE', #568, .T. ) ;
#96 = DIRECTION ( 'NONE',  ( 7.228014483236695816E-17, 0.000000000000000000, 1.000000000000000000 ) ) ;
#97 = FACE_OUTER_BOUND ( 'NONE', #465, .T. ) ;
#98 = ORIENTED_EDGE ( 'NONE', *, *, #377, .T. ) ;
#99 = MECHANICAL_DESIGN_GEOMETRIC_PRESENTATION_REPRESENTATION (  '', ( #454 ), #80 ) ;
#100 = DIRECTION ( 'NONE',  ( -0.000000000000000000, -0.000000000000000000, 1.000000000000000000 ) ) ;
#101 = VECTOR ( 'NONE', #672, 1000.000000000000000 ) ;
#102 = LINE ( 'NONE', #849, #487 ) ;
#103 = EDGE_CURVE ( 'NONE', #883, #167, #262, .T. ) ;
#104 = VECTOR ( 'NONE', #409, 1000.000000000000000 ) ;
#105 = ORIENTED_EDGE ( 'NONE', *, *, #553, .F. ) ;
#106 = LINE ( 'NONE', #599, #150 ) ;
#107 = ORIENTED_EDGE ( 'NONE', *, *, #1061, .F. ) ;
#108 = PLANE ( 'NONE',  #427 ) ;
#109 =( LENGTH_UNIT ( ) NAMED_UNIT ( * ) SI_UNIT ( .MILLI., .METRE. ) );
#110 = ORIENTED_EDGE ( 'NONE', *, *, #862, .F. ) ;
#111 = CARTESIAN_POINT ( 'NONE',  ( 0.000000000000000000, -0.1000000000000000056, 0.000000000000000000 ) ) ;
#112 = DIRECTION ( 'NONE',  ( -1.000000000000000000, 0.000000000000000000, 3.614007241618347785E-16 ) ) ;
#113 = MECHANICAL_DESIGN_GEOMETRIC_PRESENTATION_REPRESENTATION (  '', ( #368 ), #62 ) ;
#114 = ORIENTED_EDGE ( 'NONE', *, *, #103, .T. ) ;
#115 = PLANE ( 'NONE',  #895 ) ;
#116 = COLOUR_RGB ( '',0.000000000000000000, 0.000000000000000000, 0.000000000000000000 ) ;
#117 = STYLED_ITEM ( 'NONE', ( #955 ), #996 ) ;
#118 = SURFACE_STYLE_FILL_AREA ( #868 ) ;
#119 = SURFACE_SIDE_STYLE ('',( #869 ) ) ;
#120 = ORIENTED_EDGE ( 'NONE', *, *, #850, .T. ) ;
#121 = LINE ( 'NONE', #816, #729 ) ;
#122 = SHAPE_DEFINITION_REPRESENTATION ( #159, #431 ) ;
#123 = PRESENTATION_STYLE_ASSIGNMENT (( #692 ) ) ;
#124 = SURFACE_SIDE_STYLE ('',( #1040 ) ) ;
#125 = EDGE_CURVE ( 'NONE', #812, #208, #638, .T. ) ;
#126 = ORIENTED_EDGE ( 'NONE', *, *, #902, .F. ) ;
#127 = PLANE ( 'NONE',  #423 ) ;
#128 = CARTESIAN_POINT ( 'NONE',  ( 1.949999999999999512, 1.399999999999999911, -1.499999999999999556 ) ) ;
#129 = EDGE_CURVE ( 'NONE', #690, #291, #102, .T. ) ;
#130 = EDGE_LOOP ( 'NONE', ( #719, #398, #105, #152 ) ) ;
#131 = VECTOR ( 'NONE', #761, 1000.000000000000000 ) ;
#132 = PRESENTATION_LAYER_ASSIGNMENT (  '', '', ( #913 ) ) ;
#133 = CARTESIAN_POINT ( 'NONE',  ( -1.949999999999999734, 1.399999999999999911, 1.500000000000000888 ) ) ;
#134 = ORIENTED_EDGE ( 'NONE', *, *, #278, .F. ) ;
#135 = AXIS2_PLACEMENT_3D ( 'NONE', #517, #847, #446 ) ;
#136 = SURFACE_STYLE_FILL_AREA ( #219 ) ;
#137 = ORIENTED_EDGE ( 'NONE', *, *, #5, .F. ) ;
#138 = DIRECTION ( 'NONE',  ( 0.000000000000000000, 0.000000000000000000, -1.000000000000000000 ) ) ;
#139 = UNCERTAINTY_MEASURE_WITH_UNIT (LENGTH_MEASURE( 1.000000000000000082E-05 ), #109, 'distance_accuracy_value', 'NONE');
#140 = PLANE ( 'NONE',  #67 ) ;
#141 = DIRECTION ( 'NONE',  ( -1.000000000000000000, 0.000000000000000000, 1.445602896647339163E-16 ) ) ;
#142 = ORIENTED_EDGE ( 'NONE', *, *, #251, .F. ) ;
#143 = ADVANCED_FACE ( 'NONE', ( #540 ), #930, .F. ) ;
#144 = ORIENTED_EDGE ( 'NONE', *, *, #341, .F. ) ;
#145 =( NAMED_UNIT ( * ) PLANE_ANGLE_UNIT ( ) SI_UNIT ( $, .RADIAN. ) );
#146 = CARTESIAN_POINT ( 'NONE',  ( 1.950000000000000178, 1.399999999999999911, 1.500000000000000444 ) ) ;
#147 = LINE ( 'NONE', #830, #65 ) ;
#148 = ORIENTED_EDGE ( 'NONE', *, *, #567, .T. ) ;
#149 = VECTOR ( 'NONE', #992, 1000.000000000000000 ) ;
#150 = VECTOR ( 'NONE', #771, 1000.000000000000000 ) ;
#151 = LINE ( 'NONE', #133, #259 ) ;
#152 = ORIENTED_EDGE ( 'NONE', *, *, #377, .F. ) ;
#153 = AXIS2_PLACEMENT_3D ( 'NONE', #905, #745, #88 ) ;
#154 = CARTESIAN_POINT ( 'NONE',  ( 3.649999999999999023, 2.799999999999999822, 1.499999999999999778 ) ) ;
#155 = COLOUR_RGB ( '',0.7529411764705882248, 0.7529411764705882248, 0.7529411764705882248 ) ;
#156 = EDGE_CURVE ( 'NONE', #330, #550, #1012, .T. ) ;
#157 = CARTESIAN_POINT ( 'NONE',  ( 3.649999999999999023, 2.799999999999999822, -2.799999999999999378 ) ) ;
#158 = ORIENTED_EDGE ( 'NONE', *, *, #367, .T. ) ;
#159 = PRODUCT_DEFINITION_SHAPE ( 'NONE', 'NONE',  #993 ) ;
#160 = DIRECTION ( 'NONE',  ( -1.000000000000000000, 0.000000000000000000, -1.204669080539449097E-16 ) ) ;
#161 = CARTESIAN_POINT ( 'NONE',  ( -3.149999999999999911, 0.000000000000000000, 3.299999999999999822 ) ) ;
#162 = CARTESIAN_POINT ( 'NONE',  ( -1.949999999999999956, 1.399999999999999911, -1.499999999999999112 ) ) ;
#163 = EDGE_CURVE ( 'NONE', #611, #1044, #600, .T. ) ;
#164 = DIRECTION ( 'NONE',  ( 0.000000000000000000, -0.000000000000000000, -1.000000000000000000 ) ) ;
#165 =( NAMED_UNIT ( * ) SI_UNIT ( $, .STERADIAN. ) SOLID_ANGLE_UNIT ( ) );
#166 = PLANE ( 'NONE',  #153 ) ;
#167 = VERTEX_POINT ( 'NONE', #451 ) ;
#168 = ADVANCED_FACE ( 'NONE', ( #1030 ), #775, .T. ) ;
#169 = COLOUR_RGB ( '',0.000000000000000000, 0.000000000000000000, 0.000000000000000000 ) ;
#170 = VECTOR ( 'NONE', #78, 1000.000000000000000 ) ;
#171 = VECTOR ( 'NONE', #715, 1000.000000000000000 ) ;
#172 = VECTOR ( 'NONE', #802, 1000.000000000000000 ) ;
#173 = DIRECTION ( 'NONE',  ( 0.000000000000000000, 1.000000000000000000, 0.000000000000000000 ) ) ;
#174 = DIRECTION ( 'NONE',  ( 1.000000000000000000, 0.000000000000000000, -7.228014483236695816E-17 ) ) ;
#175 = COLOUR_RGB ( '',0.000000000000000000, 0.000000000000000000, 0.000000000000000000 ) ;
#176 = ORIENTED_EDGE ( 'NONE', *, *, #48, .T. ) ;
#177 = LINE ( 'NONE', #857, #695 ) ;
#178 = LINE ( 'NONE', #511, #644 ) ;
#179 = ADVANCED_FACE ( 'NONE', ( #699 ), #1026, .F. ) ;
#180 = CARTESIAN_POINT ( 'NONE',  ( 1.950000000000000178, 1.399999999999999911, 1.500000000000000444 ) ) ;
#181 = CARTESIAN_POINT ( 'NONE',  ( -1.949999999999999956, -0.1000000000000000056, -1.499999999999999112 ) ) ;
#182 = CARTESIAN_POINT ( 'NONE',  ( -3.149999999999999911, 0.000000000000000000, 2.799999999999999822 ) ) ;
#183 = EDGE_LOOP ( 'NONE', ( #1063, #814, #607, #126 ) ) ;
#184 = DIRECTION ( 'NONE',  ( -1.000000000000000000, -0.000000000000000000, 3.614007241618347785E-16 ) ) ;
#185 = SURFACE_STYLE_FILL_AREA ( #926 ) ;
#186 = EDGE_CURVE ( 'NONE', #1019, #656, #783, .T. ) ;
#187 = LINE ( 'NONE', #369, #748 ) ;
#188 = LINE ( 'NONE', #918, #866 ) ;
#189 = DIRECTION ( 'NONE',  ( 0.000000000000000000, 0.000000000000000000, -1.000000000000000000 ) ) ;
#190 = UNCERTAINTY_MEASURE_WITH_UNIT (LENGTH_MEASURE( 1.000000000000000082E-05 ), #339, 'distance_accuracy_value', 'NONE');
#191 = VERTEX_POINT ( 'NONE', #890 ) ;
#192 = SURFACE_STYLE_USAGE ( .BOTH. , #501 ) ;
#193 = LINE ( 'NONE', #531, #507 ) ;
#194 = PRESENTATION_LAYER_ASSIGNMENT (  '', '', ( #15 ) ) ;
#195 = VECTOR ( 'NONE', #817, 1000.000000000000000 ) ;
#196 = ORIENTED_EDGE ( 'NONE', *, *, #633, .T. ) ;
#197 = DIRECTION ( 'NONE',  ( 1.000000000000000000, 0.000000000000000000, 0.000000000000000000 ) ) ;
#198 = DIRECTION ( 'NONE',  ( 0.000000000000000000, 0.000000000000000000, -1.000000000000000000 ) ) ;
#199 = DIRECTION ( 'NONE',  ( 0.000000000000000000, -1.000000000000000000, 0.000000000000000000 ) ) ;
#200 = ADVANCED_FACE ( 'NONE', ( #408 ), #546, .T. ) ;
#201 = ORIENTED_EDGE ( 'NONE', *, *, #829, .T. ) ;
#202 = CARTESIAN_POINT ( 'NONE',  ( 3.750000000000000000, 1.399999999999999911, -1.500000000000000222 ) ) ;
#203 = CARTESIAN_POINT ( 'NONE',  ( -1.949999999999999956, -0.1000000000000000056, -1.499999999999999112 ) ) ;
#204 = ORIENTED_EDGE ( 'NONE', *, *, #750, .F. ) ;
#205 = CARTESIAN_POINT ( 'NONE',  ( 3.149999999999998579, 2.799999999999999822, -3.299999999999999378 ) ) ;
#206 = DIRECTION ( 'NONE',  ( 0.000000000000000000, -1.000000000000000000, 0.000000000000000000 ) ) ;
#207 = AXIS2_PLACEMENT_3D ( 'NONE', #855, #267, #951 ) ;
#208 = VERTEX_POINT ( 'NONE', #861 ) ;
#209 = CIRCLE ( 'NONE', #834, 0.5000000000000000000 ) ;
#210 = STYLED_ITEM ( 'NONE', ( #909 ), #1023 ) ;
#211 = LINE ( 'NONE', #843, #999 ) ;
#212 = EDGE_CURVE ( 'NONE', #529, #845, #313, .T. ) ;
#213 = LINE ( 'NONE', #205, #916 ) ;
#214 = ORIENTED_EDGE ( 'NONE', *, *, #669, .F. ) ;
#215 = EDGE_CURVE ( 'NONE', #537, #288, #685, .T. ) ;
#216 = FILL_AREA_STYLE_COLOUR ( '', #405 ) ;
#217 = VERTEX_POINT ( 'NONE', #202 ) ;
#218 = CARTESIAN_POINT ( 'NONE',  ( -1.949999999999999734, 1.399999999999999911, 1.500000000000000888 ) ) ;
#219 = FILL_AREA_STYLE ('',( #1045 ) ) ;
#220 = ORIENTED_EDGE ( 'NONE', *, *, #163, .F. ) ;
#221 = EDGE_CURVE ( 'NONE', #537, #89, #177, .T. ) ;
#222 = VECTOR ( 'NONE', #276, 1000.000000000000000 ) ;
#223 = MECHANICAL_DESIGN_GEOMETRIC_PRESENTATION_REPRESENTATION (  '', ( #505 ), #853 ) ;
#224 = CARTESIAN_POINT ( 'NONE',  ( -3.149999999999999911, 2.799999999999999822, 2.799999999999999822 ) ) ;
#225 =( NAMED_UNIT ( * ) SI_UNIT ( $, .STERADIAN. ) SOLID_ANGLE_UNIT ( ) );
#226 = PRODUCT ( 'AMPLA7030Q-150MT', 'AMPLA7030Q-150MT', '', ( #858 ) ) ;
#227 = LINE ( 'NONE', #942, #370 ) ;
#228 = ORIENTED_EDGE ( 'NONE', *, *, #251, .T. ) ;
#229 = PRESENTATION_STYLE_ASSIGNMENT (( #967 ) ) ;
#230 = ORIENTED_EDGE ( 'NONE', *, *, #978, .T. ) ;
#231 = DIRECTION ( 'NONE',  ( 0.000000000000000000, 1.000000000000000000, 0.000000000000000000 ) ) ;
#232 = PLANE ( 'NONE',  #489 ) ;
#233 = VERTEX_POINT ( 'NONE', #1020 ) ;
#234 = LINE ( 'NONE', #961, #696 ) ;
#235 = VERTEX_POINT ( 'NONE', #264 ) ;
#236 = SURFACE_STYLE_FILL_AREA ( #836 ) ;
#237 = DIRECTION ( 'NONE',  ( -1.204669080539449097E-16, 0.000000000000000000, 1.000000000000000000 ) ) ;
#238 = ORIENTED_EDGE ( 'NONE', *, *, #411, .F. ) ;
#239 = AXIS2_PLACEMENT_3D ( 'NONE', #7, #174, #11 ) ;
#240 = STYLED_ITEM ( 'NONE', ( #123 ), #464 ) ;
#241 = DIRECTION ( 'NONE',  ( -0.000000000000000000, 1.000000000000000000, -0.000000000000000000 ) ) ;
#242 = ORIENTED_EDGE ( 'NONE', *, *, #686, .F. ) ;
#243 = PRESENTATION_LAYER_ASSIGNMENT (  '', '', ( #710 ) ) ;
#244 = EDGE_CURVE ( 'NONE', #291, #856, #453, .T. ) ;
#245 = DIRECTION ( 'NONE',  ( -0.000000000000000000, 1.000000000000000000, -0.000000000000000000 ) ) ;
#246 = VECTOR ( 'NONE', #245, 1000.000000000000000 ) ;
#247 = CARTESIAN_POINT ( 'NONE',  ( -1.949999999999999956, -0.1000000000000000056, -1.499999999999999112 ) ) ;
#248 = DIRECTION ( 'NONE',  ( 1.000000000000000000, 0.000000000000000000, 1.445602896647339163E-16 ) ) ;
#249 = FILL_AREA_STYLE_COLOUR ( '', #460 ) ;
#250 =( LENGTH_UNIT ( ) NAMED_UNIT ( * ) SI_UNIT ( .MILLI., .METRE. ) );
#251 = EDGE_CURVE ( 'NONE', #956, #1044, #765, .T. ) ;
#252 = CARTESIAN_POINT ( 'NONE',  ( -3.750000000000000000, -0.1000000000000000056, -1.499999999999999334 ) ) ;
#253 = LINE ( 'NONE', #582, #795 ) ;
#254 = CARTESIAN_POINT ( 'NONE',  ( -3.649999999999999911, 2.799999999999999822, 3.299999999999999822 ) ) ;
#255 = CARTESIAN_POINT ( 'NONE',  ( 3.750000000000000000, 1.399999999999999911, -1.500000000000000222 ) ) ;
#256 = CARTESIAN_POINT ( 'NONE',  ( -3.649999999999999467, 1.399999999999999911, 1.500000000000000666 ) ) ;
#257 = EDGE_CURVE ( 'NONE', #233, #1019, #780, .T. ) ;
#258 = CARTESIAN_POINT ( 'NONE',  ( -3.649999999999999911, 0.000000000000000000, -1.499999999999998668 ) ) ;
#259 = VECTOR ( 'NONE', #399, 1000.000000000000000 ) ;
#260 = LINE ( 'NONE', #255, #441 ) ;
#261 = DIRECTION ( 'NONE',  ( -0.000000000000000000, 1.000000000000000000, -0.000000000000000000 ) ) ;
#262 = LINE ( 'NONE', #594, #948 ) ;
#263 = EDGE_LOOP ( 'NONE', ( #1060, #295, #514, #717 ) ) ;
#264 = CARTESIAN_POINT ( 'NONE',  ( -3.649999999999999911, 2.799999999999999822, -2.799999999999999378 ) ) ;
#265 = EDGE_CURVE ( 'NONE', #413, #845, #994, .T. ) ;
#266 = LINE ( 'NONE', #203, #882 ) ;
#267 = DIRECTION ( 'NONE',  ( -0.000000000000000000, 1.000000000000000000, -0.000000000000000000 ) ) ;
#268 = ORIENTED_EDGE ( 'NONE', *, *, #862, .T. ) ;
#269 = ORIENTED_EDGE ( 'NONE', *, *, #915, .F. ) ;
#270 = DIRECTION ( 'NONE',  ( -0.000000000000000000, 1.000000000000000000, -0.000000000000000000 ) ) ;
#271 = APPLICATION_PROTOCOL_DEFINITION ( 'draft international standard', 'automotive_design', 1998, #839 ) ;
#272 = DIRECTION ( 'NONE',  ( 0.000000000000000000, -0.000000000000000000, 1.000000000000000000 ) ) ;
#273 = SURFACE_STYLE_USAGE ( .BOTH. , #1017 ) ;
#274 = UNCERTAINTY_MEASURE_WITH_UNIT (LENGTH_MEASURE( 1.000000000000000082E-05 ), #289, 'distance_accuracy_value', 'NONE');
#275 = VERTEX_POINT ( 'NONE', #25 ) ;
#276 = DIRECTION ( 'NONE',  ( -1.000000000000000000, -0.000000000000000000, -0.000000000000000000 ) ) ;
#277 = AXIS2_PLACEMENT_3D ( 'NONE', #376, #703, #359 ) ;
#278 = EDGE_CURVE ( 'NONE', #529, #683, #344, .T. ) ;
#279 = FACE_OUTER_BOUND ( 'NONE', #704, .T. ) ;
#280 = DIRECTION ( 'NONE',  ( 0.000000000000000000, 0.000000000000000000, -1.000000000000000000 ) ) ;
#281 = VECTOR ( 'NONE', #621, 1000.000000000000000 ) ;
#282 = VECTOR ( 'NONE', #604, 1000.000000000000000 ) ;
#283 = ORIENTED_EDGE ( 'NONE', *, *, #1027, .T. ) ;
#284 = CARTESIAN_POINT ( 'NONE',  ( -1.949999999999999956, 1.399999999999999911, -1.499999999999999112 ) ) ;
#285 = EDGE_CURVE ( 'NONE', #812, #976, #534, .T. ) ;
#286 = ORIENTED_EDGE ( 'NONE', *, *, #163, .T. ) ;
#287 = FACE_OUTER_BOUND ( 'NONE', #348, .T. ) ;
#288 = VERTEX_POINT ( 'NONE', #530 ) ;
#289 =( LENGTH_UNIT ( ) NAMED_UNIT ( * ) SI_UNIT ( .MILLI., .METRE. ) );
#290 = FILL_AREA_STYLE ('',( #364 ) ) ;
#291 = VERTEX_POINT ( 'NONE', #970 ) ;
#292 = ORIENTED_EDGE ( 'NONE', *, *, #1061, .T. ) ;
#293 = DIRECTION ( 'NONE',  ( 0.000000000000000000, 0.000000000000000000, -1.000000000000000000 ) ) ;
#294 = COLOUR_RGB ( '',0.000000000000000000, 0.000000000000000000, 0.000000000000000000 ) ;
#295 = ORIENTED_EDGE ( 'NONE', *, *, #304, .T. ) ;
#296 = VECTOR ( 'NONE', #173, 1000.000000000000000 ) ;
#297 = VECTOR ( 'NONE', #822, 1000.000000000000000 ) ;
#298 = ADVANCED_FACE ( 'NONE', ( #287 ), #232, .F. ) ;
#299 = CARTESIAN_POINT ( 'NONE',  ( 3.149999999999999023, 0.000000000000000000, 2.799999999999999822 ) ) ;
#300 =( NAMED_UNIT ( * ) PLANE_ANGLE_UNIT ( ) SI_UNIT ( $, .RADIAN. ) );
#301 = PRESENTATION_STYLE_ASSIGNMENT (( #1041 ) ) ;
#302 = ORIENTED_EDGE ( 'NONE', *, *, #842, .F. ) ;
#303 = CARTESIAN_POINT ( 'NONE',  ( -3.750000000000000444, -0.1000000000000000056, 1.500000000000000666 ) ) ;
#304 = EDGE_CURVE ( 'NONE', #89, #1006, #121, .T. ) ;
#305 = ORIENTED_EDGE ( 'NONE', *, *, #265, .T. ) ;
#306 = FACE_OUTER_BOUND ( 'NONE', #966, .T. ) ;
#307 = UNCERTAINTY_MEASURE_WITH_UNIT (LENGTH_MEASURE( 1.000000000000000082E-05 ), #786, 'distance_accuracy_value', 'NONE');
#308 = SURFACE_STYLE_FILL_AREA ( #543 ) ;
#309 = ADVANCED_FACE ( 'NONE', ( #59 ), #115, .F. ) ;
#310 = VECTOR ( 'NONE', #832, 1000.000000000000000 ) ;
#311 = ORIENTED_EDGE ( 'NONE', *, *, #479, .T. ) ;
#312 = PRESENTATION_LAYER_ASSIGNMENT (  '', '', ( #368 ) ) ;
#313 = CIRCLE ( 'NONE', #833, 0.5000000000000000000 ) ;
#314 = VECTOR ( 'NONE', #241, 1000.000000000000000 ) ;
#315 = CARTESIAN_POINT ( 'NONE',  ( -1.949999999999999956, 0.000000000000000000, -1.499999999999999112 ) ) ;
#316 = ORIENTED_EDGE ( 'NONE', *, *, #567, .F. ) ;
#317 = DIRECTION ( 'NONE',  ( -0.000000000000000000, -1.000000000000000000, 0.000000000000000000 ) ) ;
#318 = DIRECTION ( 'NONE',  ( -2.168404344971008868E-16, -0.000000000000000000, -1.000000000000000000 ) ) ;
#319 = EDGE_LOOP ( 'NONE', ( #471, #801, #468, #844 ) ) ;
#320 = CARTESIAN_POINT ( 'NONE',  ( 1.949999999999999512, -0.1000000000000000056, -1.499999999999999556 ) ) ;
#321 = ORIENTED_EDGE ( 'NONE', *, *, #17, .T. ) ;
#322 = SURFACE_STYLE_USAGE ( .BOTH. , #87 ) ;
#323 = CARTESIAN_POINT ( 'NONE',  ( 1.950000000000000178, 1.399999999999999911, 1.500000000000000444 ) ) ;
#324 = EDGE_LOOP ( 'NONE', ( #764, #706, #1051, #1035, #321, #434, #44, #758 ) ) ;
#325 = EDGE_CURVE ( 'NONE', #860, #883, #564, .T. ) ;
#326 = DIRECTION ( 'NONE',  ( -0.000000000000000000, 1.000000000000000000, -0.000000000000000000 ) ) ;
#327 = ORIENTED_EDGE ( 'NONE', *, *, #686, .T. ) ;
#328 = CARTESIAN_POINT ( 'NONE',  ( -3.149999999999999911, 2.799999999999999822, -3.299999999999999378 ) ) ;
#329 = FACE_OUTER_BOUND ( 'NONE', #789, .T. ) ;
#330 = VERTEX_POINT ( 'NONE', #401 ) ;
#331 = STYLED_ITEM ( 'NONE', ( #33 ), #168 ) ;
#332 = VECTOR ( 'NONE', #620, 1000.000000000000000 ) ;
#333 = EDGE_CURVE ( 'NONE', #167, #291, #485, .T. ) ;
#334 = UNCERTAINTY_MEASURE_WITH_UNIT (LENGTH_MEASURE( 1.000000000000000082E-05 ), #826, 'distance_accuracy_value', 'NONE');
#335 = VECTOR ( 'NONE', #439, 1000.000000000000000 ) ;
#336 = PRESENTATION_LAYER_ASSIGNMENT (  '', '', ( #952 ) ) ;
#337 = CARTESIAN_POINT ( 'NONE',  ( -3.149999999999999911, 2.799999999999999822, 3.299999999999999822 ) ) ;
#338 = CARTESIAN_POINT ( 'NONE',  ( 1.949999999999999512, -0.1000000000000000056, -1.499999999999999556 ) ) ;
#339 =( LENGTH_UNIT ( ) NAMED_UNIT ( * ) SI_UNIT ( .MILLI., .METRE. ) );
#340 = DIRECTION ( 'NONE',  ( 0.000000000000000000, 0.000000000000000000, -1.000000000000000000 ) ) ;
#341 = EDGE_CURVE ( 'NONE', #776, #330, #227, .T. ) ;
#342 = DIRECTION ( 'NONE',  ( -3.614007241618347292E-16, 0.000000000000000000, -1.000000000000000000 ) ) ;
#343 = CARTESIAN_POINT ( 'NONE',  ( 1.950000000000000178, 1.399999999999999911, 1.500000000000000444 ) ) ;
#344 = LINE ( 'NONE', #933, #101 ) ;
#345 =( NAMED_UNIT ( * ) SI_UNIT ( $, .STERADIAN. ) SOLID_ANGLE_UNIT ( ) );
#346 = CARTESIAN_POINT ( 'NONE',  ( 0.000000000000000000, -0.1000000000000000056, 0.000000000000000000 ) ) ;
#347 = LINE ( 'NONE', #757, #960 ) ;
#348 = EDGE_LOOP ( 'NONE', ( #1046, #636, #445, #684 ) ) ;
#349 = DIRECTION ( 'NONE',  ( -1.000000000000000000, -0.000000000000000000, 3.614007241618347785E-16 ) ) ;
#350 = CIRCLE ( 'NONE', #797, 0.5000000000000000000 ) ;
#351 = VECTOR ( 'NONE', #556, 1000.000000000000000 ) ;
#352 = MECHANICAL_DESIGN_GEOMETRIC_PRESENTATION_REPRESENTATION (  '', ( #210 ), #625 ) ;
#353 = CARTESIAN_POINT ( 'NONE',  ( 3.750000000000000444, -0.1000000000000000056, 1.499999999999999778 ) ) ;
#354 = CARTESIAN_POINT ( 'NONE',  ( 1.949999999999999512, -0.1000000000000000056, -1.499999999999999556 ) ) ;
#355 = ORIENTED_EDGE ( 'NONE', *, *, #125, .T. ) ;
#356 = SURFACE_STYLE_FILL_AREA ( #584 ) ;
#357 = PLANE ( 'NONE',  #82 ) ;
#358 =( NAMED_UNIT ( * ) PLANE_ANGLE_UNIT ( ) SI_UNIT ( $, .RADIAN. ) );
#359 = DIRECTION ( 'NONE',  ( 1.000000000000000000, 0.000000000000000000, -0.000000000000000000 ) ) ;
#360 = EDGE_LOOP ( 'NONE', ( #561, #554, #840, #838 ) ) ;
#361 = ADVANCED_FACE ( 'NONE', ( #36 ), #477, .F. ) ;
#362 = CYLINDRICAL_SURFACE ( 'NONE', #899, 0.5000000000000000000 ) ;
#363 = DIRECTION ( 'NONE',  ( -1.000000000000000000, 0.000000000000000000, 7.228014483236695816E-17 ) ) ;
#364 = FILL_AREA_STYLE_COLOUR ( '', #386 ) ;
#365 = ORIENTED_EDGE ( 'NONE', *, *, #669, .T. ) ;
#366 = DIRECTION ( 'NONE',  ( 0.000000000000000000, -1.000000000000000000, 0.000000000000000000 ) ) ;
#367 = EDGE_CURVE ( 'NONE', #656, #898, #705, .T. ) ;
#368 = STYLED_ITEM ( 'NONE', ( #301 ), #200 ) ;
#369 = CARTESIAN_POINT ( 'NONE',  ( -1.949999999999999734, 0.000000000000000000, 1.500000000000000888 ) ) ;
#370 = VECTOR ( 'NONE', #701, 1000.000000000000000 ) ;
#371 =( NAMED_UNIT ( * ) SI_UNIT ( $, .STERADIAN. ) SOLID_ANGLE_UNIT ( ) );
#372 = COLOUR_RGB ( '',0.000000000000000000, 0.000000000000000000, 0.000000000000000000 ) ;
#373 = ORIENTED_EDGE ( 'NONE', *, *, #504, .T. ) ;
#374 =( GEOMETRIC_REPRESENTATION_CONTEXT ( 3 ) GLOBAL_UNCERTAINTY_ASSIGNED_CONTEXT ( ( #307 ) ) GLOBAL_UNIT_ASSIGNED_CONTEXT ( ( #786, #549, #634 ) ) REPRESENTATION_CONTEXT ( 'NONE', 'WORKASPACE' ) );
#375 = CARTESIAN_POINT ( 'NONE',  ( -3.649999999999999911, 2.799999999999999822, 3.299999999999999822 ) ) ;
#376 = CARTESIAN_POINT ( 'NONE',  ( -3.649999999999999911, 2.799999999999999822, -3.299999999999999378 ) ) ;
#377 = EDGE_CURVE ( 'NONE', #167, #870, #397, .T. ) ;
#378 = EDGE_LOOP ( 'NONE', ( #305, #726, #876, #230 ) ) ;
#379 = DIRECTION ( 'NONE',  ( -1.000000000000000000, 0.000000000000000000, -0.000000000000000000 ) ) ;
#380 = UNCERTAINTY_MEASURE_WITH_UNIT (LENGTH_MEASURE( 1.000000000000000082E-05 ), #772, 'distance_accuracy_value', 'NONE');
#381 = SURFACE_STYLE_FILL_AREA ( #290 ) ;
#382 = EDGE_CURVE ( 'NONE', #1019, #778, #188, .T. ) ;
#383 = EDGE_LOOP ( 'NONE', ( #643, #402, #492, #24 ) ) ;
#384 = DIRECTION ( 'NONE',  ( 0.000000000000000000, -1.000000000000000000, 0.000000000000000000 ) ) ;
#385 = FILL_AREA_STYLE ('',( #1049 ) ) ;
#386 = COLOUR_RGB ( '',0.000000000000000000, 0.000000000000000000, 0.000000000000000000 ) ;
#387 = VERTEX_POINT ( 'NONE', #998 ) ;
#388 = AXIS2_PLACEMENT_3D ( 'NONE', #10, #415, #740 ) ;
#389 = PRESENTATION_LAYER_ASSIGNMENT (  '', '', ( #117 ) ) ;
#390 = PLANE ( 'NONE',  #609 ) ;
#391 = DIRECTION ( 'NONE',  ( 0.000000000000000000, -0.000000000000000000, -1.000000000000000000 ) ) ;
#392 = ORIENTED_EDGE ( 'NONE', *, *, #603, .T. ) ;
#393 = CARTESIAN_POINT ( 'NONE',  ( 1.949999999999999512, 1.399999999999999911, -1.499999999999999556 ) ) ;
#394 = EDGE_CURVE ( 'NONE', #208, #191, #22, .T. ) ;
#395 = ORIENTED_EDGE ( 'NONE', *, *, #528, .T. ) ;
#396 = FACE_OUTER_BOUND ( 'NONE', #183, .T. ) ;
#397 = LINE ( 'NONE', #886, #281 ) ;
#398 = ORIENTED_EDGE ( 'NONE', *, *, #244, .T. ) ;
#399 = DIRECTION ( 'NONE',  ( -1.000000000000000000, 0.000000000000000000, -1.204669080539449097E-16 ) ) ;
#400 = UNCERTAINTY_MEASURE_WITH_UNIT (LENGTH_MEASURE( 1.000000000000000082E-05 ), #1009, 'distance_accuracy_value', 'NONE');
#401 = CARTESIAN_POINT ( 'NONE',  ( 3.649999999999999023, 0.000000000000000000, -1.500000000000000222 ) ) ;
#402 = ORIENTED_EDGE ( 'NONE', *, *, #1066, .F. ) ;
#403 = VECTOR ( 'NONE', #1005, 1000.000000000000000 ) ;
#404 = PRESENTATION_LAYER_ASSIGNMENT (  '', '', ( #505 ) ) ;
#405 = COLOUR_RGB ( '',0.7529411764705882248, 0.7529411764705882248, 0.7529411764705882248 ) ;
#406 = ORIENTED_EDGE ( 'NONE', *, *, #394, .T. ) ;
#407 = DIRECTION ( 'NONE',  ( 1.000000000000000000, -0.000000000000000000, 0.000000000000000000 ) ) ;
#408 = FACE_OUTER_BOUND ( 'NONE', #971, .T. ) ;
#409 = DIRECTION ( 'NONE',  ( 0.000000000000000000, -1.000000000000000000, 0.000000000000000000 ) ) ;
#410 = EDGE_LOOP ( 'NONE', ( #238, #938, #648, #651 ) ) ;
#411 = EDGE_CURVE ( 'NONE', #1006, #288, #211, .T. ) ;
#412 = DIRECTION ( 'NONE',  ( 7.228014483236695816E-17, 0.000000000000000000, 1.000000000000000000 ) ) ;
#413 = VERTEX_POINT ( 'NONE', #605 ) ;
#414 = CARTESIAN_POINT ( 'NONE',  ( -3.649999999999999467, 0.000000000000000000, 1.500000000000000666 ) ) ;
#415 = DIRECTION ( 'NONE',  ( 0.000000000000000000, -1.000000000000000000, 0.000000000000000000 ) ) ;
#416 = CARTESIAN_POINT ( 'NONE',  ( -3.649999999999999911, 2.799999999999999822, 3.299999999999999822 ) ) ;
#417 = ADVANCED_FACE ( 'NONE', ( #682 ), #127, .F. ) ;
#418 = SURFACE_STYLE_USAGE ( .BOTH. , #590 ) ;
#419 =( NAMED_UNIT ( * ) PLANE_ANGLE_UNIT ( ) SI_UNIT ( $, .RADIAN. ) );
#420 = DIRECTION ( 'NONE',  ( 1.000000000000000000, 0.000000000000000000, 1.204669080539449344E-16 ) ) ;
#421 = LINE ( 'NONE', #3, #310 ) ;
#422 = AXIS2_PLACEMENT_3D ( 'NONE', #936, #199, #859 ) ;
#423 = AXIS2_PLACEMENT_3D ( 'NONE', #181, #363, #96 ) ;
#424 = EDGE_CURVE ( 'NONE', #778, #738, #538, .T. ) ;
#425 = CIRCLE ( 'NONE', #388, 0.5000000000000000000 ) ;
#426 = CARTESIAN_POINT ( 'NONE',  ( -3.649999999999999911, 2.799999999999999822, 1.500000000000000666 ) ) ;
#427 = AXIS2_PLACEMENT_3D ( 'NONE', #32, #722, #618 ) ;
#428 = CARTESIAN_POINT ( 'NONE',  ( 1.950000000000000178, -0.1000000000000000056, 1.500000000000000444 ) ) ;
#429 = CARTESIAN_POINT ( 'NONE',  ( 3.750000000000000000, -0.1000000000000000056, -1.500000000000000222 ) ) ;
#430 = CARTESIAN_POINT ( 'NONE',  ( 3.649999999999999023, 2.799999999999999822, 3.299999999999999822 ) ) ;
#431 = ADVANCED_BREP_SHAPE_REPRESENTATION ( 'AMPLA7030Q-150MT', ( #1023, #635, #996, #135 ), #474 ) ;
#432 = LINE ( 'NONE', #508, #679 ) ;
#433 = EDGE_LOOP ( 'NONE', ( #732, #283, #1065, #565, #110, #820, #365, #406 ) ) ;
#434 = ORIENTED_EDGE ( 'NONE', *, *, #257, .T. ) ;
#435 =( LENGTH_UNIT ( ) NAMED_UNIT ( * ) SI_UNIT ( .MILLI., .METRE. ) );
#436 = CARTESIAN_POINT ( 'NONE',  ( -3.750000000000000000, -0.1000000000000000056, -1.499999999999999334 ) ) ;
#437 = ORIENTED_EDGE ( 'NONE', *, *, #553, .T. ) ;
#438 =( LENGTH_UNIT ( ) NAMED_UNIT ( * ) SI_UNIT ( .MILLI., .METRE. ) );
#439 = DIRECTION ( 'NONE',  ( -0.000000000000000000, 1.000000000000000000, -0.000000000000000000 ) ) ;
#440 = MECHANICAL_DESIGN_GEOMETRIC_PRESENTATION_REPRESENTATION (  '', ( #240 ), #524 ) ;
#441 = VECTOR ( 'NONE', #502, 1000.000000000000000 ) ;
#442 = MECHANICAL_DESIGN_GEOMETRIC_PRESENTATION_REPRESENTATION (  '', ( #39 ), #800 ) ;
#443 = DIRECTION ( 'NONE',  ( -0.000000000000000000, 1.000000000000000000, -0.000000000000000000 ) ) ;
#444 = DIRECTION ( 'NONE',  ( 0.000000000000000000, 0.000000000000000000, -1.000000000000000000 ) ) ;
#445 = ORIENTED_EDGE ( 'NONE', *, *, #221, .F. ) ;
#446 = DIRECTION ( 'NONE',  ( 1.000000000000000000, 0.000000000000000000, 0.000000000000000000 ) ) ;
#447 =( NAMED_UNIT ( * ) SI_UNIT ( $, .STERADIAN. ) SOLID_ANGLE_UNIT ( ) );
#448 = ORIENTED_EDGE ( 'NONE', *, *, #1048, .F. ) ;
#449 = DIRECTION ( 'NONE',  ( 0.000000000000000000, 0.000000000000000000, -1.000000000000000000 ) ) ;
#450 = EDGE_CURVE ( 'NONE', #619, #235, #350, .T. ) ;
#451 = CARTESIAN_POINT ( 'NONE',  ( -1.949999999999999734, -0.1000000000000000056, 1.500000000000000888 ) ) ;
#452 = VERTEX_POINT ( 'NONE', #593 ) ;
#453 = LINE ( 'NONE', #516, #573 ) ;
#454 = STYLED_ITEM ( 'NONE', ( #43 ), #143 ) ;
#455 = EDGE_CURVE ( 'NONE', #738, #619, #106, .T. ) ;
#456 = VECTOR ( 'NONE', #31, 1000.000000000000000 ) ;
#457 = PRESENTATION_STYLE_ASSIGNMENT (( #519 ) ) ;
#458 = MECHANICAL_DESIGN_GEOMETRIC_PRESENTATION_REPRESENTATION (  '', ( #913 ), #1056 ) ;
#459 =( NAMED_UNIT ( * ) PLANE_ANGLE_UNIT ( ) SI_UNIT ( $, .RADIAN. ) );
#460 = COLOUR_RGB ( '',0.7529411764705882248, 0.7529411764705882248, 0.7529411764705882248 ) ;
#461 = ORIENTED_EDGE ( 'NONE', *, *, #907, .F. ) ;
#462 = MECHANICAL_DESIGN_GEOMETRIC_PRESENTATION_REPRESENTATION (  '', ( #555 ), #1058 ) ;
#463 = DIRECTION ( 'NONE',  ( 3.614007241618347785E-16, -0.000000000000000000, 1.000000000000000000 ) ) ;
#464 = ADVANCED_FACE ( 'NONE', ( #675 ), #28, .T. ) ;
#465 = EDGE_LOOP ( 'NONE', ( #286, #392, #107, #1013 ) ) ;
#466 = UNCERTAINTY_MEASURE_WITH_UNIT (LENGTH_MEASURE( 1.000000000000000082E-05 ), #668, 'distance_accuracy_value', 'NONE');
#467 = PLANE ( 'NONE',  #1039 ) ;
#468 = ORIENTED_EDGE ( 'NONE', *, *, #125, .F. ) ;
#469 = MECHANICAL_DESIGN_GEOMETRIC_PRESENTATION_REPRESENTATION (  '', ( #331 ), #878 ) ;
#470 = AXIS2_PLACEMENT_3D ( 'NONE', #299, #627, #548 ) ;
#471 = ORIENTED_EDGE ( 'NONE', *, *, #597, .F. ) ;
#472 = VECTOR ( 'NONE', #100, 1000.000000000000000 ) ;
#473 = ADVANCED_FACE ( 'NONE', ( #544 ), #872, .T. ) ;
#474 =( GEOMETRIC_REPRESENTATION_CONTEXT ( 3 ) GLOBAL_UNCERTAINTY_ASSIGNED_CONTEXT ( ( #334 ) ) GLOBAL_UNIT_ASSIGNED_CONTEXT ( ( #826, #419, #580 ) ) REPRESENTATION_CONTEXT ( 'NONE', 'WORKASPACE' ) );
#475 = CARTESIAN_POINT ( 'NONE',  ( -3.649999999999999911, 0.000000000000000000, -2.799999999999999378 ) ) ;
#476 = SURFACE_STYLE_USAGE ( .BOTH. , #124 ) ;
#477 = PLANE ( 'NONE',  #81 ) ;
#478 = ORIENTED_EDGE ( 'NONE', *, *, #788, .F. ) ;
#479 = EDGE_CURVE ( 'NONE', #656, #976, #934, .T. ) ;
#480 = LINE ( 'NONE', #813, #880 ) ;
#481 = CARTESIAN_POINT ( 'NONE',  ( 0.000000000000000000, 1.399999999999999911, 0.000000000000000000 ) ) ;
#482 = SURFACE_SIDE_STYLE ('',( #308 ) ) ;
#483 = ORIENTED_EDGE ( 'NONE', *, *, #103, .F. ) ;
#484 = EDGE_LOOP ( 'NONE', ( #373, #630, #877, #327 ) ) ;
#485 = LINE ( 'NONE', #723, #766 ) ;
#486 = LINE ( 'NONE', #157, #195 ) ;
#487 = VECTOR ( 'NONE', #945, 1000.000000000000000 ) ;
#488 = ORIENTED_EDGE ( 'NONE', *, *, #215, .T. ) ;
#489 = AXIS2_PLACEMENT_3D ( 'NONE', #146, #463, #811 ) ;
#490 = AXIS2_PLACEMENT_3D ( 'NONE', #768, #663, #164 ) ;
#491 =( NAMED_UNIT ( * ) PLANE_ANGLE_UNIT ( ) SI_UNIT ( $, .RADIAN. ) );
#492 = ORIENTED_EDGE ( 'NONE', *, *, #212, .F. ) ;
#493 = LINE ( 'NONE', #426, #297 ) ;
#494 = EDGE_CURVE ( 'NONE', #1006, #776, #885, .T. ) ;
#495 = PLANE ( 'NONE',  #1037 ) ;
#496 = ORIENTED_EDGE ( 'NONE', *, *, #265, .F. ) ;
#497 = LINE ( 'NONE', #825, #172 ) ;
#498 = LINE ( 'NONE', #1068, #712 ) ;
#499 = CARTESIAN_POINT ( 'NONE',  ( 3.750000000000000444, -0.1000000000000000056, 1.499999999999999778 ) ) ;
#500 = ORIENTED_EDGE ( 'NONE', *, *, #603, .F. ) ;
#501 = SURFACE_SIDE_STYLE ('',( #185 ) ) ;
#502 = DIRECTION ( 'NONE',  ( 1.445602896647339163E-16, 0.000000000000000000, 1.000000000000000000 ) ) ;
#503 = CARTESIAN_POINT ( 'NONE',  ( -3.149999999999999911, 2.799999999999999822, 3.299999999999999822 ) ) ;
#504 = EDGE_CURVE ( 'NONE', #572, #275, #655, .T. ) ;
#505 = STYLED_ITEM ( 'NONE', ( #841 ), #664 ) ;
#506 = FILL_AREA_STYLE_COLOUR ( '', #155 ) ;
#507 = VECTOR ( 'NONE', #1016, 1000.000000000000000 ) ;
#508 = CARTESIAN_POINT ( 'NONE',  ( 3.750000000000000000, -0.1000000000000000056, -1.500000000000000222 ) ) ;
#509 = EDGE_LOOP ( 'NONE', ( #292, #654, #269, #204 ) ) ;
#510 = VERTEX_POINT ( 'NONE', #893 ) ;
#511 = CARTESIAN_POINT ( 'NONE',  ( -1.949999999999999956, 1.399999999999999911, -1.499999999999999112 ) ) ;
#512 = LINE ( 'NONE', #375, #472 ) ;
#513 = FILL_AREA_STYLE ('',( #688 ) ) ;
#514 = ORIENTED_EDGE ( 'NONE', *, *, #411, .T. ) ;
#515 = VERTEX_POINT ( 'NONE', #977 ) ;
#516 = CARTESIAN_POINT ( 'NONE',  ( -1.949999999999999734, 1.399999999999999911, 1.500000000000000888 ) ) ;
#517 = CARTESIAN_POINT ( 'NONE',  ( 0.000000000000000000, 0.000000000000000000, 0.000000000000000000 ) ) ;
#518 = ADVANCED_FACE ( 'NONE', ( #637 ), #390, .F. ) ;
#519 = SURFACE_STYLE_USAGE ( .BOTH. , #1004 ) ;
#520 = SURFACE_SIDE_STYLE ('',( #923 ) ) ;
#521 = SURFACE_STYLE_USAGE ( .BOTH. , #119 ) ;
#522 = ORIENTED_EDGE ( 'NONE', *, *, #367, .F. ) ;
#523 = VECTOR ( 'NONE', #924, 1000.000000000000000 ) ;
#524 =( GEOMETRIC_REPRESENTATION_CONTEXT ( 3 ) GLOBAL_UNCERTAINTY_ASSIGNED_CONTEXT ( ( #720 ) ) GLOBAL_UNIT_ASSIGNED_CONTEXT ( ( #435, #358, #447 ) ) REPRESENTATION_CONTEXT ( 'NONE', 'WORKASPACE' ) );
#525 = VECTOR ( 'NONE', #666, 1000.000000000000000 ) ;
#526 = FILL_AREA_STYLE_COLOUR ( '', #1022 ) ;
#527 = CARTESIAN_POINT ( 'NONE',  ( -3.649999999999999911, 2.799999999999999822, 2.799999999999999822 ) ) ;
#528 = EDGE_CURVE ( 'NONE', #89, #452, #480, .T. ) ;
#529 = VERTEX_POINT ( 'NONE', #475 ) ;
#530 = CARTESIAN_POINT ( 'NONE',  ( 3.649999999999999023, 1.399999999999999911, -1.500000000000000222 ) ) ;
#531 = CARTESIAN_POINT ( 'NONE',  ( 5.421010862427526114E-16, 0.000000000000000000, 1.500000000000001110 ) ) ;
#532 = CARTESIAN_POINT ( 'NONE',  ( 3.649999999999999023, 0.000000000000000000, 3.299999999999999822 ) ) ;
#533 = ORIENTED_EDGE ( 'NONE', *, *, #697, .F. ) ;
#534 = LINE ( 'NONE', #1014, #1053 ) ;
#535 = ADVANCED_FACE ( 'NONE', ( #306 ), #888, .F. ) ;
#536 = DIRECTION ( 'NONE',  ( 0.000000000000000000, -1.000000000000000000, 0.000000000000000000 ) ) ;
#537 = VERTEX_POINT ( 'NONE', #575 ) ;
#538 = CIRCLE ( 'NONE', #207, 0.5000000000000000000 ) ;
#539 = VECTOR ( 'NONE', #673, 1000.000000000000000 ) ;
#540 = FACE_OUTER_BOUND ( 'NONE', #378, .T. ) ;
#541 =( GEOMETRIC_REPRESENTATION_CONTEXT ( 3 ) GLOBAL_UNCERTAINTY_ASSIGNED_CONTEXT ( ( #466 ) ) GLOBAL_UNIT_ASSIGNED_CONTEXT ( ( #668, #652, #980 ) ) REPRESENTATION_CONTEXT ( 'NONE', 'WORKASPACE' ) );
#542 = ORIENTED_EDGE ( 'NONE', *, *, #17, .F. ) ;
#543 = FILL_AREA_STYLE ('',( #947 ) ) ;
#544 = FACE_OUTER_BOUND ( 'NONE', #741, .T. ) ;
#545 = PRESENTATION_STYLE_ASSIGNMENT (( #476 ) ) ;
#546 = CYLINDRICAL_SURFACE ( 'NONE', #588, 0.5000000000000000000 ) ;
#547 = ORIENTED_EDGE ( 'NONE', *, *, #587, .T. ) ;
#548 = DIRECTION ( 'NONE',  ( 0.000000000000000000, 0.000000000000000000, -1.000000000000000000 ) ) ;
#549 =( NAMED_UNIT ( * ) PLANE_ANGLE_UNIT ( ) SI_UNIT ( $, .RADIAN. ) );
#550 = VERTEX_POINT ( 'NONE', #900 ) ;
#551 = DIRECTION ( 'NONE',  ( -0.000000000000000000, -1.000000000000000000, -0.000000000000000000 ) ) ;
#552 = VECTOR ( 'NONE', #804, 1000.000000000000000 ) ;
#553 = EDGE_CURVE ( 'NONE', #870, #856, #57, .T. ) ;
#554 = ORIENTED_EDGE ( 'NONE', *, *, #842, .T. ) ;
#555 = STYLED_ITEM ( 'NONE', ( #457 ), #949 ) ;
#556 = DIRECTION ( 'NONE',  ( 1.000000000000000000, 0.000000000000000000, -3.614007241618347292E-16 ) ) ;
#557 = DIRECTION ( 'NONE',  ( 0.000000000000000000, -1.000000000000000000, 0.000000000000000000 ) ) ;
#558 = PRESENTATION_STYLE_ASSIGNMENT (( #641 ) ) ;
#559 = ORIENTED_EDGE ( 'NONE', *, *, #587, .F. ) ;
#560 = CARTESIAN_POINT ( 'NONE',  ( -3.149999999999999911, 2.799999999999999822, -3.299999999999999378 ) ) ;
#561 = ORIENTED_EDGE ( 'NONE', *, *, #915, .T. ) ;
#562 = CARTESIAN_POINT ( 'NONE',  ( 1.949999999999999512, 1.399999999999999911, -1.499999999999999556 ) ) ;
#563 = CARTESIAN_POINT ( 'NONE',  ( 3.649999999999999023, 2.799999999999999822, 2.799999999999999822 ) ) ;
#564 = LINE ( 'NONE', #891, #332 ) ;
#565 = ORIENTED_EDGE ( 'NONE', *, *, #697, .T. ) ;
#566 = PLANE ( 'NONE',  #490 ) ;
#567 = EDGE_CURVE ( 'NONE', #452, #776, #234, .T. ) ;
#568 = EDGE_LOOP ( 'NONE', ( #30, #887, #617, #576 ) ) ;
#569 = CARTESIAN_POINT ( 'NONE',  ( 3.649999999999999023, 2.799999999999999822, 2.799999999999999822 ) ) ;
#570 = CARTESIAN_POINT ( 'NONE',  ( 3.649999999999999023, 2.799999999999999822, -2.799999999999999378 ) ) ;
#571 = AXIS2_PLACEMENT_3D ( 'NONE', #182, #206, #189 ) ;
#572 = VERTEX_POINT ( 'NONE', #315 ) ;
#573 = VECTOR ( 'NONE', #1008, 1000.000000000000000 ) ;
#574 = AXIS2_PLACEMENT_3D ( 'NONE', #247, #903, #420 ) ;
#575 = CARTESIAN_POINT ( 'NONE',  ( 3.649999999999999023, 1.399999999999999911, 1.499999999999999778 ) ) ;
#576 = ORIENTED_EDGE ( 'NONE', *, *, #978, .F. ) ;
#577 = CARTESIAN_POINT ( 'NONE',  ( -1.949999999999999734, 1.399999999999999911, 1.500000000000000888 ) ) ;
#578 = DIRECTION ( 'NONE',  ( 1.445602896647339163E-16, 0.000000000000000000, -1.000000000000000000 ) ) ;
#579 =( NAMED_UNIT ( * ) SI_UNIT ( $, .STERADIAN. ) SOLID_ANGLE_UNIT ( ) );
#580 =( NAMED_UNIT ( * ) SI_UNIT ( $, .STERADIAN. ) SOLID_ANGLE_UNIT ( ) );
#581 = LINE ( 'NONE', #670, #49 ) ;
#582 = CARTESIAN_POINT ( 'NONE',  ( 1.950000000000000178, -0.1000000000000000056, 1.500000000000000444 ) ) ;
#583 = EDGE_CURVE ( 'NONE', #510, #47, #151, .T. ) ;
#584 = FILL_AREA_STYLE ('',( #249 ) ) ;
#585 = FACE_OUTER_BOUND ( 'NONE', #71, .T. ) ;
#586 = ORIENTED_EDGE ( 'NONE', *, *, #257, .F. ) ;
#587 = EDGE_CURVE ( 'NONE', #870, #860, #497, .T. ) ;
#588 = AXIS2_PLACEMENT_3D ( 'NONE', #914, #1002, #774 ) ;
#589 = VECTOR ( 'NONE', #349, 1000.000000000000000 ) ;
#590 = SURFACE_SIDE_STYLE ('',( #356 ) ) ;
#591 = MECHANICAL_DESIGN_GEOMETRIC_PRESENTATION_REPRESENTATION (  '', ( #952 ), #541 ) ;
#592 = PLANE ( 'NONE',  #574 ) ;
#593 = CARTESIAN_POINT ( 'NONE',  ( 1.950000000000000178, 0.000000000000000000, 1.500000000000000444 ) ) ;
#594 = CARTESIAN_POINT ( 'NONE',  ( -1.949999999999999956, -0.1000000000000000056, -1.499999999999999112 ) ) ;
#595 = EDGE_LOOP ( 'NONE', ( #547, #1032, #114, #98 ) ) ;
#596 = LINE ( 'NONE', #9, #539 ) ;
#597 = EDGE_CURVE ( 'NONE', #191, #90, #209, .T. ) ;
#598 = DIRECTION ( 'NONE',  ( -0.000000000000000000, 1.000000000000000000, 0.000000000000000000 ) ) ;
#599 = CARTESIAN_POINT ( 'NONE',  ( -3.649999999999999911, 2.799999999999999822, -3.299999999999999378 ) ) ;
#600 = LINE ( 'NONE', #606, #523 ) ;
#601 = ORIENTED_EDGE ( 'NONE', *, *, #633, .F. ) ;
#602 = DIRECTION ( 'NONE',  ( 0.000000000000000000, 0.000000000000000000, -1.000000000000000000 ) ) ;
#603 = EDGE_CURVE ( 'NONE', #1044, #217, #737, .T. ) ;
#604 = DIRECTION ( 'NONE',  ( -0.000000000000000000, 1.000000000000000000, -0.000000000000000000 ) ) ;
#605 = CARTESIAN_POINT ( 'NONE',  ( 3.149999999999998579, 0.000000000000000000, -3.299999999999999378 ) ) ;
#606 = CARTESIAN_POINT ( 'NONE',  ( 1.949999999999999512, -0.1000000000000000056, -1.499999999999999556 ) ) ;
#607 = ORIENTED_EDGE ( 'NONE', *, *, #129, .F. ) ;
#608 = CARTESIAN_POINT ( 'NONE',  ( -3.149999999999999911, 0.000000000000000000, -2.799999999999999378 ) ) ;
#609 = AXIS2_PLACEMENT_3D ( 'NONE', #650, #1043, #160 ) ;
#610 = EDGE_CURVE ( 'NONE', #510, #275, #957, .T. ) ;
#611 = VERTEX_POINT ( 'NONE', #54 ) ;
#612 = CARTESIAN_POINT ( 'NONE',  ( 3.649999999999999023, 1.399999999999999911, 3.299999999999999822 ) ) ;
#613 = CARTESIAN_POINT ( 'NONE',  ( 3.149999999999998579, 2.799999999999999822, -2.799999999999999378 ) ) ;
#614 = CARTESIAN_POINT ( 'NONE',  ( 1.950000000000000178, -0.1000000000000000056, 1.500000000000000444 ) ) ;
#615 = ORIENTED_EDGE ( 'NONE', *, *, #750, .T. ) ;
#616 =( NAMED_UNIT ( * ) SI_UNIT ( $, .STERADIAN. ) SOLID_ANGLE_UNIT ( ) );
#617 = ORIENTED_EDGE ( 'NONE', *, *, #721, .F. ) ;
#618 = DIRECTION ( 'NONE',  ( -1.000000000000000000, 0.000000000000000000, -1.204669080539449590E-16 ) ) ;
#619 = VERTEX_POINT ( 'NONE', #560 ) ;
#620 = DIRECTION ( 'NONE',  ( 1.000000000000000000, -0.000000000000000000, 1.204669080539449344E-16 ) ) ;
#621 = DIRECTION ( 'NONE',  ( -1.000000000000000000, 0.000000000000000000, -1.204669080539449097E-16 ) ) ;
#622 = ORIENTED_EDGE ( 'NONE', *, *, #610, .T. ) ;
#623 =( GEOMETRIC_REPRESENTATION_CONTEXT ( 3 ) GLOBAL_UNCERTAINTY_ASSIGNED_CONTEXT ( ( #809 ) ) GLOBAL_UNIT_ASSIGNED_CONTEXT ( ( #730, #871, #616 ) ) REPRESENTATION_CONTEXT ( 'NONE', 'WORKASPACE' ) );
#624 = AXIS2_PLACEMENT_3D ( 'NONE', #577, #237, #837 ) ;
#625 =( GEOMETRIC_REPRESENTATION_CONTEXT ( 3 ) GLOBAL_UNCERTAINTY_ASSIGNED_CONTEXT ( ( #744 ) ) GLOBAL_UNIT_ASSIGNED_CONTEXT ( ( #250, #145, #165 ) ) REPRESENTATION_CONTEXT ( 'NONE', 'WORKASPACE' ) );
#626 = ORIENTED_EDGE ( 'NONE', *, *, #333, .F. ) ;
#627 = DIRECTION ( 'NONE',  ( 0.000000000000000000, -1.000000000000000000, 0.000000000000000000 ) ) ;
#628 = ADVANCED_FACE ( 'NONE', ( #1062 ), #566, .F. ) ;
#629 = SURFACE_STYLE_USAGE ( .BOTH. , #46 ) ;
#630 = ORIENTED_EDGE ( 'NONE', *, *, #610, .F. ) ;
#631 = DIRECTION ( 'NONE',  ( -2.168404344971008868E-16, -0.000000000000000000, -1.000000000000000000 ) ) ;
#632 = ORIENTED_EDGE ( 'NONE', *, *, #479, .F. ) ;
#633 = EDGE_CURVE ( 'NONE', #860, #724, #995, .T. ) ;
#634 =( NAMED_UNIT ( * ) SI_UNIT ( $, .STERADIAN. ) SOLID_ANGLE_UNIT ( ) );
#635 = MANIFOLD_SOLID_BREP ( 'Boss-Extrude2[1]', #640 ) ;
#636 = ORIENTED_EDGE ( 'NONE', *, *, #528, .F. ) ;
#637 = FACE_OUTER_BOUND ( 'NONE', #130, .T. ) ;
#638 = CIRCLE ( 'NONE', #571, 0.5000000000000000000 ) ;
#639 = SURFACE_SIDE_STYLE ('',( #1050 ) ) ;
#640 = CLOSED_SHELL ( 'NONE', ( #58, #808, #417, #518, #793, #1010 ) ) ;
#641 = SURFACE_STYLE_USAGE ( .BOTH. , #482 ) ;
#642 = PRESENTATION_LAYER_ASSIGNMENT (  '', '', ( #240 ) ) ;
#643 = ORIENTED_EDGE ( 'NONE', *, *, #450, .F. ) ;
#644 = VECTOR ( 'NONE', #759, 1000.000000000000000 ) ;
#645 = FILL_AREA_STYLE_COLOUR ( '', #372 ) ;
#646 = ORIENTED_EDGE ( 'NONE', *, *, #1031, .T. ) ;
#647 = DIRECTION ( 'NONE',  ( 1.445602896647339163E-16, 0.000000000000000000, 1.000000000000000000 ) ) ;
#648 = ORIENTED_EDGE ( 'NONE', *, *, #341, .T. ) ;
#649 = EDGE_CURVE ( 'NONE', #818, #852, #917, .T. ) ;
#650 = CARTESIAN_POINT ( 'NONE',  ( -1.949999999999999734, -0.1000000000000000056, 1.500000000000000888 ) ) ;
#651 = ORIENTED_EDGE ( 'NONE', *, *, #829, .F. ) ;
#652 =( NAMED_UNIT ( * ) PLANE_ANGLE_UNIT ( ) SI_UNIT ( $, .RADIAN. ) );
#653 = CARTESIAN_POINT ( 'NONE',  ( -3.649999999999999911, 2.799999999999999822, -1.499999999999998668 ) ) ;
#654 = ORIENTED_EDGE ( 'NONE', *, *, #788, .T. ) ;
#655 = LINE ( 'NONE', #879, #1071 ) ;
#656 = VERTEX_POINT ( 'NONE', #985 ) ;
#657 = UNCERTAINTY_MEASURE_WITH_UNIT (LENGTH_MEASURE( 1.000000000000000082E-05 ), #438, 'distance_accuracy_value', 'NONE');
#658 = CARTESIAN_POINT ( 'NONE',  ( 1.949999999999999512, 0.000000000000000000, -1.499999999999999556 ) ) ;
#659 = FACE_OUTER_BOUND ( 'NONE', #941, .T. ) ;
#660 = AXIS2_PLACEMENT_3D ( 'NONE', #45, #384, #707 ) ;
#661 = VECTOR ( 'NONE', #27, 1000.000000000000000 ) ;
#662 = COLOUR_RGB ( '',0.000000000000000000, 0.000000000000000000, 0.000000000000000000 ) ;
#663 = DIRECTION ( 'NONE',  ( 0.000000000000000000, -1.000000000000000000, 0.000000000000000000 ) ) ;
#664 = ADVANCED_FACE ( 'NONE', ( #908 ), #85, .F. ) ;
#665 = CARTESIAN_POINT ( 'NONE',  ( -3.649999999999999911, 2.799999999999999822, -2.799999999999999378 ) ) ;
#666 = DIRECTION ( 'NONE',  ( 0.000000000000000000, -1.000000000000000000, 0.000000000000000000 ) ) ;
#667 = DIRECTION ( 'NONE',  ( 3.614007241618347292E-16, 0.000000000000000000, 1.000000000000000000 ) ) ;
#668 =( LENGTH_UNIT ( ) NAMED_UNIT ( * ) SI_UNIT ( .MILLI., .METRE. ) );
#669 = EDGE_CURVE ( 'NONE', #1055, #208, #596, .T. ) ;
#670 = CARTESIAN_POINT ( 'NONE',  ( -3.649999999999999911, 1.399999999999999911, 3.299999999999999822 ) ) ;
#671 = ORIENTED_EDGE ( 'NONE', *, *, #902, .T. ) ;
#672 = DIRECTION ( 'NONE',  ( -0.000000000000000000, -0.000000000000000000, 1.000000000000000000 ) ) ;
#673 = DIRECTION ( 'NONE',  ( -0.000000000000000000, -0.000000000000000000, 1.000000000000000000 ) ) ;
#674 = DIRECTION ( 'NONE',  ( 1.445602896647339163E-16, 0.000000000000000000, 1.000000000000000000 ) ) ;
#675 = FACE_OUTER_BOUND ( 'NONE', #383, .T. ) ;
#676 = DIRECTION ( 'NONE',  ( 1.000000000000000000, 0.000000000000000000, 1.204669080539449590E-16 ) ) ;
#677 = ORIENTED_EDGE ( 'NONE', *, *, #583, .F. ) ;
#678 =( NAMED_UNIT ( * ) SI_UNIT ( $, .STERADIAN. ) SOLID_ANGLE_UNIT ( ) );
#679 = VECTOR ( 'NONE', #674, 1000.000000000000000 ) ;
#680 = DIRECTION ( 'NONE',  ( -1.000000000000000000, 0.000000000000000000, 0.000000000000000000 ) ) ;
#681 = LINE ( 'NONE', #760, #661 ) ;
#682 = FACE_OUTER_BOUND ( 'NONE', #889, .T. ) ;
#683 = VERTEX_POINT ( 'NONE', #258 ) ;
#684 = ORIENTED_EDGE ( 'NONE', *, *, #1031, .F. ) ;
#685 = LINE ( 'NONE', #612, #456 ) ;
#686 = EDGE_CURVE ( 'NONE', #784, #572, #178, .T. ) ;
#687 = CARTESIAN_POINT ( 'NONE',  ( -1.949999999999999956, -0.1000000000000000056, -1.499999999999999112 ) ) ;
#688 = FILL_AREA_STYLE_COLOUR ( '', #708 ) ;
#689 = PRODUCT_DEFINITION_CONTEXT ( 'detailed design', #839, 'design' ) ;
#690 = VERTEX_POINT ( 'NONE', #921 ) ;
#691 = DIRECTION ( 'NONE',  ( -0.000000000000000000, 1.000000000000000000, 0.000000000000000000 ) ) ;
#692 = SURFACE_STYLE_USAGE ( .BOTH. , #520 ) ;
#693 = ORIENTED_EDGE ( 'NONE', *, *, #53, .F. ) ;
#694 = CARTESIAN_POINT ( 'NONE',  ( 3.149999999999999023, 2.799999999999999822, 2.799999999999999822 ) ) ;
#695 = VECTOR ( 'NONE', #184, 1000.000000000000000 ) ;
#696 = VECTOR ( 'NONE', #631, 1000.000000000000000 ) ;
#697 = EDGE_CURVE ( 'NONE', #683, #515, #846, .T. ) ;
#698 = DIRECTION ( 'NONE',  ( 0.000000000000000000, 0.000000000000000000, -1.000000000000000000 ) ) ;
#699 = FACE_OUTER_BOUND ( 'NONE', #360, .T. ) ;
#700 = ORIENTED_EDGE ( 'NONE', *, *, #304, .F. ) ;
#701 = DIRECTION ( 'NONE',  ( 1.000000000000000000, 0.000000000000000000, -3.614007241618347292E-16 ) ) ;
#702 = FILL_AREA_STYLE ('',( #526 ) ) ;
#703 = DIRECTION ( 'NONE',  ( 0.000000000000000000, 0.000000000000000000, 1.000000000000000000 ) ) ;
#704 = EDGE_LOOP ( 'NONE', ( #42, #242, #693, #533 ) ) ;
#705 = LINE ( 'NONE', #55, #37 ) ;
#706 = ORIENTED_EDGE ( 'NONE', *, *, #450, .T. ) ;
#707 = DIRECTION ( 'NONE',  ( 0.000000000000000000, -0.000000000000000000, -1.000000000000000000 ) ) ;
#708 = COLOUR_RGB ( '',0.000000000000000000, 0.000000000000000000, 0.000000000000000000 ) ;
#709 = DIRECTION ( 'NONE',  ( 0.000000000000000000, -0.000000000000000000, 1.000000000000000000 ) ) ;
#710 = STYLED_ITEM ( 'NONE', ( #229 ), #628 ) ;
#711 = FILL_AREA_STYLE ('',( #792 ) ) ;
#712 = VECTOR ( 'NONE', #751, 1000.000000000000000 ) ;
#713 = ORIENTED_EDGE ( 'NONE', *, *, #129, .T. ) ;
#714 = EDGE_CURVE ( 'NONE', #856, #724, #147, .T. ) ;
#715 = DIRECTION ( 'NONE',  ( -0.000000000000000000, -1.000000000000000000, -0.000000000000000000 ) ) ;
#716 = FACE_OUTER_BOUND ( 'NONE', #433, .T. ) ;
#717 = ORIENTED_EDGE ( 'NONE', *, *, #215, .F. ) ;
#718 = FILL_AREA_STYLE ('',( #645 ) ) ;
#719 = ORIENTED_EDGE ( 'NONE', *, *, #333, .T. ) ;
#720 = UNCERTAINTY_MEASURE_WITH_UNIT (LENGTH_MEASURE( 1.000000000000000082E-05 ), #435, 'distance_accuracy_value', 'NONE');
#721 = EDGE_CURVE ( 'NONE', #413, #550, #425, .T. ) ;
#722 = DIRECTION ( 'NONE',  ( 1.204669080539449590E-16, 0.000000000000000000, -1.000000000000000000 ) ) ;
#723 = CARTESIAN_POINT ( 'NONE',  ( -1.949999999999999734, -0.1000000000000000056, 1.500000000000000888 ) ) ;
#724 = VERTEX_POINT ( 'NONE', #1069 ) ;
#725 = CARTESIAN_POINT ( 'NONE',  ( 1.949999999999999512, 1.399999999999999911, -1.499999999999999556 ) ) ;
#726 = ORIENTED_EDGE ( 'NONE', *, *, #1066, .T. ) ;
#727 = PRESENTATION_LAYER_ASSIGNMENT (  '', '', ( #331 ) ) ;
#728 = CYLINDRICAL_SURFACE ( 'NONE', #19, 0.5000000000000000000 ) ;
#729 = VECTOR ( 'NONE', #318, 1000.000000000000000 ) ;
#730 =( LENGTH_UNIT ( ) NAMED_UNIT ( * ) SI_UNIT ( .MILLI., .METRE. ) );
#731 = PRODUCT_RELATED_PRODUCT_CATEGORY ( 'part', '', ( #226 ) ) ;
#732 = ORIENTED_EDGE ( 'NONE', *, *, #884, .F. ) ;
#733 = ORIENTED_EDGE ( 'NONE', *, *, #958, .F. ) ;
#734 = SURFACE_STYLE_USAGE ( .BOTH. , #803 ) ;
#735 = DIRECTION ( 'NONE',  ( -1.000000000000000000, 0.000000000000000000, 3.614007241618347292E-16 ) ) ;
#736 = ORIENTED_EDGE ( 'NONE', *, *, #48, .F. ) ;
#737 = LINE ( 'NONE', #725, #351 ) ;
#738 = VERTEX_POINT ( 'NONE', #975 ) ;
#739 = LINE ( 'NONE', #665, #769 ) ;
#740 = DIRECTION ( 'NONE',  ( 0.000000000000000000, 0.000000000000000000, -1.000000000000000000 ) ) ;
#741 = EDGE_LOOP ( 'NONE', ( #268, #1001, #968, #773 ) ) ;
#742 = EDGE_CURVE ( 'NONE', #550, #778, #486, .T. ) ;
#743 = CARTESIAN_POINT ( 'NONE',  ( 1.950000000000000178, -0.1000000000000000056, 1.500000000000000444 ) ) ;
#744 = UNCERTAINTY_MEASURE_WITH_UNIT (LENGTH_MEASURE( 1.000000000000000082E-05 ), #250, 'distance_accuracy_value', 'NONE');
#745 = DIRECTION ( 'NONE',  ( -1.000000000000000000, 0.000000000000000000, 2.168404344971008868E-16 ) ) ;
#746 = DIRECTION ( 'NONE',  ( -0.000000000000000000, 1.000000000000000000, -0.000000000000000000 ) ) ;
#747 = AXIS2_PLACEMENT_3D ( 'NONE', #796, #790, #280 ) ;
#748 = VECTOR ( 'NONE', #40, 1000.000000000000000 ) ;
#749 = PRODUCT_DEFINITION_FORMATION_WITH_SPECIFIED_SOURCE ( 'ANY', '', #226, .NOT_KNOWN. ) ;
#750 = EDGE_CURVE ( 'NONE', #75, #818, #432, .T. ) ;
#751 = DIRECTION ( 'NONE',  ( -0.000000000000000000, 1.000000000000000000, -0.000000000000000000 ) ) ;
#752 = PLANE ( 'NONE',  #896 ) ;
#753 = PLANE ( 'NONE',  #239 ) ;
#754 = DIRECTION ( 'NONE',  ( 0.000000000000000000, 0.000000000000000000, 1.000000000000000000 ) ) ;
#755 = ADVANCED_FACE ( 'NONE', ( #329 ), #997, .F. ) ;
#756 = FACE_OUTER_BOUND ( 'NONE', #595, .T. ) ;
#757 = CARTESIAN_POINT ( 'NONE',  ( 1.807003620809173153E-16, 0.000000000000000000, -1.499999999999998890 ) ) ;
#758 = ORIENTED_EDGE ( 'NONE', *, *, #424, .T. ) ;
#759 = DIRECTION ( 'NONE',  ( -0.000000000000000000, -1.000000000000000000, -0.000000000000000000 ) ) ;
#760 = CARTESIAN_POINT ( 'NONE',  ( -1.949999999999999956, 1.399999999999999911, -1.499999999999999112 ) ) ;
#761 = DIRECTION ( 'NONE',  ( 1.000000000000000000, -0.000000000000000000, 1.204669080539449344E-16 ) ) ;
#762 = ADVANCED_FACE ( 'NONE', ( #6 ), #166, .F. ) ;
#763 = VECTOR ( 'NONE', #746, 1000.000000000000000 ) ;
#764 = ORIENTED_EDGE ( 'NONE', *, *, #455, .T. ) ;
#765 = LINE ( 'NONE', #20, #815 ) ;
#766 = VECTOR ( 'NONE', #779, 1000.000000000000000 ) ;
#767 = MECHANICAL_DESIGN_GEOMETRIC_PRESENTATION_REPRESENTATION (  '', ( #710 ), #964 ) ;
#768 = CARTESIAN_POINT ( 'NONE',  ( 0.000000000000000000, 2.799999999999999822, 0.000000000000000000 ) ) ;
#769 = VECTOR ( 'NONE', #317, 1000.000000000000000 ) ;
#770 = CARTESIAN_POINT ( 'NONE',  ( -3.750000000000000444, -0.1000000000000000056, 1.500000000000000666 ) ) ;
#771 = DIRECTION ( 'NONE',  ( -1.000000000000000000, -0.000000000000000000, -0.000000000000000000 ) ) ;
#772 =( LENGTH_UNIT ( ) NAMED_UNIT ( * ) SI_UNIT ( .MILLI., .METRE. ) );
#773 = ORIENTED_EDGE ( 'NONE', *, *, #583, .T. ) ;
#774 = DIRECTION ( 'NONE',  ( 0.000000000000000000, 0.000000000000000000, -1.000000000000000000 ) ) ;
#775 = PLANE ( 'NONE',  #422 ) ;
#776 = VERTEX_POINT ( 'NONE', #658 ) ;
#777 =( NAMED_UNIT ( * ) SI_UNIT ( $, .STERADIAN. ) SOLID_ANGLE_UNIT ( ) );
#778 = VERTEX_POINT ( 'NONE', #570 ) ;
#779 = DIRECTION ( 'NONE',  ( -0.000000000000000000, 1.000000000000000000, -0.000000000000000000 ) ) ;
#780 = CIRCLE ( 'NONE', #911, 0.5000000000000000000 ) ;
#781 = ADVANCED_FACE ( 'NONE', ( #982 ), #752, .F. ) ;
#782 = PRESENTATION_LAYER_ASSIGNMENT (  '', '', ( #555 ) ) ;
#783 = LINE ( 'NONE', #563, #552 ) ;
#784 = VERTEX_POINT ( 'NONE', #83 ) ;
#785 = CARTESIAN_POINT ( 'NONE',  ( -3.649999999999999911, 2.799999999999999822, 3.299999999999999822 ) ) ;
#786 =( LENGTH_UNIT ( ) NAMED_UNIT ( * ) SI_UNIT ( .MILLI., .METRE. ) );
#787 = DIRECTION ( 'NONE',  ( 0.000000000000000000, 0.000000000000000000, -1.000000000000000000 ) ) ;
#788 = EDGE_CURVE ( 'NONE', #217, #387, #260, .T. ) ;
#789 = EDGE_LOOP ( 'NONE', ( #677, #622, #56, #448 ) ) ;
#790 = DIRECTION ( 'NONE',  ( -0.000000000000000000, -1.000000000000000000, 0.000000000000000000 ) ) ;
#791 = DIRECTION ( 'NONE',  ( -0.000000000000000000, 1.000000000000000000, 0.000000000000000000 ) ) ;
#792 = FILL_AREA_STYLE_COLOUR ( '', #831 ) ;
#793 = ADVANCED_FACE ( 'NONE', ( #756 ), #495, .T. ) ;
#794 = ORIENTED_EDGE ( 'NONE', *, *, #742, .T. ) ;
#795 = VECTOR ( 'NONE', #906, 1000.000000000000000 ) ;
#796 = CARTESIAN_POINT ( 'NONE',  ( -3.149999999999999911, 2.799999999999999822, -2.799999999999999378 ) ) ;
#797 = AXIS2_PLACEMENT_3D ( 'NONE', #929, #261, #50 ) ;
#798 = DIRECTION ( 'NONE',  ( 0.000000000000000000, -1.000000000000000000, 0.000000000000000000 ) ) ;
#799 = AXIS2_PLACEMENT_3D ( 'NONE', #922, #691, #272 ) ;
#800 =( GEOMETRIC_REPRESENTATION_CONTEXT ( 3 ) GLOBAL_UNCERTAINTY_ASSIGNED_CONTEXT ( ( #873 ) ) GLOBAL_UNIT_ASSIGNED_CONTEXT ( ( #953, #300, #225 ) ) REPRESENTATION_CONTEXT ( 'NONE', 'WORKASPACE' ) );
#801 = ORIENTED_EDGE ( 'NONE', *, *, #394, .F. ) ;
#802 = DIRECTION ( 'NONE',  ( 1.445602896647339163E-16, -0.000000000000000000, -1.000000000000000000 ) ) ;
#803 = SURFACE_SIDE_STYLE ('',( #136 ) ) ;
#804 = DIRECTION ( 'NONE',  ( 0.000000000000000000, -1.000000000000000000, 0.000000000000000000 ) ) ;
#805 = DIRECTION ( 'NONE',  ( 0.000000000000000000, 0.000000000000000000, -1.000000000000000000 ) ) ;
#806 = EDGE_LOOP ( 'NONE', ( #932, #794, #894, #946, #158, #646, #488, #201 ) ) ;
#807 = DIRECTION ( 'NONE',  ( -0.000000000000000000, -1.000000000000000000, -0.000000000000000000 ) ) ;
#808 = ADVANCED_FACE ( 'NONE', ( #585 ), #592, .F. ) ;
#809 = UNCERTAINTY_MEASURE_WITH_UNIT (LENGTH_MEASURE( 1.000000000000000082E-05 ), #730, 'distance_accuracy_value', 'NONE');
#810 = DIRECTION ( 'NONE',  ( 0.000000000000000000, -1.000000000000000000, 0.000000000000000000 ) ) ;
#811 = DIRECTION ( 'NONE',  ( 1.000000000000000000, 0.000000000000000000, -3.614007241618347785E-16 ) ) ;
#812 = VERTEX_POINT ( 'NONE', #161 ) ;
#813 = CARTESIAN_POINT ( 'NONE',  ( 1.950000000000000178, 1.399999999999999911, 1.500000000000000444 ) ) ;
#814 = ORIENTED_EDGE ( 'NONE', *, *, #244, .F. ) ;
#815 = VECTOR ( 'NONE', #8, 1000.000000000000000 ) ;
#816 = CARTESIAN_POINT ( 'NONE',  ( 1.949999999999999512, 1.399999999999999911, -1.499999999999999556 ) ) ;
#817 = DIRECTION ( 'NONE',  ( -0.000000000000000000, 1.000000000000000000, -0.000000000000000000 ) ) ;
#818 = VERTEX_POINT ( 'NONE', #499 ) ;
#819 = PRESENTATION_LAYER_ASSIGNMENT (  '', '', ( #210 ) ) ;
#820 = ORIENTED_EDGE ( 'NONE', *, *, #1048, .T. ) ;
#821 = UNCERTAINTY_MEASURE_WITH_UNIT (LENGTH_MEASURE( 1.000000000000000082E-05 ), #63, 'distance_accuracy_value', 'NONE');
#822 = DIRECTION ( 'NONE',  ( 0.000000000000000000, -1.000000000000000000, 0.000000000000000000 ) ) ;
#823 = LINE ( 'NONE', #337, #525 ) ;
#824 = LINE ( 'NONE', #354, #170 ) ;
#825 = CARTESIAN_POINT ( 'NONE',  ( -3.750000000000000000, -0.1000000000000000056, -1.499999999999999334 ) ) ;
#826 =( LENGTH_UNIT ( ) NAMED_UNIT ( * ) SI_UNIT ( .MILLI., .METRE. ) );
#827 = DIRECTION ( 'NONE',  ( -1.000000000000000000, -0.000000000000000000, 3.614007241618347785E-16 ) ) ;
#828 = LINE ( 'NONE', #416, #149 ) ;
#829 = EDGE_CURVE ( 'NONE', #288, #330, #74, .T. ) ;
#830 = CARTESIAN_POINT ( 'NONE',  ( -3.750000000000000000, 1.399999999999999911, -1.499999999999999334 ) ) ;
#831 = COLOUR_RGB ( '',0.000000000000000000, 0.000000000000000000, 0.000000000000000000 ) ;
#832 = DIRECTION ( 'NONE',  ( 1.000000000000000000, 0.000000000000000000, -3.614007241618347292E-16 ) ) ;
#833 = AXIS2_PLACEMENT_3D ( 'NONE', #608, #366, #449 ) ;
#834 = AXIS2_PLACEMENT_3D ( 'NONE', #224, #326, #138 ) ;
#835 = PRESENTATION_LAYER_ASSIGNMENT (  '', '', ( #39 ) ) ;
#836 = FILL_AREA_STYLE ('',( #506 ) ) ;
#837 = DIRECTION ( 'NONE',  ( 1.000000000000000000, 0.000000000000000000, 1.204669080539449097E-16 ) ) ;
#838 = ORIENTED_EDGE ( 'NONE', *, *, #649, .F. ) ;
#839 = APPLICATION_CONTEXT ( 'automotive_design' ) ;
#840 = ORIENTED_EDGE ( 'NONE', *, *, #79, .F. ) ;
#841 = PRESENTATION_STYLE_ASSIGNMENT (( #192 ) ) ;
#842 = EDGE_CURVE ( 'NONE', #387, #956, #1064, .T. ) ;
#843 = CARTESIAN_POINT ( 'NONE',  ( 1.949999999999999512, 1.399999999999999911, -1.499999999999999556 ) ) ;
#844 = ORIENTED_EDGE ( 'NONE', *, *, #850, .F. ) ;
#845 = VERTEX_POINT ( 'NONE', #2 ) ;
#846 = LINE ( 'NONE', #653, #296 ) ;
#847 = DIRECTION ( 'NONE',  ( 0.000000000000000000, 0.000000000000000000, 1.000000000000000000 ) ) ;
#848 = DIRECTION ( 'NONE',  ( 0.000000000000000000, -0.000000000000000000, 1.000000000000000000 ) ) ;
#849 = CARTESIAN_POINT ( 'NONE',  ( -1.949999999999999956, 1.399999999999999911, -1.499999999999999112 ) ) ;
#850 = EDGE_CURVE ( 'NONE', #90, #812, #823, .T. ) ;
#851 = VECTOR ( 'NONE', #787, 1000.000000000000000 ) ;
#852 = VERTEX_POINT ( 'NONE', #428 ) ;
#853 =( GEOMETRIC_REPRESENTATION_CONTEXT ( 3 ) GLOBAL_UNCERTAINTY_ASSIGNED_CONTEXT ( ( #400 ) ) GLOBAL_UNIT_ASSIGNED_CONTEXT ( ( #1009, #76, #345 ) ) REPRESENTATION_CONTEXT ( 'NONE', 'WORKASPACE' ) );
#854 = SURFACE_STYLE_FILL_AREA ( #702 ) ;
#855 = CARTESIAN_POINT ( 'NONE',  ( 3.149999999999998579, 2.799999999999999822, -2.799999999999999378 ) ) ;
#856 = VERTEX_POINT ( 'NONE', #988 ) ;
#857 = CARTESIAN_POINT ( 'NONE',  ( 1.950000000000000178, 1.399999999999999911, 1.500000000000000444 ) ) ;
#858 = PRODUCT_CONTEXT ( 'NONE', #41, 'mechanical' ) ;
#859 = DIRECTION ( 'NONE',  ( 0.000000000000000000, -0.000000000000000000, -1.000000000000000000 ) ) ;
#860 = VERTEX_POINT ( 'NONE', #252 ) ;
#861 = CARTESIAN_POINT ( 'NONE',  ( -3.649999999999999911, 0.000000000000000000, 2.799999999999999822 ) ) ;
#862 = EDGE_CURVE ( 'NONE', #47, #515, #581, .T. ) ;
#863 = LINE ( 'NONE', #353, #282 ) ;
#864 = DIRECTION ( 'NONE',  ( -3.614007241618347785E-16, 0.000000000000000000, -1.000000000000000000 ) ) ;
#865 = ORIENTED_EDGE ( 'NONE', *, *, #937, .F. ) ;
#866 = VECTOR ( 'NONE', #444, 1000.000000000000000 ) ;
#867 = EDGE_CURVE ( 'NONE', #784, #510, #681, .T. ) ;
#868 = FILL_AREA_STYLE ('',( #216 ) ) ;
#869 = SURFACE_STYLE_FILL_AREA ( #23 ) ;
#870 = VERTEX_POINT ( 'NONE', #770 ) ;
#871 =( NAMED_UNIT ( * ) PLANE_ANGLE_UNIT ( ) SI_UNIT ( $, .RADIAN. ) );
#872 = PLANE ( 'NONE',  #660 ) ;
#873 = UNCERTAINTY_MEASURE_WITH_UNIT (LENGTH_MEASURE( 1.000000000000000082E-05 ), #953, 'distance_accuracy_value', 'NONE');
#874 = ADVANCED_FACE ( 'NONE', ( #1029 ), #1011, .F. ) ;
#875 = PLANE ( 'NONE',  #1024 ) ;
#876 = ORIENTED_EDGE ( 'NONE', *, *, #455, .F. ) ;
#877 = ORIENTED_EDGE ( 'NONE', *, *, #867, .F. ) ;
#878 =( GEOMETRIC_REPRESENTATION_CONTEXT ( 3 ) GLOBAL_UNCERTAINTY_ASSIGNED_CONTEXT ( ( #139 ) ) GLOBAL_UNIT_ASSIGNED_CONTEXT ( ( #109, #1034, #371 ) ) REPRESENTATION_CONTEXT ( 'NONE', 'WORKASPACE' ) );
#879 = CARTESIAN_POINT ( 'NONE',  ( -1.949999999999999956, 0.000000000000000000, -1.499999999999999112 ) ) ;
#880 = VECTOR ( 'NONE', #807, 1000.000000000000000 ) ;
#881 = FACE_OUTER_BOUND ( 'NONE', #319, .T. ) ;
#882 = VECTOR ( 'NONE', #443, 1000.000000000000000 ) ;
#883 = VERTEX_POINT ( 'NONE', #687 ) ;
#884 = EDGE_CURVE ( 'NONE', #235, #191, #512, .T. ) ;
#885 = LINE ( 'NONE', #393, #171 ) ;
#886 = CARTESIAN_POINT ( 'NONE',  ( -1.949999999999999734, -0.1000000000000000056, 1.500000000000000888 ) ) ;
#887 = ORIENTED_EDGE ( 'NONE', *, *, #742, .F. ) ;
#888 = PLANE ( 'NONE',  #1021 ) ;
#889 = EDGE_LOOP ( 'NONE', ( #974, #713, #626, #483 ) ) ;
#890 = CARTESIAN_POINT ( 'NONE',  ( -3.649999999999999911, 2.799999999999999822, 2.799999999999999822 ) ) ;
#891 = CARTESIAN_POINT ( 'NONE',  ( -1.949999999999999956, -0.1000000000000000056, -1.499999999999999112 ) ) ;
#892 = EDGE_LOOP ( 'NONE', ( #64, #979, #615, #920 ) ) ;
#893 = CARTESIAN_POINT ( 'NONE',  ( -1.949999999999999734, 1.399999999999999911, 1.500000000000000888 ) ) ;
#894 = ORIENTED_EDGE ( 'NONE', *, *, #382, .F. ) ;
#895 = AXIS2_PLACEMENT_3D ( 'NONE', #68, #141, #647 ) ;
#896 = AXIS2_PLACEMENT_3D ( 'NONE', #991, #342, #735 ) ;
#897 = DIRECTION ( 'NONE',  ( 0.000000000000000000, -1.000000000000000000, 0.000000000000000000 ) ) ;
#898 = VERTEX_POINT ( 'NONE', #1025 ) ;
#899 = AXIS2_PLACEMENT_3D ( 'NONE', #613, #536, #198 ) ;
#900 = CARTESIAN_POINT ( 'NONE',  ( 3.649999999999999023, 0.000000000000000000, -2.799999999999999378 ) ) ;
#901 = EDGE_LOOP ( 'NONE', ( #134, #925, #496, #60, #52, #144, #316, #733, #522, #311, #1067, #355, #214, #461, #18, #1028 ) ) ;
#902 = EDGE_CURVE ( 'NONE', #724, #690, #14, .T. ) ;
#903 = DIRECTION ( 'NONE',  ( -1.204669080539449344E-16, 0.000000000000000000, 1.000000000000000000 ) ) ;
#904 = PLANE ( 'NONE',  #931 ) ;
#905 = CARTESIAN_POINT ( 'NONE',  ( 1.949999999999999512, 1.399999999999999911, -1.499999999999999556 ) ) ;
#906 = DIRECTION ( 'NONE',  ( -0.000000000000000000, 1.000000000000000000, -0.000000000000000000 ) ) ;
#907 = EDGE_CURVE ( 'NONE', #275, #1055, #187, .T. ) ;
#908 = FACE_OUTER_BOUND ( 'NONE', #806, .T. ) ;
#909 = PRESENTATION_STYLE_ASSIGNMENT (( #322 ) ) ;
#910 = DIRECTION ( 'NONE',  ( 1.445602896647339163E-16, -0.000000000000000000, -1.000000000000000000 ) ) ;
#911 = AXIS2_PLACEMENT_3D ( 'NONE', #694, #270, #602 ) ;
#912 = LINE ( 'NONE', #1000, #763 ) ;
#913 = STYLED_ITEM ( 'NONE', ( #13 ), #635 ) ;
#914 = CARTESIAN_POINT ( 'NONE',  ( 3.149999999999999023, 2.799999999999999822, 2.799999999999999822 ) ) ;
#915 = EDGE_CURVE ( 'NONE', #818, #387, #863, .T. ) ;
#916 = VECTOR ( 'NONE', #810, 1000.000000000000000 ) ;
#917 = LINE ( 'NONE', #743, #589 ) ;
#918 = CARTESIAN_POINT ( 'NONE',  ( 3.649999999999999023, 2.799999999999999822, 3.299999999999999822 ) ) ;
#919 = DIRECTION ( 'NONE',  ( 7.228014483236695816E-17, 0.000000000000000000, 1.000000000000000000 ) ) ;
#920 = ORIENTED_EDGE ( 'NONE', *, *, #649, .T. ) ;
#921 = CARTESIAN_POINT ( 'NONE',  ( -1.949999999999999956, 1.399999999999999911, -1.499999999999999112 ) ) ;
#922 = CARTESIAN_POINT ( 'NONE',  ( 0.000000000000000000, 1.399999999999999911, 0.000000000000000000 ) ) ;
#923 = SURFACE_STYLE_FILL_AREA ( #513 ) ;
#924 = DIRECTION ( 'NONE',  ( -0.000000000000000000, 1.000000000000000000, -0.000000000000000000 ) ) ;
#925 = ORIENTED_EDGE ( 'NONE', *, *, #212, .T. ) ;
#926 = FILL_AREA_STYLE ('',( #1003 ) ) ;
#927 = ADVANCED_FACE ( 'NONE', ( #928 ), #357, .F. ) ;
#928 = FACE_OUTER_BOUND ( 'NONE', #892, .T. ) ;
#929 = CARTESIAN_POINT ( 'NONE',  ( -3.149999999999999911, 2.799999999999999822, -2.799999999999999378 ) ) ;
#930 = PLANE ( 'NONE',  #277 ) ;
#931 = AXIS2_PLACEMENT_3D ( 'NONE', #338, #667, #989 ) ;
#932 = ORIENTED_EDGE ( 'NONE', *, *, #156, .T. ) ;
#933 = CARTESIAN_POINT ( 'NONE',  ( -3.649999999999999911, 0.000000000000000000, 3.299999999999999822 ) ) ;
#934 = CIRCLE ( 'NONE', #470, 0.5000000000000000000 ) ;
#935 =( NAMED_UNIT ( * ) PLANE_ANGLE_UNIT ( ) SI_UNIT ( $, .RADIAN. ) );
#936 = CARTESIAN_POINT ( 'NONE',  ( 0.000000000000000000, 0.000000000000000000, 0.000000000000000000 ) ) ;
#937 = EDGE_CURVE ( 'NONE', #883, #690, #266, .T. ) ;
#938 = ORIENTED_EDGE ( 'NONE', *, *, #494, .T. ) ;
#939 = CARTESIAN_POINT ( 'NONE',  ( -3.649999999999999911, 0.000000000000000000, -3.299999999999999378 ) ) ;
#940 = FILL_AREA_STYLE_COLOUR ( '', #169 ) ;
#941 = EDGE_LOOP ( 'NONE', ( #437, #1042, #601, #559 ) ) ;
#942 = CARTESIAN_POINT ( 'NONE',  ( 1.949999999999999512, 0.000000000000000000, -1.499999999999999556 ) ) ;
#943 = EDGE_LOOP ( 'NONE', ( #1070, #176, #542, #120 ) ) ;
#944 = FACE_OUTER_BOUND ( 'NONE', #1007, .T. ) ;
#945 = DIRECTION ( 'NONE',  ( 7.228014483236695816E-17, 0.000000000000000000, 1.000000000000000000 ) ) ;
#946 = ORIENTED_EDGE ( 'NONE', *, *, #186, .T. ) ;
#947 = FILL_AREA_STYLE_COLOUR ( '', #294 ) ;
#948 = VECTOR ( 'NONE', #919, 1000.000000000000000 ) ;
#949 = ADVANCED_FACE ( 'NONE', ( #95 ), #362, .T. ) ;
#950 = VECTOR ( 'NONE', #551, 1000.000000000000000 ) ;
#951 = DIRECTION ( 'NONE',  ( 0.000000000000000000, 0.000000000000000000, -1.000000000000000000 ) ) ;
#952 = STYLED_ITEM ( 'NONE', ( #66 ), #1015 ) ;
#953 =( LENGTH_UNIT ( ) NAMED_UNIT ( * ) SI_UNIT ( .MILLI., .METRE. ) );
#954 = ORIENTED_EDGE ( 'NONE', *, *, #325, .F. ) ;
#955 = PRESENTATION_STYLE_ASSIGNMENT (( #629 ) ) ;
#956 = VERTEX_POINT ( 'NONE', #180 ) ;
#957 = LINE ( 'NONE', #218, #950 ) ;
#958 = EDGE_CURVE ( 'NONE', #898, #452, #193, .T. ) ;
#959 = ORIENTED_EDGE ( 'NONE', *, *, #494, .F. ) ;
#960 = VECTOR ( 'NONE', #676, 1000.000000000000000 ) ;
#961 = CARTESIAN_POINT ( 'NONE',  ( 1.949999999999999512, 0.000000000000000000, -1.499999999999999556 ) ) ;
#962 = MECHANICAL_DESIGN_GEOMETRIC_PRESENTATION_REPRESENTATION (  '', ( #15 ), #623 ) ;
#963 = CARTESIAN_POINT ( 'NONE',  ( 0.000000000000000000, 1.399999999999999911, 0.000000000000000000 ) ) ;
#964 =( GEOMETRIC_REPRESENTATION_CONTEXT ( 3 ) GLOBAL_UNCERTAINTY_ASSIGNED_CONTEXT ( ( #821 ) ) GLOBAL_UNIT_ASSIGNED_CONTEXT ( ( #63, #491, #579 ) ) REPRESENTATION_CONTEXT ( 'NONE', 'WORKASPACE' ) );
#965 = ADVANCED_FACE ( 'NONE', ( #279 ), #108, .F. ) ;
#966 = EDGE_LOOP ( 'NONE', ( #73, #228, #220, #137 ) ) ;
#967 = SURFACE_STYLE_USAGE ( .BOTH. , #1047 ) ;
#968 = ORIENTED_EDGE ( 'NONE', *, *, #867, .T. ) ;
#969 = LINE ( 'NONE', #154, #984 ) ;
#970 = CARTESIAN_POINT ( 'NONE',  ( -1.949999999999999734, 1.399999999999999911, 1.500000000000000888 ) ) ;
#971 = EDGE_LOOP ( 'NONE', ( #586, #736, #632, #12 ) ) ;
#972 = ADVANCED_FACE ( 'NONE', ( #944 ), #875, .T. ) ;
#973 = DIRECTION ( 'NONE',  ( 1.000000000000000000, 0.000000000000000000, -2.168404344971008868E-16 ) ) ;
#974 = ORIENTED_EDGE ( 'NONE', *, *, #937, .T. ) ;
#975 = CARTESIAN_POINT ( 'NONE',  ( 3.149999999999998579, 2.799999999999999822, -3.299999999999999378 ) ) ;
#976 = VERTEX_POINT ( 'NONE', #51 ) ;
#977 = CARTESIAN_POINT ( 'NONE',  ( -3.649999999999999911, 1.399999999999999911, -1.499999999999999334 ) ) ;
#978 = EDGE_CURVE ( 'NONE', #738, #413, #213, .T. ) ;
#979 = ORIENTED_EDGE ( 'NONE', *, *, #26, .T. ) ;
#980 =( NAMED_UNIT ( * ) SI_UNIT ( $, .STERADIAN. ) SOLID_ANGLE_UNIT ( ) );
#981 = VECTOR ( 'NONE', #827, 1000.000000000000000 ) ;
#982 = FACE_OUTER_BOUND ( 'NONE', #410, .T. ) ;
#983 = PLANE ( 'NONE',  #61 ) ;
#984 = VECTOR ( 'NONE', #231, 1000.000000000000000 ) ;
#985 = CARTESIAN_POINT ( 'NONE',  ( 3.649999999999999023, 0.000000000000000000, 2.799999999999999822 ) ) ;
#986 = LINE ( 'NONE', #328, #246 ) ;
#987 = ADVANCED_FACE ( 'NONE', ( #881 ), #728, .T. ) ;
#988 = CARTESIAN_POINT ( 'NONE',  ( -3.750000000000000444, 1.399999999999999911, 1.500000000000000666 ) ) ;
#989 = DIRECTION ( 'NONE',  ( 1.000000000000000000, 0.000000000000000000, -3.614007241618347292E-16 ) ) ;
#990 =( NAMED_UNIT ( * ) PLANE_ANGLE_UNIT ( ) SI_UNIT ( $, .RADIAN. ) );
#991 = CARTESIAN_POINT ( 'NONE',  ( 1.949999999999999512, 1.399999999999999911, -1.499999999999999556 ) ) ;
#992 = DIRECTION ( 'NONE',  ( 1.000000000000000000, 0.000000000000000000, 0.000000000000000000 ) ) ;
#993 = PRODUCT_DEFINITION ( 'UNKNOWN', '', #749, #689 ) ;
#994 = LINE ( 'NONE', #939, #222 ) ;
#995 = LINE ( 'NONE', #92, #335 ) ;
#996 = MANIFOLD_SOLID_BREP ( 'Boss-Extrude2[2]', #34 ) ;
#997 = PLANE ( 'NONE',  #624 ) ;
#998 = CARTESIAN_POINT ( 'NONE',  ( 3.750000000000000444, 1.399999999999999911, 1.499999999999999778 ) ) ;
#999 = VECTOR ( 'NONE', #1038, 1000.000000000000000 ) ;
#1000 = CARTESIAN_POINT ( 'NONE',  ( 3.149999999999998579, 2.799999999999999822, 3.299999999999999822 ) ) ;
#1001 = ORIENTED_EDGE ( 'NONE', *, *, #53, .T. ) ;
#1002 = DIRECTION ( 'NONE',  ( 0.000000000000000000, -1.000000000000000000, 0.000000000000000000 ) ) ;
#1003 = FILL_AREA_STYLE_COLOUR ( '', #116 ) ;
#1004 = SURFACE_SIDE_STYLE ('',( #854 ) ) ;
#1005 = DIRECTION ( 'NONE',  ( 0.000000000000000000, 1.000000000000000000, -0.000000000000000000 ) ) ;
#1006 = VERTEX_POINT ( 'NONE', #128 ) ;
#1007 = EDGE_LOOP ( 'NONE', ( #142, #302, #478, #500 ) ) ;
#1008 = DIRECTION ( 'NONE',  ( -1.000000000000000000, 0.000000000000000000, -1.204669080539449097E-16 ) ) ;
#1009 =( LENGTH_UNIT ( ) NAMED_UNIT ( * ) SI_UNIT ( .MILLI., .METRE. ) );
#1010 = ADVANCED_FACE ( 'NONE', ( #396 ), #467, .F. ) ;
#1011 = PLANE ( 'NONE',  #799 ) ;
#1012 = LINE ( 'NONE', #532, #851 ) ;
#1013 = ORIENTED_EDGE ( 'NONE', *, *, #26, .F. ) ;
#1014 = CARTESIAN_POINT ( 'NONE',  ( -3.649999999999999911, 0.000000000000000000, 3.299999999999999822 ) ) ;
#1015 = ADVANCED_FACE ( 'NONE', ( #716 ), #140, .F. ) ;
#1016 = DIRECTION ( 'NONE',  ( -1.000000000000000000, 0.000000000000000000, 3.614007241618347785E-16 ) ) ;
#1017 = SURFACE_SIDE_STYLE ('',( #381 ) ) ;
#1018 = AXIS2_PLACEMENT_3D ( 'NONE', #614, #864, #112 ) ;
#1019 = VERTEX_POINT ( 'NONE', #569 ) ;
#1020 = CARTESIAN_POINT ( 'NONE',  ( 3.149999999999998579, 2.799999999999999822, 3.299999999999999822 ) ) ;
#1021 = AXIS2_PLACEMENT_3D ( 'NONE', #320, #973, #1054 ) ;
#1022 = COLOUR_RGB ( '',0.000000000000000000, 0.000000000000000000, 0.000000000000000000 ) ;
#1023 = MANIFOLD_SOLID_BREP ( 'Fillet1', #1036 ) ;
#1024 = AXIS2_PLACEMENT_3D ( 'NONE', #481, #791, #709 ) ;
#1025 = CARTESIAN_POINT ( 'NONE',  ( 3.649999999999999023, 0.000000000000000000, 1.499999999999999778 ) ) ;
#1026 = PLANE ( 'NONE',  #1018 ) ;
#1027 = EDGE_CURVE ( 'NONE', #235, #529, #739, .T. ) ;
#1028 = ORIENTED_EDGE ( 'NONE', *, *, #86, .F. ) ;
#1029 = FACE_OUTER_BOUND ( 'NONE', #263, .T. ) ;
#1030 = FACE_OUTER_BOUND ( 'NONE', #901, .T. ) ;
#1031 = EDGE_CURVE ( 'NONE', #898, #537, #969, .T. ) ;
#1032 = ORIENTED_EDGE ( 'NONE', *, *, #325, .T. ) ;
#1033 = DIRECTION ( 'NONE',  ( 0.000000000000000000, 0.000000000000000000, -1.000000000000000000 ) ) ;
#1034 =( NAMED_UNIT ( * ) PLANE_ANGLE_UNIT ( ) SI_UNIT ( $, .RADIAN. ) );
#1035 = ORIENTED_EDGE ( 'NONE', *, *, #597, .T. ) ;
#1036 = CLOSED_SHELL ( 'NONE', ( #664, #143, #1015, #361, #628, #168, #874, #298, #781, #762, #473, #755, #965, #94, #464, #949, #200, #987 ) ) ;
#1037 = AXIS2_PLACEMENT_3D ( 'NONE', #346, #897, #77 ) ;
#1038 = DIRECTION ( 'NONE',  ( 1.000000000000000000, 0.000000000000000000, -3.614007241618347292E-16 ) ) ;
#1039 = AXIS2_PLACEMENT_3D ( 'NONE', #963, #798, #391 ) ;
#1040 = SURFACE_STYLE_FILL_AREA ( #385 ) ;
#1041 = SURFACE_STYLE_USAGE ( .BOTH. , #639 ) ;
#1042 = ORIENTED_EDGE ( 'NONE', *, *, #714, .T. ) ;
#1043 = DIRECTION ( 'NONE',  ( 1.204669080539449097E-16, 0.000000000000000000, -1.000000000000000000 ) ) ;
#1044 = VERTEX_POINT ( 'NONE', #562 ) ;
#1045 = FILL_AREA_STYLE_COLOUR ( '', #175 ) ;
#1046 = ORIENTED_EDGE ( 'NONE', *, *, #958, .T. ) ;
#1047 = SURFACE_SIDE_STYLE ('',( #72 ) ) ;
#1048 = EDGE_CURVE ( 'NONE', #47, #1055, #493, .T. ) ;
#1049 = FILL_AREA_STYLE_COLOUR ( '', #662 ) ;
#1050 = SURFACE_STYLE_FILL_AREA ( #711 ) ;
#1051 = ORIENTED_EDGE ( 'NONE', *, *, #884, .T. ) ;
#1052 = PRESENTATION_LAYER_ASSIGNMENT (  '', '', ( #454 ) ) ;
#1053 = VECTOR ( 'NONE', #197, 1000.000000000000000 ) ;
#1054 = DIRECTION ( 'NONE',  ( -2.168404344971008868E-16, 0.000000000000000000, -1.000000000000000000 ) ) ;
#1055 = VERTEX_POINT ( 'NONE', #414 ) ;
#1056 =( GEOMETRIC_REPRESENTATION_CONTEXT ( 3 ) GLOBAL_UNCERTAINTY_ASSIGNED_CONTEXT ( ( #190 ) ) GLOBAL_UNIT_ASSIGNED_CONTEXT ( ( #339, #990, #4 ) ) REPRESENTATION_CONTEXT ( 'NONE', 'WORKASPACE' ) );
#1057 = CARTESIAN_POINT ( 'NONE',  ( -3.149999999999999911, 2.799999999999999822, 2.799999999999999822 ) ) ;
#1058 =( GEOMETRIC_REPRESENTATION_CONTEXT ( 3 ) GLOBAL_UNCERTAINTY_ASSIGNED_CONTEXT ( ( #274 ) ) GLOBAL_UNIT_ASSIGNED_CONTEXT ( ( #289, #935, #777 ) ) REPRESENTATION_CONTEXT ( 'NONE', 'WORKASPACE' ) );
#1059 = MECHANICAL_DESIGN_GEOMETRIC_PRESENTATION_REPRESENTATION (  '', ( #117 ), #374 ) ;
#1060 = ORIENTED_EDGE ( 'NONE', *, *, #221, .T. ) ;
#1061 = EDGE_CURVE ( 'NONE', #75, #217, #498, .T. ) ;
#1062 = FACE_OUTER_BOUND ( 'NONE', #324, .T. ) ;
#1063 = ORIENTED_EDGE ( 'NONE', *, *, #714, .F. ) ;
#1064 = LINE ( 'NONE', #323, #981 ) ;
#1065 = ORIENTED_EDGE ( 'NONE', *, *, #278, .T. ) ;
#1066 = EDGE_CURVE ( 'NONE', #845, #619, #986, .T. ) ;
#1067 = ORIENTED_EDGE ( 'NONE', *, *, #285, .F. ) ;
#1068 = CARTESIAN_POINT ( 'NONE',  ( 3.750000000000000000, -0.1000000000000000056, -1.500000000000000222 ) ) ;
#1069 = CARTESIAN_POINT ( 'NONE',  ( -3.750000000000000000, 1.399999999999999911, -1.499999999999999334 ) ) ;
#1070 = ORIENTED_EDGE ( 'NONE', *, *, #285, .T. ) ;
#1071 = VECTOR ( 'NONE', #412, 1000.000000000000000 ) ;
ENDSEC;
END-ISO-10303-21;
