ISO-10303-21;
HEADER;
FILE_DESCRIPTION (( 'STEP AP214' ),
    '1' );
FILE_NAME ('SS2PH10-M3.STEP',
    '2026-02-09T17:14:34',
    ( '' ),
    ( '' ),
    'SwSTEP 2.0',
    'SolidWorks 2025',
    '' );
FILE_SCHEMA (( 'AUTOMOTIVE_DESIGN' ));
ENDSEC;

DATA;
#1 =( NAMED_UNIT ( * ) SI_UNIT ( $, .STERADIAN. ) SOLID_ANGLE_UNIT ( ) );
#2 = VECTOR ( 'NONE', #229, 1000.000000000000000 ) ;
#3 = CARTESIAN_POINT ( 'NONE',  ( 1.949999999999999734, -0.2250000000000000056, 0.3800000000000000044 ) ) ;
#4 = MECHANICAL_DESIGN_GEOMETRIC_PRESENTATION_REPRESENTATION (  '', ( #1124 ), #997 ) ;
#5 = EDGE_CURVE ( 'NONE', #803, #815, #361, .T. ) ;
#6 = DIRECTION ( 'NONE',  ( 0.06460310257542710433, 0.9938938857758157219, 0.08945044971982331339 ) ) ;
#7 = ORIENTED_EDGE ( 'NONE', *, *, #619, .F. ) ;
#8 = LINE ( 'NONE', #902, #208 ) ;
#9 = FILL_AREA_STYLE_COLOUR ( '', #288 ) ;
#10 = FACE_OUTER_BOUND ( 'NONE', #434, .T. ) ;
#11 = CARTESIAN_POINT ( 'NONE',  ( 0.000000000000000000, -1.000000000000000000, 0.000000000000000000 ) ) ;
#12 = ADVANCED_FACE ( 'NONE', ( #173 ), #995, .F. ) ;
#13 = ORIENTED_EDGE ( 'NONE', *, *, #835, .T. ) ;
#14 = SURFACE_SIDE_STYLE ('',( #793 ) ) ;
#15 = SURFACE_STYLE_FILL_AREA ( #895 ) ;
#16 = CARTESIAN_POINT ( 'NONE',  ( 1.685374999999999845, -0.2250000000000000056, 0.000000000000000000 ) ) ;
#17 = EDGE_LOOP ( 'NONE', ( #873, #305, #655, #13 ) ) ;
#18 = CARTESIAN_POINT ( 'NONE',  ( 1.685374999999999845, -0.2250000000000000056, -0.3800000000000000044 ) ) ;
#19 = EDGE_CURVE ( 'NONE', #893, #158, #899, .T. ) ;
#20 = CARTESIAN_POINT ( 'NONE',  ( -1.700000000000000178, 2.168404344971008868E-16, -1.014999999999999680 ) ) ;
#21 = PRESENTATION_LAYER_ASSIGNMENT (  '', '', ( #115 ) ) ;
#22 = VECTOR ( 'NONE', #525, 1000.000000000000000 ) ;
#23 = VECTOR ( 'NONE', #905, 1000.000000000000000 ) ;
#24 = CARTESIAN_POINT ( 'NONE',  ( -1.399999999999999911, 0.000000000000000000, 0.5999999999999999778 ) ) ;
#25 =( LENGTH_UNIT ( ) NAMED_UNIT ( * ) SI_UNIT ( .MILLI., .METRE. ) );
#26 = MANIFOLD_SOLID_BREP ( 'Boss-Extrude2[1]', #1076 ) ;
#27 = VERTEX_POINT ( 'NONE', #1190 ) ;
#28 = CARTESIAN_POINT ( 'NONE',  ( 0.5499999999999999334, 0.000000000000000000, -1.015000000000000124 ) ) ;
#29 = CARTESIAN_POINT ( 'NONE',  ( -1.399999999999999911, -0.2250000000000000056, 0.5999999999999999778 ) ) ;
#30 = EDGE_CURVE ( 'NONE', #1256, #317, #1206, .T. ) ;
#31 = MANIFOLD_SOLID_BREP ( 'Cut-Extrude1', #906 ) ;
#32 = CARTESIAN_POINT ( 'NONE',  ( -1.400000000000000133, -0.2250000000000000056, -1.014999999999999680 ) ) ;
#33 = FACE_OUTER_BOUND ( 'NONE', #486, .T. ) ;
#34 = EDGE_LOOP ( 'NONE', ( #746, #88, #1207, #1169 ) ) ;
#35 = DIRECTION ( 'NONE',  ( -0.06486312108268028898, 0.9978941705027710718, 0.000000000000000000 ) ) ;
#36 = EDGE_CURVE ( 'NONE', #673, #174, #485, .T. ) ;
#37 = CARTESIAN_POINT ( 'NONE',  ( -1.399999999999999689, -0.2250000000000000056, 0.9947500000000002451 ) ) ;
#38 = CARTESIAN_POINT ( 'NONE',  ( 0.5499999999999999334, -0.2250000000000000056, 1.015000000000000124 ) ) ;
#39 = EDGE_LOOP ( 'NONE', ( #900, #120, #141, #311 ) ) ;
#40 = FACE_OUTER_BOUND ( 'NONE', #649, .T. ) ;
#41 = CARTESIAN_POINT ( 'NONE',  ( -1.849999999999999867, -0.2250000000000000056, 0.5999999999999999778 ) ) ;
#42 = ORIENTED_EDGE ( 'NONE', *, *, #863, .F. ) ;
#43 = ADVANCED_FACE ( 'NONE', ( #887 ), #1081, .F. ) ;
#44 =( GEOMETRIC_REPRESENTATION_CONTEXT ( 3 ) GLOBAL_UNCERTAINTY_ASSIGNED_CONTEXT ( ( #191 ) ) GLOBAL_UNIT_ASSIGNED_CONTEXT ( ( #813, #456, #346 ) ) REPRESENTATION_CONTEXT ( 'NONE', 'WORKASPACE' ) );
#45 = ORIENTED_EDGE ( 'NONE', *, *, #36, .T. ) ;
#46 = PLANE ( 'NONE',  #1104 ) ;
#47 = DIRECTION ( 'NONE',  ( -1.000000000000000000, 0.000000000000000000, 0.000000000000000000 ) ) ;
#48 = LINE ( 'NONE', #439, #96 ) ;
#49 = EDGE_LOOP ( 'NONE', ( #42, #834, #862, #844, #1050, #196, #597, #683 ) ) ;
#50 = EDGE_CURVE ( 'NONE', #977, #998, #87, .T. ) ;
#51 = PLANE ( 'NONE',  #206 ) ;
#52 = CARTESIAN_POINT ( 'NONE',  ( -1.849999999999999867, 0.000000000000000000, 0.5999999999999999778 ) ) ;
#53 = FACE_OUTER_BOUND ( 'NONE', #1263, .T. ) ;
#54 = ORIENTED_EDGE ( 'NONE', *, *, #742, .F. ) ;
#55 = DIRECTION ( 'NONE',  ( 4.683633182170945815E-17, -0.9959744388432287820, 0.08963769949589028840 ) ) ;
#56 = SURFACE_STYLE_USAGE ( .BOTH. , #903 ) ;
#57 = LINE ( 'NONE', #448, #582 ) ;
#58 =( NAMED_UNIT ( * ) SI_UNIT ( $, .STERADIAN. ) SOLID_ANGLE_UNIT ( ) );
#59 = CARTESIAN_POINT ( 'NONE',  ( 0.5499999999999999334, 0.000000000000000000, 1.015000000000000124 ) ) ;
#60 = ORIENTED_EDGE ( 'NONE', *, *, #333, .F. ) ;
#61 = VECTOR ( 'NONE', #237, 1000.000000000000000 ) ;
#62 = VECTOR ( 'NONE', #462, 1000.000000000000000 ) ;
#63 = VERTEX_POINT ( 'NONE', #1284 ) ;
#64 = SURFACE_STYLE_USAGE ( .BOTH. , #951 ) ;
#65 = ADVANCED_FACE ( 'NONE', ( #290 ), #393, .F. ) ;
#66 = DIRECTION ( 'NONE',  ( 0.000000000000000000, -1.000000000000000000, 0.000000000000000000 ) ) ;
#67 = CARTESIAN_POINT ( 'NONE',  ( -1.399999999999999911, -0.2250000000000000056, 0.5999999999999999778 ) ) ;
#68 = VERTEX_POINT ( 'NONE', #131 ) ;
#69 = ORIENTED_EDGE ( 'NONE', *, *, #1022, .T. ) ;
#70 = CARTESIAN_POINT ( 'NONE',  ( -1.399999999999999911, -0.2250000000000000056, -0.5999999999999999778 ) ) ;
#71 = ORIENTED_EDGE ( 'NONE', *, *, #19, .F. ) ;
#72 = ORIENTED_EDGE ( 'NONE', *, *, #1073, .T. ) ;
#73 = DIRECTION ( 'NONE',  ( 1.000000000000000000, 0.000000000000000000, 0.000000000000000000 ) ) ;
#74 = ORIENTED_EDGE ( 'NONE', *, *, #19, .T. ) ;
#75 = ORIENTED_EDGE ( 'NONE', *, *, #764, .T. ) ;
#76 = SURFACE_STYLE_USAGE ( .BOTH. , #684 ) ;
#77 = VECTOR ( 'NONE', #516, 1000.000000000000000 ) ;
#78 = DIRECTION ( 'NONE',  ( 5.225070710773519919E-16, 0.000000000000000000, 1.000000000000000000 ) ) ;
#79 = VECTOR ( 'NONE', #103, 1000.000000000000000 ) ;
#80 = LINE ( 'NONE', #484, #725 ) ;
#81 = PRODUCT ( 'SS2PH10-M3', 'SS2PH10-M3', '', ( #656 ) ) ;
#82 = ORIENTED_EDGE ( 'NONE', *, *, #796, .T. ) ;
#83 = ORIENTED_EDGE ( 'NONE', *, *, #291, .F. ) ;
#84 = EDGE_CURVE ( 'NONE', #638, #63, #419, .T. ) ;
#85 =( NAMED_UNIT ( * ) PLANE_ANGLE_UNIT ( ) SI_UNIT ( $, .RADIAN. ) );
#86 = SURFACE_STYLE_FILL_AREA ( #1277 ) ;
#87 = LINE ( 'NONE', #479, #994 ) ;
#88 = ORIENTED_EDGE ( 'NONE', *, *, #1170, .F. ) ;
#89 = EDGE_CURVE ( 'NONE', #475, #638, #1045, .T. ) ;
#90 = LINE ( 'NONE', #1177, #996 ) ;
#91 = SURFACE_SIDE_STYLE ('',( #86 ) ) ;
#92 = UNCERTAINTY_MEASURE_WITH_UNIT (LENGTH_MEASURE( 1.000000000000000082E-05 ), #1216, 'distance_accuracy_value', 'NONE');
#93 = ORIENTED_EDGE ( 'NONE', *, *, #433, .F. ) ;
#94 = DIRECTION ( 'NONE',  ( 1.000000000000000000, -0.000000000000000000, 0.000000000000000000 ) ) ;
#95 = VECTOR ( 'NONE', #55, 1000.000000000000000 ) ;
#96 = VECTOR ( 'NONE', #235, 1000.000000000000000 ) ;
#97 = PLANE ( 'NONE',  #754 ) ;
#98 = ADVANCED_FACE ( 'NONE', ( #137 ), #124, .F. ) ;
#99 = DIRECTION ( 'NONE',  ( 1.000000000000000000, 0.000000000000000000, 0.000000000000000000 ) ) ;
#100 = CARTESIAN_POINT ( 'NONE',  ( -1.399999999999999911, 0.000000000000000000, 0.5999999999999999778 ) ) ;
#101 = ORIENTED_EDGE ( 'NONE', *, *, #681, .F. ) ;
#102 = SURFACE_STYLE_FILL_AREA ( #318 ) ;
#103 = DIRECTION ( 'NONE',  ( 0.000000000000000000, 0.000000000000000000, -1.000000000000000000 ) ) ;
#104 = CARTESIAN_POINT ( 'NONE',  ( 1.949999999999999734, 0.000000000000000000, 0.3800000000000000044 ) ) ;
#105 = UNCERTAINTY_MEASURE_WITH_UNIT (LENGTH_MEASURE( 1.000000000000000082E-05 ), #771, 'distance_accuracy_value', 'NONE');
#106 = CARTESIAN_POINT ( 'NONE',  ( -1.635000000000000231, -1.000000000000000000, -0.9249999999999999334 ) ) ;
#107 =( NAMED_UNIT ( * ) PLANE_ANGLE_UNIT ( ) SI_UNIT ( $, .RADIAN. ) );
#108 = ADVANCED_FACE ( 'NONE', ( #33 ), #933, .F. ) ;
#109 = ORIENTED_EDGE ( 'NONE', *, *, #1011, .F. ) ;
#110 = DIRECTION ( 'NONE',  ( 1.000000000000000000, 0.000000000000000000, 0.000000000000000000 ) ) ;
#111 = LINE ( 'NONE', #16, #488 ) ;
#112 = EDGE_LOOP ( 'NONE', ( #576, #732, #770, #437 ) ) ;
#113 =( NAMED_UNIT ( * ) SI_UNIT ( $, .STERADIAN. ) SOLID_ANGLE_UNIT ( ) );
#114 = SURFACE_SIDE_STYLE ('',( #1108 ) ) ;
#115 = STYLED_ITEM ( 'NONE', ( #1103 ), #26 ) ;
#116 = PRESENTATION_LAYER_ASSIGNMENT (  '', '', ( #1267 ) ) ;
#117 = CARTESIAN_POINT ( 'NONE',  ( 1.685374999999999845, -0.2250000000000000056, 0.3800000000000000044 ) ) ;
#118 = LINE ( 'NONE', #819, #621 ) ;
#119 =( GEOMETRIC_REPRESENTATION_CONTEXT ( 3 ) GLOBAL_UNCERTAINTY_ASSIGNED_CONTEXT ( ( #897 ) ) GLOBAL_UNIT_ASSIGNED_CONTEXT ( ( #894, #197, #113 ) ) REPRESENTATION_CONTEXT ( 'NONE', 'WORKASPACE' ) );
#120 = ORIENTED_EDGE ( 'NONE', *, *, #159, .T. ) ;
#121 = EDGE_CURVE ( 'NONE', #320, #825, #833, .T. ) ;
#122 = CARTESIAN_POINT ( 'NONE',  ( -1.399999999999999911, 0.000000000000000000, 0.5999999999999999778 ) ) ;
#123 = DIRECTION ( 'NONE',  ( 0.000000000000000000, -0.000000000000000000, -1.000000000000000000 ) ) ;
#124 = PLANE ( 'NONE',  #351 ) ;
#125 = VERTEX_POINT ( 'NONE', #824 ) ;
#126 = DIRECTION ( 'NONE',  ( 0.000000000000000000, 1.000000000000000000, 0.000000000000000000 ) ) ;
#127 = EDGE_CURVE ( 'NONE', #174, #262, #637, .T. ) ;
#128 = LINE ( 'NONE', #925, #1062 ) ;
#129 = EDGE_CURVE ( 'NONE', #243, #645, #48, .T. ) ;
#130 = CARTESIAN_POINT ( 'NONE',  ( -1.399999999999999911, 0.000000000000000000, 0.5999999999999999778 ) ) ;
#131 = CARTESIAN_POINT ( 'NONE',  ( 1.634999999999999787, -1.000000000000000000, -0.9249999999999999334 ) ) ;
#132 = VERTEX_POINT ( 'NONE', #917 ) ;
#133 = DIRECTION ( 'NONE',  ( 5.225070710773519919E-16, 0.000000000000000000, 1.000000000000000000 ) ) ;
#134 = ORIENTED_EDGE ( 'NONE', *, *, #1098, .F. ) ;
#135 = LINE ( 'NONE', #422, #872 ) ;
#136 = PRESENTATION_STYLE_ASSIGNMENT (( #636 ) ) ;
#137 = FACE_OUTER_BOUND ( 'NONE', #1155, .T. ) ;
#138 = MECHANICAL_DESIGN_GEOMETRIC_PRESENTATION_REPRESENTATION (  '', ( #1266 ), #660 ) ;
#139 = EDGE_CURVE ( 'NONE', #825, #765, #837, .T. ) ;
#140 = COLOUR_RGB ( '',0.9882352941176471006, 0.7372549019607843590, 0.5137254901960783826 ) ;
#141 = ORIENTED_EDGE ( 'NONE', *, *, #340, .T. ) ;
#142 = CARTESIAN_POINT ( 'NONE',  ( -1.399999999999999911, -0.2250000000000000056, -0.5999999999999999778 ) ) ;
#143 = VECTOR ( 'NONE', #78, 1000.000000000000000 ) ;
#144 = STYLED_ITEM ( 'NONE', ( #460 ), #502 ) ;
#145 = MECHANICAL_DESIGN_GEOMETRIC_PRESENTATION_REPRESENTATION (  '', ( #973 ), #707 ) ;
#146 = FILL_AREA_STYLE ('',( #154 ) ) ;
#147 = VECTOR ( 'NONE', #1151, 1000.000000000000000 ) ;
#148 = LINE ( 'NONE', #757, #147 ) ;
#149 = UNCERTAINTY_MEASURE_WITH_UNIT (LENGTH_MEASURE( 1.000000000000000082E-05 ), #1175, 'distance_accuracy_value', 'NONE');
#150 = CARTESIAN_POINT ( 'NONE',  ( -1.400000000000000133, -0.2250000000000000056, -1.014999999999999680 ) ) ;
#151 = DIRECTION ( 'NONE',  ( 0.000000000000000000, -0.9959744388432287820, 0.08963769949589028840 ) ) ;
#152 = ORIENTED_EDGE ( 'NONE', *, *, #1098, .T. ) ;
#153 = DIRECTION ( 'NONE',  ( -1.000000000000000000, 0.000000000000000000, -5.225070710773514002E-16 ) ) ;
#154 = FILL_AREA_STYLE_COLOUR ( '', #328 ) ;
#155 = CARTESIAN_POINT ( 'NONE',  ( -1.400000000000000133, -0.2250000000000000056, -1.014999999999999680 ) ) ;
#156 = DIRECTION ( 'NONE',  ( -1.000000000000000000, 0.000000000000000000, 5.225070710773518933E-16 ) ) ;
#157 = DIRECTION ( 'NONE',  ( -2.224004456380521903E-16, 0.000000000000000000, -1.000000000000000000 ) ) ;
#158 = VERTEX_POINT ( 'NONE', #713 ) ;
#159 = EDGE_CURVE ( 'NONE', #274, #923, #118, .T. ) ;
#160 =( NAMED_UNIT ( * ) SI_UNIT ( $, .STERADIAN. ) SOLID_ANGLE_UNIT ( ) );
#161 = FILL_AREA_STYLE ('',( #430 ) ) ;
#162 = LINE ( 'NONE', #648, #62 ) ;
#163 = VERTEX_POINT ( 'NONE', #1218 ) ;
#164 = AXIS2_PLACEMENT_3D ( 'NONE', #1100, #921, #123 ) ;
#165 = AXIS2_PLACEMENT_3D ( 'NONE', #192, #982, #691 ) ;
#166 = ORIENTED_EDGE ( 'NONE', *, *, #1226, .F. ) ;
#167 = PRESENTATION_LAYER_ASSIGNMENT (  '', '', ( #389 ) ) ;
#168 = COLOUR_RGB ( '',0.9882352941176471006, 0.7372549019607843590, 0.5137254901960783826 ) ;
#169 = DIRECTION ( 'NONE',  ( 0.000000000000000000, 0.000000000000000000, 1.000000000000000000 ) ) ;
#170 = VECTOR ( 'NONE', #1007, 1000.000000000000000 ) ;
#171 = LINE ( 'NONE', #70, #830 ) ;
#172 = CARTESIAN_POINT ( 'NONE',  ( -1.849999999999999867, 0.000000000000000000, 0.5999999999999999778 ) ) ;
#173 = FACE_OUTER_BOUND ( 'NONE', #1227, .T. ) ;
#174 = VERTEX_POINT ( 'NONE', #424 ) ;
#175 = DIRECTION ( 'NONE',  ( 0.000000000000000000, 0.000000000000000000, 1.000000000000000000 ) ) ;
#176 = CARTESIAN_POINT ( 'NONE',  ( 0.5499999999999999334, -0.2250000000000000056, -1.015000000000000124 ) ) ;
#177 = EDGE_CURVE ( 'NONE', #1033, #738, #517, .T. ) ;
#178 = VERTEX_POINT ( 'NONE', #922 ) ;
#179 = ORIENTED_EDGE ( 'NONE', *, *, #129, .T. ) ;
#180 = LINE ( 'NONE', #971, #143 ) ;
#181 = FACE_OUTER_BOUND ( 'NONE', #39, .T. ) ;
#182 = VERTEX_POINT ( 'NONE', #329 ) ;
#183 = ADVANCED_FACE ( 'NONE', ( #729 ), #629, .T. ) ;
#184 = ORIENTED_EDGE ( 'NONE', *, *, #408, .T. ) ;
#185 =( NAMED_UNIT ( * ) SI_UNIT ( $, .STERADIAN. ) SOLID_ANGLE_UNIT ( ) );
#186 = VECTOR ( 'NONE', #904, 1000.000000000000000 ) ;
#187 = PRESENTATION_LAYER_ASSIGNMENT (  '', '', ( #869 ) ) ;
#188 = COLOUR_RGB ( '',0.9882352941176471006, 0.7372549019607843590, 0.5137254901960783826 ) ;
#189 = PLANE ( 'NONE',  #1229 ) ;
#190 = CARTESIAN_POINT ( 'NONE',  ( 1.549999999999999822, -0.2250000000000000056, 0.3800000000000000044 ) ) ;
#191 = UNCERTAINTY_MEASURE_WITH_UNIT (LENGTH_MEASURE( 1.000000000000000082E-05 ), #813, 'distance_accuracy_value', 'NONE');
#192 = CARTESIAN_POINT ( 'NONE',  ( 1.692847718389802969, -0.1100351016953370897, 0.000000000000000000 ) ) ;
#193 = ORIENTED_EDGE ( 'NONE', *, *, #826, .F. ) ;
#194 = CARTESIAN_POINT ( 'NONE',  ( -1.849999999999999867, -0.2250000000000000056, 0.5999999999999999778 ) ) ;
#195 = LINE ( 'NONE', #190, #552 ) ;
#196 = ORIENTED_EDGE ( 'NONE', *, *, #720, .F. ) ;
#197 =( NAMED_UNIT ( * ) PLANE_ANGLE_UNIT ( ) SI_UNIT ( $, .RADIAN. ) );
#198 = DIRECTION ( 'NONE',  ( 1.000000000000000000, 0.000000000000000000, -0.000000000000000000 ) ) ;
#199 = CARTESIAN_POINT ( 'NONE',  ( -1.400000000000000133, -0.2250000000000000056, 1.015000000000000124 ) ) ;
#200 = SURFACE_SIDE_STYLE ('',( #309 ) ) ;
#201 = ORIENTED_EDGE ( 'NONE', *, *, #30, .F. ) ;
#202 = CARTESIAN_POINT ( 'NONE',  ( -1.849999999999999867, -0.2250000000000000056, -0.5999999999999999778 ) ) ;
#203 = VECTOR ( 'NONE', #753, 1000.000000000000000 ) ;
#204 = FILL_AREA_STYLE_COLOUR ( '', #914 ) ;
#205 = CARTESIAN_POINT ( 'NONE',  ( 1.549999999999999822, -0.2250000000000000056, 0.3800000000000000044 ) ) ;
#206 = AXIS2_PLACEMENT_3D ( 'NONE', #587, #865, #169 ) ;
#207 = LINE ( 'NONE', #606, #828 ) ;
#208 = VECTOR ( 'NONE', #110, 1000.000000000000000 ) ;
#209 = ORIENTED_EDGE ( 'NONE', *, *, #1281, .T. ) ;
#210 = DIRECTION ( 'NONE',  ( 0.000000000000000000, 0.9959744388432287820, 0.08963769949589049657 ) ) ;
#211 = SURFACE_STYLE_USAGE ( .BOTH. , #312 ) ;
#212 =( NAMED_UNIT ( * ) PLANE_ANGLE_UNIT ( ) SI_UNIT ( $, .RADIAN. ) );
#213 = UNCERTAINTY_MEASURE_WITH_UNIT (LENGTH_MEASURE( 1.000000000000000082E-05 ), #601, 'distance_accuracy_value', 'NONE');
#214 = CARTESIAN_POINT ( 'NONE',  ( -1.400000000000000133, 0.000000000000000000, -1.014999999999999680 ) ) ;
#215 =( NAMED_UNIT ( * ) PLANE_ANGLE_UNIT ( ) SI_UNIT ( $, .RADIAN. ) );
#216 = EDGE_CURVE ( 'NONE', #949, #977, #762, .T. ) ;
#217 = EDGE_LOOP ( 'NONE', ( #223, #1220, #966, #586, #184, #74, #878, #957 ) ) ;
#218 = CARTESIAN_POINT ( 'NONE',  ( 1.549999999999999822, -0.2250000000000000056, 0.3800000000000000044 ) ) ;
#219 = CARTESIAN_POINT ( 'NONE',  ( 0.5499999999999999334, -0.2250000000000000056, 1.015000000000000124 ) ) ;
#220 = PLANE ( 'NONE',  #598 ) ;
#221 = CARTESIAN_POINT ( 'NONE',  ( 0.000000000000000000, 0.000000000000000000, 0.000000000000000000 ) ) ;
#222 = ADVANCED_FACE ( 'NONE', ( #653 ), #774, .F. ) ;
#223 = ORIENTED_EDGE ( 'NONE', *, *, #967, .T. ) ;
#224 = SURFACE_SIDE_STYLE ('',( #1215 ) ) ;
#225 = DIRECTION ( 'NONE',  ( -0.000000000000000000, 1.000000000000000000, -0.000000000000000000 ) ) ;
#226 = VECTOR ( 'NONE', #1110, 1000.000000000000000 ) ;
#227 = DIRECTION ( 'NONE',  ( 5.225070710773518933E-16, 0.000000000000000000, 1.000000000000000000 ) ) ;
#228 = STYLED_ITEM ( 'NONE', ( #438 ), #469 ) ;
#229 = DIRECTION ( 'NONE',  ( 0.000000000000000000, 0.000000000000000000, -1.000000000000000000 ) ) ;
#230 = ORIENTED_EDGE ( 'NONE', *, *, #694, .T. ) ;
#231 = FACE_OUTER_BOUND ( 'NONE', #1173, .T. ) ;
#232 = EDGE_CURVE ( 'NONE', #68, #376, #162, .T. ) ;
#233 = DIRECTION ( 'NONE',  ( -0.06460310257542818679, 0.9938938857758156109, 0.08945044971982331339 ) ) ;
#234 = SURFACE_STYLE_FILL_AREA ( #161 ) ;
#235 = DIRECTION ( 'NONE',  ( 1.000000000000000000, 0.000000000000000000, 0.000000000000000000 ) ) ;
#236 = EDGE_LOOP ( 'NONE', ( #71, #458, #1273, #625 ) ) ;
#237 = DIRECTION ( 'NONE',  ( -0.000000000000000000, -0.000000000000000000, 1.000000000000000000 ) ) ;
#238 = CARTESIAN_POINT ( 'NONE',  ( 0.5499999999999999334, -0.09061601031643654047, -1.006844559071520484 ) ) ;
#239 = EDGE_CURVE ( 'NONE', #182, #853, #550, .T. ) ;
#240 = UNCERTAINTY_MEASURE_WITH_UNIT (LENGTH_MEASURE( 1.000000000000000082E-05 ), #25, 'distance_accuracy_value', 'NONE');
#241 = SURFACE_STYLE_FILL_AREA ( #1253 ) ;
#242 = DIRECTION ( 'NONE',  ( -0.000000000000000000, 0.08963769949589028840, 0.9959744388432287820 ) ) ;
#243 = VERTEX_POINT ( 'NONE', #856 ) ;
#244 = LINE ( 'NONE', #1038, #95 ) ;
#245 = PRESENTATION_STYLE_ASSIGNMENT (( #64 ) ) ;
#246 = DIRECTION ( 'NONE',  ( 0.000000000000000000, 0.000000000000000000, -1.000000000000000000 ) ) ;
#247 = EDGE_CURVE ( 'NONE', #1056, #663, #273, .T. ) ;
#248 = CARTESIAN_POINT ( 'NONE',  ( 0.5499999999999999334, 0.000000000000000000, -1.015000000000000124 ) ) ;
#249 = SURFACE_STYLE_FILL_AREA ( #531 ) ;
#250 = STYLED_ITEM ( 'NONE', ( #523 ), #65 ) ;
#251 = ORIENTED_EDGE ( 'NONE', *, *, #1148, .F. ) ;
#252 = FACE_OUTER_BOUND ( 'NONE', #49, .T. ) ;
#253 = CARTESIAN_POINT ( 'NONE',  ( 1.699999999999999734, 0.000000000000000000, 0.3800000000000000044 ) ) ;
#254 = ORIENTED_EDGE ( 'NONE', *, *, #216, .T. ) ;
#255 = EDGE_CURVE ( 'NONE', #1056, #893, #1154, .T. ) ;
#256 = CARTESIAN_POINT ( 'NONE',  ( 1.692847718389802969, -0.1100351016953370897, -0.3800000000000000044 ) ) ;
#257 = LINE ( 'NONE', #323, #851 ) ;
#258 = DIRECTION ( 'NONE',  ( 0.000000000000000000, 0.000000000000000000, 1.000000000000000000 ) ) ;
#259 = CARTESIAN_POINT ( 'NONE',  ( -1.635000000000000009, -1.000000000000000000, 0.9250000000000001554 ) ) ;
#260 = ORIENTED_EDGE ( 'NONE', *, *, #1065, .T. ) ;
#261 = ADVANCED_FACE ( 'NONE', ( #181 ), #356, .F. ) ;
#262 = VERTEX_POINT ( 'NONE', #941 ) ;
#263 = FACE_OUTER_BOUND ( 'NONE', #1025, .T. ) ;
#264 = ORIENTED_EDGE ( 'NONE', *, *, #216, .F. ) ;
#265 = VECTOR ( 'NONE', #709, 1000.000000000000000 ) ;
#266 = VECTOR ( 'NONE', #719, 1000.000000000000000 ) ;
#267 = ORIENTED_EDGE ( 'NONE', *, *, #394, .T. ) ;
#268 = VECTOR ( 'NONE', #986, 1000.000000000000000 ) ;
#269 = MECHANICAL_DESIGN_GEOMETRIC_PRESENTATION_REPRESENTATION (  '', ( #1041 ), #682 ) ;
#270 =( NAMED_UNIT ( * ) PLANE_ANGLE_UNIT ( ) SI_UNIT ( $, .RADIAN. ) );
#271 = EDGE_CURVE ( 'NONE', #1132, #1127, #445, .T. ) ;
#272 = CARTESIAN_POINT ( 'NONE',  ( 1.549999999999999822, -0.2250000000000000056, 0.3800000000000000044 ) ) ;
#273 = LINE ( 'NONE', #67, #886 ) ;
#274 = VERTEX_POINT ( 'NONE', #560 ) ;
#275 = ORIENTED_EDGE ( 'NONE', *, *, #1198, .T. ) ;
#276 = SURFACE_STYLE_FILL_AREA ( #669 ) ;
#277 = EDGE_CURVE ( 'NONE', #673, #645, #1262, .T. ) ;
#278 = DIRECTION ( 'NONE',  ( -1.000000000000000000, 0.000000000000000000, 0.000000000000000000 ) ) ;
#279 = ORIENTED_EDGE ( 'NONE', *, *, #1073, .F. ) ;
#280 = ORIENTED_EDGE ( 'NONE', *, *, #277, .T. ) ;
#281 = SURFACE_STYLE_FILL_AREA ( #882 ) ;
#282 = CARTESIAN_POINT ( 'NONE',  ( -1.399999999999999911, 0.000000000000000000, -0.5999999999999999778 ) ) ;
#283 = CARTESIAN_POINT ( 'NONE',  ( -1.635000000000000231, -1.000000000000000000, -0.9249999999999999334 ) ) ;
#284 =( GEOMETRIC_REPRESENTATION_CONTEXT ( 3 ) GLOBAL_UNCERTAINTY_ASSIGNED_CONTEXT ( ( #444 ) ) GLOBAL_UNIT_ASSIGNED_CONTEXT ( ( #293, #1112, #299 ) ) REPRESENTATION_CONTEXT ( 'NONE', 'WORKASPACE' ) );
#285 = ORIENTED_EDGE ( 'NONE', *, *, #1160, .F. ) ;
#286 = VECTOR ( 'NONE', #1131, 1000.000000000000000 ) ;
#287 = MECHANICAL_DESIGN_GEOMETRIC_PRESENTATION_REPRESENTATION (  '', ( #250 ), #1250 ) ;
#288 = COLOUR_RGB ( '',0.9882352941176471006, 0.7372549019607843590, 0.5137254901960783826 ) ;
#289 = CARTESIAN_POINT ( 'NONE',  ( 0.5499999999999999334, 0.000000000000000000, 1.015000000000000124 ) ) ;
#290 = FACE_OUTER_BOUND ( 'NONE', #468, .T. ) ;
#291 = EDGE_CURVE ( 'NONE', #503, #569, #843, .T. ) ;
#292 = ORIENTED_EDGE ( 'NONE', *, *, #567, .F. ) ;
#293 =( LENGTH_UNIT ( ) NAMED_UNIT ( * ) SI_UNIT ( .MILLI., .METRE. ) );
#294 =( NAMED_UNIT ( * ) SI_UNIT ( $, .STERADIAN. ) SOLID_ANGLE_UNIT ( ) );
#295 = LINE ( 'NONE', #499, #1143 ) ;
#296 = LINE ( 'NONE', #1016, #77 ) ;
#297 = DIRECTION ( 'NONE',  ( 1.000000000000000000, 0.000000000000000000, 0.000000000000000000 ) ) ;
#298 = ORIENTED_EDGE ( 'NONE', *, *, #578, .F. ) ;
#299 =( NAMED_UNIT ( * ) SI_UNIT ( $, .STERADIAN. ) SOLID_ANGLE_UNIT ( ) );
#300 = EDGE_CURVE ( 'NONE', #27, #692, #1067, .T. ) ;
#301 = DIRECTION ( 'NONE',  ( 0.000000000000000000, 0.000000000000000000, 1.000000000000000000 ) ) ;
#302 = CARTESIAN_POINT ( 'NONE',  ( 1.699999999999999734, 0.000000000000000000, -0.3800000000000000044 ) ) ;
#303 = LINE ( 'NONE', #106, #265 ) ;
#304 = FILL_AREA_STYLE ('',( #585 ) ) ;
#305 = ORIENTED_EDGE ( 'NONE', *, *, #611, .F. ) ;
#306 = MECHANICAL_DESIGN_GEOMETRIC_PRESENTATION_REPRESENTATION (  '', ( #811 ), #1039 ) ;
#307 =( GEOMETRIC_REPRESENTATION_CONTEXT ( 3 ) GLOBAL_UNCERTAINTY_ASSIGNED_CONTEXT ( ( #605 ) ) GLOBAL_UNIT_ASSIGNED_CONTEXT ( ( #1040, #212, #1008 ) ) REPRESENTATION_CONTEXT ( 'NONE', 'WORKASPACE' ) );
#308 = LINE ( 'NONE', #814, #1249 ) ;
#309 = SURFACE_STYLE_FILL_AREA ( #380 ) ;
#310 = AXIS2_PLACEMENT_3D ( 'NONE', #734, #931, #822 ) ;
#311 = ORIENTED_EDGE ( 'NONE', *, *, #764, .F. ) ;
#312 = SURFACE_SIDE_STYLE ('',( #15 ) ) ;
#313 = PRESENTATION_STYLE_ASSIGNMENT (( #1001 ) ) ;
#314 = ADVANCED_FACE ( 'NONE', ( #1271 ), #375, .T. ) ;
#315 = CARTESIAN_POINT ( 'NONE',  ( -1.400000000000000133, 0.000000000000000000, -1.014999999999999680 ) ) ;
#316 = DIRECTION ( 'NONE',  ( 0.000000000000000000, 0.000000000000000000, -1.000000000000000000 ) ) ;
#317 = VERTEX_POINT ( 'NONE', #104 ) ;
#318 = FILL_AREA_STYLE ('',( #504 ) ) ;
#319 = DIRECTION ( 'NONE',  ( 0.000000000000000000, 1.000000000000000000, 0.000000000000000000 ) ) ;
#320 = VERTEX_POINT ( 'NONE', #302 ) ;
#321 = EDGE_CURVE ( 'NONE', #132, #1256, #295, .T. ) ;
#322 = CARTESIAN_POINT ( 'NONE',  ( 1.549999999999999822, -0.2250000000000000056, 0.3800000000000000044 ) ) ;
#323 = CARTESIAN_POINT ( 'NONE',  ( 1.549999999999999822, -0.2250000000000000056, -0.3800000000000000044 ) ) ;
#324 = VECTOR ( 'NONE', #823, 999.9999999999998863 ) ;
#325 = AXIS2_PLACEMENT_3D ( 'NONE', #794, #590, #780 ) ;
#326 = UNCERTAINTY_MEASURE_WITH_UNIT (LENGTH_MEASURE( 1.000000000000000082E-05 ), #710, 'distance_accuracy_value', 'NONE');
#327 = CARTESIAN_POINT ( 'NONE',  ( 1.549999999999999822, 0.000000000000000000, -0.3800000000000000044 ) ) ;
#328 = COLOUR_RGB ( '',0.9882352941176471006, 0.7372549019607843590, 0.5137254901960783826 ) ;
#329 = CARTESIAN_POINT ( 'NONE',  ( 0.5499999999999999334, 0.000000000000000000, 1.015000000000000124 ) ) ;
#330 = EDGE_LOOP ( 'NONE', ( #1047, #399, #54, #838, #463, #83, #864, #1214 ) ) ;
#331 = VECTOR ( 'NONE', #640, 1000.000000000000000 ) ;
#332 = DIRECTION ( 'NONE',  ( -0.000000000000000000, 0.000000000000000000, -1.000000000000000000 ) ) ;
#333 = EDGE_CURVE ( 'NONE', #808, #132, #686, .T. ) ;
#334 = CARTESIAN_POINT ( 'NONE',  ( -1.849999999999999867, 0.000000000000000000, -0.5999999999999999778 ) ) ;
#335 = DIRECTION ( 'NONE',  ( 0.000000000000000000, 1.000000000000000000, 0.000000000000000000 ) ) ;
#336 =( NAMED_UNIT ( * ) SI_UNIT ( $, .STERADIAN. ) SOLID_ANGLE_UNIT ( ) );
#337 = ORIENTED_EDGE ( 'NONE', *, *, #177, .T. ) ;
#338 = CARTESIAN_POINT ( 'NONE',  ( -1.849999999999999867, -0.2250000000000000056, 0.5999999999999999778 ) ) ;
#339 = DIRECTION ( 'NONE',  ( 1.000000000000000000, 0.000000000000000000, -0.000000000000000000 ) ) ;
#340 = EDGE_CURVE ( 'NONE', #923, #711, #195, .T. ) ;
#341 = DIRECTION ( 'NONE',  ( 0.000000000000000000, 0.000000000000000000, -1.000000000000000000 ) ) ;
#342 = PLANE ( 'NONE',  #848 ) ;
#343 = SURFACE_SIDE_STYLE ('',( #249 ) ) ;
#344 = ORIENTED_EDGE ( 'NONE', *, *, #604, .T. ) ;
#345 = LINE ( 'NONE', #322, #788 ) ;
#346 =( NAMED_UNIT ( * ) SI_UNIT ( $, .STERADIAN. ) SOLID_ANGLE_UNIT ( ) );
#347 = DIRECTION ( 'NONE',  ( 0.000000000000000000, 1.000000000000000000, 0.000000000000000000 ) ) ;
#348 = LINE ( 'NONE', #522, #203 ) ;
#349 = CARTESIAN_POINT ( 'NONE',  ( -1.849999999999999867, -0.2250000000000000056, -0.5999999999999999778 ) ) ;
#350 = VECTOR ( 'NONE', #258, 1000.000000000000000 ) ;
#351 = AXIS2_PLACEMENT_3D ( 'NONE', #1017, #242, #151 ) ;
#352 = EDGE_LOOP ( 'NONE', ( #721, #251, #935, #700 ) ) ;
#353 = PRESENTATION_LAYER_ASSIGNMENT (  '', '', ( #1021 ) ) ;
#354 = AXIS2_PLACEMENT_3D ( 'NONE', #1275, #979, #1176 ) ;
#355 = CARTESIAN_POINT ( 'NONE',  ( 1.949999999999999734, -0.2250000000000000056, 0.3800000000000000044 ) ) ;
#356 = PLANE ( 'NONE',  #410 ) ;
#357 = EDGE_CURVE ( 'NONE', #968, #1084, #379, .T. ) ;
#358 = ORIENTED_EDGE ( 'NONE', *, *, #578, .T. ) ;
#359 = ORIENTED_EDGE ( 'NONE', *, *, #1281, .F. ) ;
#360 = CARTESIAN_POINT ( 'NONE',  ( 1.949999999999999734, 0.000000000000000000, -0.3800000000000000044 ) ) ;
#361 = LINE ( 'NONE', #661, #407 ) ;
#362 = ORIENTED_EDGE ( 'NONE', *, *, #321, .F. ) ;
#363 = APPLICATION_CONTEXT ( 'automotive_design' ) ;
#364 = CARTESIAN_POINT ( 'NONE',  ( 1.692847718389802969, -0.1100351016953370897, 0.3800000000000000044 ) ) ;
#365 = CARTESIAN_POINT ( 'NONE',  ( -1.400000000000000133, -0.09061601031643684578, 1.006844559071520928 ) ) ;
#366 = ORIENTED_EDGE ( 'NONE', *, *, #357, .T. ) ;
#367 = VECTOR ( 'NONE', #631, 1000.000000000000000 ) ;
#368 = VECTOR ( 'NONE', #1224, 1000.000000000000000 ) ;
#369 = EDGE_LOOP ( 'NONE', ( #101, #260, #859, #612 ) ) ;
#370 = AXIS2_PLACEMENT_3D ( 'NONE', #581, #1265, #978 ) ;
#371 = PLANE ( 'NONE',  #969 ) ;
#372 = ADVANCED_FACE ( 'NONE', ( #884 ), #1189, .F. ) ;
#373 = VECTOR ( 'NONE', #225, 1000.000000000000000 ) ;
#374 = SURFACE_STYLE_USAGE ( .BOTH. , #461 ) ;
#375 = PLANE ( 'NONE',  #325 ) ;
#376 = VERTEX_POINT ( 'NONE', #283 ) ;
#377 = ORIENTED_EDGE ( 'NONE', *, *, #1028, .T. ) ;
#378 = PRODUCT_DEFINITION ( 'UNKNOWN', '', #602, #708 ) ;
#379 = LINE ( 'NONE', #1178, #489 ) ;
#380 = FILL_AREA_STYLE ('',( #607 ) ) ;
#381 = PRODUCT_DEFINITION_SHAPE ( 'NONE', 'NONE',  #378 ) ;
#382 = ORIENTED_EDGE ( 'NONE', *, *, #760, .T. ) ;
#383 = CARTESIAN_POINT ( 'NONE',  ( 1.635000000000000453, -1.000000000000000000, 0.9250000000000001554 ) ) ;
#384 = ADVANCED_FACE ( 'NONE', ( #689 ), #594, .T. ) ;
#385 = APPLICATION_CONTEXT ( 'automotive_design' ) ;
#386 = ORIENTED_EDGE ( 'NONE', *, *, #960, .T. ) ;
#387 = PRESENTATION_STYLE_ASSIGNMENT (( #963 ) ) ;
#388 = VECTOR ( 'NONE', #767, 1000.000000000000000 ) ;
#389 = STYLED_ITEM ( 'NONE', ( #855 ), #913 ) ;
#390 = AXIS2_PLACEMENT_3D ( 'NONE', #1042, #634, #1130 ) ;
#391 = DIRECTION ( 'NONE',  ( 0.000000000000000000, 0.000000000000000000, -1.000000000000000000 ) ) ;
#392 = UNCERTAINTY_MEASURE_WITH_UNIT (LENGTH_MEASURE( 1.000000000000000082E-05 ), #676, 'distance_accuracy_value', 'NONE');
#393 = PLANE ( 'NONE',  #751 ) ;
#394 = EDGE_CURVE ( 'NONE', #942, #420, #80, .T. ) ;
#395 = ORIENTED_EDGE ( 'NONE', *, *, #321, .T. ) ;
#396 = LINE ( 'NONE', #915, #373 ) ;
#397 = FILL_AREA_STYLE ('',( #9 ) ) ;
#398 = CARTESIAN_POINT ( 'NONE',  ( -1.635000000000000231, -1.000000000000000000, -0.9249999999999999334 ) ) ;
#399 = ORIENTED_EDGE ( 'NONE', *, *, #1028, .F. ) ;
#400 = DIRECTION ( 'NONE',  ( 0.000000000000000000, 0.000000000000000000, 1.000000000000000000 ) ) ;
#401 = UNCERTAINTY_MEASURE_WITH_UNIT (LENGTH_MEASURE( 1.000000000000000082E-05 ), #924, 'distance_accuracy_value', 'NONE');
#402 = LINE ( 'NONE', #806, #993 ) ;
#403 = ORIENTED_EDGE ( 'NONE', *, *, #50, .T. ) ;
#404 = FACE_OUTER_BOUND ( 'NONE', #330, .T. ) ;
#405 = STYLED_ITEM ( 'NONE', ( #609 ), #521 ) ;
#406 = AXIS2_PLACEMENT_3D ( 'NONE', #426, #153, #540 ) ;
#407 = VECTOR ( 'NONE', #1063, 1000.000000000000000 ) ;
#408 = EDGE_CURVE ( 'NONE', #1157, #893, #1184, .T. ) ;
#409 = PRESENTATION_LAYER_ASSIGNMENT (  '', '', ( #973 ) ) ;
#410 = AXIS2_PLACEMENT_3D ( 'NONE', #1156, #1166, #1061 ) ;
#411 = CARTESIAN_POINT ( 'NONE',  ( -1.399999999999999911, -0.2250000000000000056, -0.5999999999999999778 ) ) ;
#412 = DIRECTION ( 'NONE',  ( -0.06486312108268006693, -0.9978941705027710718, 0.000000000000000000 ) ) ;
#413 = STYLED_ITEM ( 'NONE', ( #622 ), #1091 ) ;
#414 = CARTESIAN_POINT ( 'NONE',  ( -1.400000000000000133, -0.2250000000000000056, -1.014999999999999680 ) ) ;
#415 = VERTEX_POINT ( 'NONE', #289 ) ;
#416 = FACE_OUTER_BOUND ( 'NONE', #556, .T. ) ;
#417 = LINE ( 'NONE', #1199, #79 ) ;
#418 = CARTESIAN_POINT ( 'NONE',  ( 1.634999999999999787, -1.000000000000000000, -0.9249999999999999334 ) ) ;
#419 = LINE ( 'NONE', #41, #1205 ) ;
#420 = VERTEX_POINT ( 'NONE', #891 ) ;
#421 = LINE ( 'NONE', #936, #61 ) ;
#422 = CARTESIAN_POINT ( 'NONE',  ( 1.949999999999999734, 0.000000000000000000, 0.3800000000000000044 ) ) ;
#423 = PLANE ( 'NONE',  #768 ) ;
#424 = CARTESIAN_POINT ( 'NONE',  ( 0.5499999999999999334, -0.2250000000000000056, 0.9947500000000000231 ) ) ;
#425 = ORIENTED_EDGE ( 'NONE', *, *, #694, .F. ) ;
#426 = CARTESIAN_POINT ( 'NONE',  ( -1.399999999999999911, -0.2250000000000000056, 0.5999999999999999778 ) ) ;
#427 = FACE_OUTER_BOUND ( 'NONE', #352, .T. ) ;
#428 =( GEOMETRIC_REPRESENTATION_CONTEXT ( 3 ) GLOBAL_UNCERTAINTY_ASSIGNED_CONTEXT ( ( #1088 ) ) GLOBAL_UNIT_ASSIGNED_CONTEXT ( ( #652, #842, #58 ) ) REPRESENTATION_CONTEXT ( 'NONE', 'WORKASPACE' ) );
#429 = PRESENTATION_LAYER_ASSIGNMENT (  '', '', ( #250 ) ) ;
#430 = FILL_AREA_STYLE_COLOUR ( '', #452 ) ;
#431 = VECTOR ( 'NONE', #1086, 1000.000000000000000 ) ;
#432 = CARTESIAN_POINT ( 'NONE',  ( -1.685375000000000290, -0.2250000000000000056, 0.000000000000000000 ) ) ;
#433 = EDGE_CURVE ( 'NONE', #178, #579, #1087, .T. ) ;
#434 = EDGE_LOOP ( 'NONE', ( #337, #359, #792, #386 ) ) ;
#435 = AXIS2_PLACEMENT_3D ( 'NONE', #749, #341, #726 ) ;
#436 = FACE_OUTER_BOUND ( 'NONE', #369, .T. ) ;
#437 = ORIENTED_EDGE ( 'NONE', *, *, #1148, .T. ) ;
#438 = PRESENTATION_STYLE_ASSIGNMENT (( #56 ) ) ;
#439 = CARTESIAN_POINT ( 'NONE',  ( -1.700000000000000178, 0.000000000000000000, 1.015000000000000124 ) ) ;
#440 = ORIENTED_EDGE ( 'NONE', *, *, #50, .F. ) ;
#441 = LINE ( 'NONE', #256, #912 ) ;
#442 = ADVANCED_FACE ( 'NONE', ( #494 ), #97, .T. ) ;
#443 = CARTESIAN_POINT ( 'NONE',  ( -1.700000000000000400, 0.000000000000000000, 0.5999999999999999778 ) ) ;
#444 = UNCERTAINTY_MEASURE_WITH_UNIT (LENGTH_MEASURE( 1.000000000000000082E-05 ), #293, 'distance_accuracy_value', 'NONE');
#445 = LINE ( 'NONE', #172, #1077 ) ;
#446 = EDGE_LOOP ( 'NONE', ( #179, #1149, #1037, #454 ) ) ;
#447 = CARTESIAN_POINT ( 'NONE',  ( -1.685375000000000290, -0.2250000000000000056, 0.5999999999999999778 ) ) ;
#448 = CARTESIAN_POINT ( 'NONE',  ( -1.400000000000000133, 0.000000000000000000, 1.015000000000000124 ) ) ;
#449 = EDGE_CURVE ( 'NONE', #320, #554, #441, .T. ) ;
#450 = CARTESIAN_POINT ( 'NONE',  ( -1.400000000000000133, -0.2250000000000000056, 1.015000000000000124 ) ) ;
#451 =( LENGTH_UNIT ( ) NAMED_UNIT ( * ) SI_UNIT ( .MILLI., .METRE. ) );
#452 = COLOUR_RGB ( '',0.9882352941176471006, 0.7372549019607843590, 0.5137254901960783826 ) ;
#453 = PRESENTATION_LAYER_ASSIGNMENT (  '', '', ( #530 ) ) ;
#454 = ORIENTED_EDGE ( 'NONE', *, *, #863, .T. ) ;
#455 = ORIENTED_EDGE ( 'NONE', *, *, #1125, .F. ) ;
#456 =( NAMED_UNIT ( * ) PLANE_ANGLE_UNIT ( ) SI_UNIT ( $, .RADIAN. ) );
#457 = FACE_OUTER_BOUND ( 'NONE', #34, .T. ) ;
#458 = ORIENTED_EDGE ( 'NONE', *, *, #255, .F. ) ;
#459 = ORIENTED_EDGE ( 'NONE', *, *, #139, .F. ) ;
#460 = PRESENTATION_STYLE_ASSIGNMENT (( #958 ) ) ;
#461 = SURFACE_SIDE_STYLE ('',( #980 ) ) ;
#462 = DIRECTION ( 'NONE',  ( -1.000000000000000000, -0.000000000000000000, -0.000000000000000000 ) ) ;
#463 = ORIENTED_EDGE ( 'NONE', *, *, #1022, .F. ) ;
#464 = ORIENTED_EDGE ( 'NONE', *, *, #36, .F. ) ;
#465 = FACE_OUTER_BOUND ( 'NONE', #236, .T. ) ;
#466 = DIRECTION ( 'NONE',  ( -1.000000000000000000, 0.000000000000000000, 2.224004456380521903E-16 ) ) ;
#467 = MANIFOLD_SOLID_BREP ( 'Boss-Extrude2[2]', #970 ) ;
#468 = EDGE_LOOP ( 'NONE', ( #275, #366, #358, #630 ) ) ;
#469 = ADVANCED_FACE ( 'NONE', ( #505 ), #46, .T. ) ;
#470 = VERTEX_POINT ( 'NONE', #740 ) ;
#471 = STYLED_ITEM ( 'NONE', ( #313 ), #442 ) ;
#472 = FACE_OUTER_BOUND ( 'NONE', #1240, .T. ) ;
#473 = DIRECTION ( 'NONE',  ( -0.000000000000000000, 1.000000000000000000, -0.000000000000000000 ) ) ;
#474 = ORIENTED_EDGE ( 'NONE', *, *, #611, .T. ) ;
#475 = VERTEX_POINT ( 'NONE', #536 ) ;
#476 =( NAMED_UNIT ( * ) PLANE_ANGLE_UNIT ( ) SI_UNIT ( $, .RADIAN. ) );
#477 = CARTESIAN_POINT ( 'NONE',  ( 1.549999999999999822, -0.2250000000000000056, -0.3800000000000000044 ) ) ;
#478 = PRESENTATION_STYLE_ASSIGNMENT (( #696 ) ) ;
#479 = CARTESIAN_POINT ( 'NONE',  ( 1.635000000000000675, -1.000000000000000000, 0.9250000000000001554 ) ) ;
#480 = ORIENTED_EDGE ( 'NONE', *, *, #271, .T. ) ;
#481 = SURFACE_SIDE_STYLE ('',( #281 ) ) ;
#482 = ADVANCED_FACE ( 'NONE', ( #944 ), #51, .T. ) ;
#483 = LINE ( 'NONE', #411, #555 ) ;
#484 = CARTESIAN_POINT ( 'NONE',  ( -1.399999999999999911, -0.2250000000000000056, -0.5999999999999999778 ) ) ;
#485 = LINE ( 'NONE', #988, #1182 ) ;
#486 = EDGE_LOOP ( 'NONE', ( #1005, #425, #654, #285 ) ) ;
#487 = FACE_OUTER_BOUND ( 'NONE', #1105, .T. ) ;
#488 = VECTOR ( 'NONE', #718, 1000.000000000000000 ) ;
#489 = VECTOR ( 'NONE', #584, 1000.000000000000000 ) ;
#490 =( GEOMETRIC_REPRESENTATION_CONTEXT ( 3 ) GLOBAL_UNCERTAINTY_ASSIGNED_CONTEXT ( ( #787 ) ) GLOBAL_UNIT_ASSIGNED_CONTEXT ( ( #559, #85, #964 ) ) REPRESENTATION_CONTEXT ( 'NONE', 'WORKASPACE' ) );
#491 = PRESENTATION_LAYER_ASSIGNMENT (  '', '', ( #471 ) ) ;
#492 = FACE_OUTER_BOUND ( 'NONE', #17, .T. ) ;
#493 = VECTOR ( 'NONE', #47, 1000.000000000000000 ) ;
#494 = FACE_OUTER_BOUND ( 'NONE', #542, .T. ) ;
#495 = PLANE ( 'NONE',  #164 ) ;
#496 = ADVANCED_FACE ( 'NONE', ( #263 ), #1280, .T. ) ;
#497 = ORIENTED_EDGE ( 'NONE', *, *, #919, .T. ) ;
#498 = CARTESIAN_POINT ( 'NONE',  ( -1.849999999999999867, -0.2250000000000000056, -0.5999999999999999778 ) ) ;
#499 = CARTESIAN_POINT ( 'NONE',  ( 1.549999999999999822, -0.2250000000000000056, 0.3800000000000000044 ) ) ;
#500 = LINE ( 'NONE', #898, #186 ) ;
#501 = SURFACE_STYLE_USAGE ( .BOTH. , #200 ) ;
#502 = ADVANCED_FACE ( 'NONE', ( #465 ), #371, .T. ) ;
#503 = VERTEX_POINT ( 'NONE', #202 ) ;
#504 = FILL_AREA_STYLE_COLOUR ( '', #866 ) ;
#505 = FACE_OUTER_BOUND ( 'NONE', #769, .T. ) ;
#506 = LINE ( 'NONE', #418, #1101 ) ;
#507 = DIRECTION ( 'NONE',  ( 0.000000000000000000, -0.000000000000000000, 1.000000000000000000 ) ) ;
#508 = ORIENTED_EDGE ( 'NONE', *, *, #945, .T. ) ;
#509 = AXIS2_PLACEMENT_3D ( 'NONE', #1197, #1106, #210 ) ;
#510 = VECTOR ( 'NONE', #876, 1000.000000000000000 ) ;
#511 = LINE ( 'NONE', #1118, #170 ) ;
#512 = LINE ( 'NONE', #1094, #1058 ) ;
#513 = DIRECTION ( 'NONE',  ( -0.000000000000000000, -0.000000000000000000, 1.000000000000000000 ) ) ;
#514 = DIRECTION ( 'NONE',  ( 1.000000000000000000, 0.000000000000000000, 0.000000000000000000 ) ) ;
#515 = ADVANCED_FACE ( 'NONE', ( #809 ), #1006, .T. ) ;
#516 = DIRECTION ( 'NONE',  ( -5.225070710773514002E-16, 0.000000000000000000, 1.000000000000000000 ) ) ;
#517 = LINE ( 'NONE', #1120, #1102 ) ;
#518 = ORIENTED_EDGE ( 'NONE', *, *, #255, .T. ) ;
#519 = CARTESIAN_POINT ( 'NONE',  ( 0.5499999999999999334, -0.2250000000000000056, -1.015000000000000124 ) ) ;
#520 = DIRECTION ( 'NONE',  ( -1.000000000000000000, -0.000000000000000000, -0.000000000000000000 ) ) ;
#521 = ADVANCED_FACE ( 'NONE', ( #487 ), #1117, .T. ) ;
#522 = CARTESIAN_POINT ( 'NONE',  ( -1.700000000000000178, 0.000000000000000000, 1.015000000000000124 ) ) ;
#523 = PRESENTATION_STYLE_ASSIGNMENT (( #1030 ) ) ;
#524 = ORIENTED_EDGE ( 'NONE', *, *, #121, .F. ) ;
#525 = DIRECTION ( 'NONE',  ( 0.000000000000000000, 1.000000000000000000, 0.000000000000000000 ) ) ;
#526 = LINE ( 'NONE', #1243, #1023 ) ;
#527 = AXIS2_PLACEMENT_3D ( 'NONE', #142, #332, #1026 ) ;
#528 = AXIS2_PLACEMENT_3D ( 'NONE', #959, #157, #850 ) ;
#529 = UNCERTAINTY_MEASURE_WITH_UNIT (LENGTH_MEASURE( 1.000000000000000082E-05 ), #451, 'distance_accuracy_value', 'NONE');
#530 = STYLED_ITEM ( 'NONE', ( #478 ), #384 ) ;
#531 = FILL_AREA_STYLE ('',( #795 ) ) ;
#532 = ORIENTED_EDGE ( 'NONE', *, *, #786, .T. ) ;
#533 = VECTOR ( 'NONE', #347, 1000.000000000000000 ) ;
#534 = LINE ( 'NONE', #821, #367 ) ;
#535 = VERTEX_POINT ( 'NONE', #28 ) ;
#536 = CARTESIAN_POINT ( 'NONE',  ( -1.685375000000000290, -0.2250000000000000056, -0.5999999999999999778 ) ) ;
#537 = PLANE ( 'NONE',  #1082 ) ;
#538 =( NAMED_UNIT ( * ) PLANE_ANGLE_UNIT ( ) SI_UNIT ( $, .RADIAN. ) );
#539 = ORIENTED_EDGE ( 'NONE', *, *, #835, .F. ) ;
#540 = DIRECTION ( 'NONE',  ( -5.225070710773514002E-16, 0.000000000000000000, 1.000000000000000000 ) ) ;
#541 = ADVANCED_FACE ( 'NONE', ( #416 ), #918, .F. ) ;
#542 = EDGE_LOOP ( 'NONE', ( #1055, #761, #377, #1140 ) ) ;
#543 = DIRECTION ( 'NONE',  ( 0.000000000000000000, 0.000000000000000000, -1.000000000000000000 ) ) ;
#544 = SURFACE_STYLE_USAGE ( .BOTH. , #549 ) ;
#545 = DIRECTION ( 'NONE',  ( -1.000000000000000000, 0.000000000000000000, -0.000000000000000000 ) ) ;
#546 = ORIENTED_EDGE ( 'NONE', *, *, #604, .F. ) ;
#547 = ORIENTED_EDGE ( 'NONE', *, *, #408, .F. ) ;
#548 = APPLICATION_PROTOCOL_DEFINITION ( 'draft international standard', 'automotive_design', 1998, #385 ) ;
#549 = SURFACE_SIDE_STYLE ('',( #234 ) ) ;
#550 = LINE ( 'NONE', #59, #641 ) ;
#551 = PRESENTATION_LAYER_ASSIGNMENT (  '', '', ( #1201 ) ) ;
#552 = VECTOR ( 'NONE', #1200, 1000.000000000000000 ) ;
#553 = PRESENTATION_LAYER_ASSIGNMENT (  '', '', ( #1124 ) ) ;
#554 = VERTEX_POINT ( 'NONE', #18 ) ;
#555 = VECTOR ( 'NONE', #1097, 1000.000000000000000 ) ;
#556 = EDGE_LOOP ( 'NONE', ( #292, #230, #464, #280, #776, #455, #254, #403 ) ) ;
#557 = FILL_AREA_STYLE_COLOUR ( '', #704 ) ;
#558 = ADVANCED_FACE ( 'NONE', ( #404 ), #613, .F. ) ;
#559 =( LENGTH_UNIT ( ) NAMED_UNIT ( * ) SI_UNIT ( .MILLI., .METRE. ) );
#560 = CARTESIAN_POINT ( 'NONE',  ( 1.549999999999999822, -0.2250000000000000056, -0.3800000000000000044 ) ) ;
#561 = ORIENTED_EDGE ( 'NONE', *, *, #1136, .F. ) ;
#562 = ORIENTED_EDGE ( 'NONE', *, *, #291, .T. ) ;
#563 = PRESENTATION_STYLE_ASSIGNMENT (( #76 ) ) ;
#564 = SHAPE_DEFINITION_REPRESENTATION ( #381, #668 ) ;
#565 = FILL_AREA_STYLE_COLOUR ( '', #1204 ) ;
#566 = DIRECTION ( 'NONE',  ( -1.000000000000000000, 0.000000000000000000, 2.224004456380521903E-16 ) ) ;
#567 = EDGE_CURVE ( 'NONE', #415, #998, #534, .T. ) ;
#568 = ORIENTED_EDGE ( 'NONE', *, *, #1191, .T. ) ;
#569 = VERTEX_POINT ( 'NONE', #338 ) ;
#570 =( NAMED_UNIT ( * ) SI_UNIT ( $, .STERADIAN. ) SOLID_ANGLE_UNIT ( ) );
#571 = APPLICATION_PROTOCOL_DEFINITION ( 'draft international standard', 'automotive_design', 1998, #363 ) ;
#572 = LINE ( 'NONE', #364, #1163 ) ;
#573 = MECHANICAL_DESIGN_GEOMETRIC_PRESENTATION_REPRESENTATION (  '', ( #405 ), #284 ) ;
#574 =( GEOMETRIC_REPRESENTATION_CONTEXT ( 3 ) GLOBAL_UNCERTAINTY_ASSIGNED_CONTEXT ( ( #401 ) ) GLOBAL_UNIT_ASSIGNED_CONTEXT ( ( #924, #1228, #1234 ) ) REPRESENTATION_CONTEXT ( 'NONE', 'WORKASPACE' ) );
#575 = AXIS2_PLACEMENT_3D ( 'NONE', #11, #790, #507 ) ;
#576 = ORIENTED_EDGE ( 'NONE', *, *, #139, .T. ) ;
#577 = VECTOR ( 'NONE', #896, 1000.000000000000000 ) ;
#578 = EDGE_CURVE ( 'NONE', #1084, #1256, #421, .T. ) ;
#579 = VERTEX_POINT ( 'NONE', #1123 ) ;
#580 = PRESENTATION_LAYER_ASSIGNMENT (  '', '', ( #228 ) ) ;
#581 = CARTESIAN_POINT ( 'NONE',  ( -1.399999999999999911, -0.2250000000000000056, -0.5999999999999999778 ) ) ;
#582 = VECTOR ( 'NONE', #514, 1000.000000000000000 ) ;
#583 = DIRECTION ( 'NONE',  ( 0.06486312108268006693, 0.9978941705027710718, 0.000000000000000000 ) ) ;
#584 = DIRECTION ( 'NONE',  ( -1.000000000000000000, -0.000000000000000000, -0.000000000000000000 ) ) ;
#585 = FILL_AREA_STYLE_COLOUR ( '', #1059 ) ;
#586 = ORIENTED_EDGE ( 'NONE', *, *, #826, .T. ) ;
#587 = CARTESIAN_POINT ( 'NONE',  ( 0.000000000000000000, 0.000000000000000000, 0.000000000000000000 ) ) ;
#588 = ADVANCED_FACE ( 'NONE', ( #231 ), #943, .F. ) ;
#589 = CARTESIAN_POINT ( 'NONE',  ( 1.549999999999999822, -0.2250000000000000056, 0.3800000000000000044 ) ) ;
#590 = DIRECTION ( 'NONE',  ( 0.000000000000000000, 1.000000000000000000, -0.000000000000000000 ) ) ;
#591 = ORIENTED_EDGE ( 'NONE', *, *, #394, .F. ) ;
#592 = CARTESIAN_POINT ( 'NONE',  ( -1.399999999999999911, -0.2250000000000000056, 0.5999999999999999778 ) ) ;
#593 = EDGE_CURVE ( 'NONE', #503, #1196, #731, .T. ) ;
#594 = PLANE ( 'NONE',  #888 ) ;
#595 = CARTESIAN_POINT ( 'NONE',  ( -1.400000000000000133, 0.000000000000000000, -1.014999999999999680 ) ) ;
#596 = PRESENTATION_LAYER_ASSIGNMENT (  '', '', ( #1057 ) ) ;
#597 = ORIENTED_EDGE ( 'NONE', *, *, #752, .T. ) ;
#598 = AXIS2_PLACEMENT_3D ( 'NONE', #616, #916, #1029 ) ;
#599 =( GEOMETRIC_REPRESENTATION_CONTEXT ( 3 ) GLOBAL_UNCERTAINTY_ASSIGNED_CONTEXT ( ( #529 ) ) GLOBAL_UNIT_ASSIGNED_CONTEXT ( ( #451, #1254, #948 ) ) REPRESENTATION_CONTEXT ( 'NONE', 'WORKASPACE' ) );
#600 = VECTOR ( 'NONE', #665, 1000.000000000000000 ) ;
#601 =( LENGTH_UNIT ( ) NAMED_UNIT ( * ) SI_UNIT ( .MILLI., .METRE. ) );
#602 = PRODUCT_DEFINITION_FORMATION_WITH_SPECIFIED_SOURCE ( 'ANY', '', #81, .NOT_KNOWN. ) ;
#603 = CARTESIAN_POINT ( 'NONE',  ( -1.400000000000000133, -0.2250000000000000056, 1.015000000000000124 ) ) ;
#604 = EDGE_CURVE ( 'NONE', #163, #942, #1241, .T. ) ;
#605 = UNCERTAINTY_MEASURE_WITH_UNIT (LENGTH_MEASURE( 1.000000000000000082E-05 ), #1040, 'distance_accuracy_value', 'NONE');
#606 = CARTESIAN_POINT ( 'NONE',  ( 0.5499999999999999334, -0.09061601031643677640, 1.006844559071520928 ) ) ;
#607 = FILL_AREA_STYLE_COLOUR ( '', #1247 ) ;
#608 = ORIENTED_EDGE ( 'NONE', *, *, #1083, .T. ) ;
#609 = PRESENTATION_STYLE_ASSIGNMENT (( #890 ) ) ;
#610 = CARTESIAN_POINT ( 'NONE',  ( -1.400000000000000133, -0.2250000000000000056, 1.015000000000000124 ) ) ;
#611 = EDGE_CURVE ( 'NONE', #579, #968, #1133, .T. ) ;
#612 = ORIENTED_EDGE ( 'NONE', *, *, #277, .F. ) ;
#613 = PLANE ( 'NONE',  #658 ) ;
#614 = LINE ( 'NONE', #805, #644 ) ;
#615 = FILL_AREA_STYLE_COLOUR ( '', #911 ) ;
#616 = CARTESIAN_POINT ( 'NONE',  ( 1.549999999999999822, -0.2250000000000000056, 0.3800000000000000044 ) ) ;
#617 = ORIENTED_EDGE ( 'NONE', *, *, #760, .F. ) ;
#618 = SURFACE_STYLE_USAGE ( .BOTH. , #224 ) ;
#619 = EDGE_CURVE ( 'NONE', #132, #178, #345, .T. ) ;
#620 = VECTOR ( 'NONE', #126, 1000.000000000000000 ) ;
#621 = VECTOR ( 'NONE', #513, 1000.000000000000000 ) ;
#622 = PRESENTATION_STYLE_ASSIGNMENT (( #211 ) ) ;
#623 = CARTESIAN_POINT ( 'NONE',  ( 1.549999999999999822, 0.000000000000000000, 0.3800000000000000044 ) ) ;
#624 = DIRECTION ( 'NONE',  ( -0.000000000000000000, -0.000000000000000000, 1.000000000000000000 ) ) ;
#625 = ORIENTED_EDGE ( 'NONE', *, *, #874, .T. ) ;
#626 = CARTESIAN_POINT ( 'NONE',  ( 1.949999999999999734, -0.2250000000000000056, -0.3800000000000000044 ) ) ;
#627 = EDGE_CURVE ( 'NONE', #27, #853, #928, .T. ) ;
#628 = CARTESIAN_POINT ( 'NONE',  ( 0.5499999999999999334, 0.000000000000000000, 1.015000000000000124 ) ) ;
#629 = PLANE ( 'NONE',  #528 ) ;
#630 = ORIENTED_EDGE ( 'NONE', *, *, #30, .T. ) ;
#631 = DIRECTION ( 'NONE',  ( 1.000000000000000000, 0.000000000000000000, 0.000000000000000000 ) ) ;
#632 = ORIENTED_EDGE ( 'NONE', *, *, #1236, .F. ) ;
#633 = ADVANCED_FACE ( 'NONE', ( #436 ), #1046, .F. ) ;
#634 = DIRECTION ( 'NONE',  ( 0.9978941705027711828, 0.06486312108268030285, 0.000000000000000000 ) ) ;
#635 = EDGE_CURVE ( 'NONE', #667, #163, #244, .T. ) ;
#636 = SURFACE_STYLE_USAGE ( .BOTH. , #736 ) ;
#637 = LINE ( 'NONE', #38, #2 ) ;
#638 = VERTEX_POINT ( 'NONE', #447 ) ;
#639 = CARTESIAN_POINT ( 'NONE',  ( -1.400000000000000133, -0.2250000000000000056, -1.014999999999999680 ) ) ;
#640 = DIRECTION ( 'NONE',  ( 0.000000000000000000, 1.000000000000000000, 0.000000000000000000 ) ) ;
#641 = VECTOR ( 'NONE', #1072, 1000.000000000000000 ) ;
#642 = UNCERTAINTY_MEASURE_WITH_UNIT (LENGTH_MEASURE( 1.000000000000000082E-05 ), #1052, 'distance_accuracy_value', 'NONE');
#643 = DIRECTION ( 'NONE',  ( -0.000000000000000000, -0.000000000000000000, 1.000000000000000000 ) ) ;
#644 = VECTOR ( 'NONE', #1000, 1000.000000000000000 ) ;
#645 = VERTEX_POINT ( 'NONE', #697 ) ;
#646 = DIRECTION ( 'NONE',  ( 1.000000000000000000, -0.000000000000000000, 0.000000000000000000 ) ) ;
#647 = LINE ( 'NONE', #355, #331 ) ;
#648 = CARTESIAN_POINT ( 'NONE',  ( -1.635000000000000231, -1.000000000000000000, -0.9249999999999999334 ) ) ;
#649 = EDGE_LOOP ( 'NONE', ( #382, #1255, #962, #608, #782, #459, #524, #508 ) ) ;
#650 = SURFACE_STYLE_FILL_AREA ( #1242 ) ;
#651 = DIRECTION ( 'NONE',  ( -1.000000000000000000, 0.000000000000000000, -0.000000000000000000 ) ) ;
#652 =( LENGTH_UNIT ( ) NAMED_UNIT ( * ) SI_UNIT ( .MILLI., .METRE. ) );
#653 = FACE_OUTER_BOUND ( 'NONE', #112, .T. ) ;
#654 = ORIENTED_EDGE ( 'NONE', *, *, #1219, .T. ) ;
#655 = ORIENTED_EDGE ( 'NONE', *, *, #1226, .T. ) ;
#656 = PRODUCT_CONTEXT ( 'NONE', #385, 'mechanical' ) ;
#657 =( GEOMETRIC_REPRESENTATION_CONTEXT ( 3 ) GLOBAL_UNCERTAINTY_ASSIGNED_CONTEXT ( ( #939 ) ) GLOBAL_UNIT_ASSIGNED_CONTEXT ( ( #664, #476, #570 ) ) REPRESENTATION_CONTEXT ( 'NONE', 'WORKASPACE' ) );
#658 = AXIS2_PLACEMENT_3D ( 'NONE', #1032, #1128, #839 ) ;
#659 =( GEOMETRIC_REPRESENTATION_CONTEXT ( 3 ) GLOBAL_UNCERTAINTY_ASSIGNED_CONTEXT ( ( #326 ) ) GLOBAL_UNIT_ASSIGNED_CONTEXT ( ( #710, #107, #802 ) ) REPRESENTATION_CONTEXT ( 'NONE', 'WORKASPACE' ) );
#660 =( GEOMETRIC_REPRESENTATION_CONTEXT ( 3 ) GLOBAL_UNCERTAINTY_ASSIGNED_CONTEXT ( ( #1202 ) ) GLOBAL_UNIT_ASSIGNED_CONTEXT ( ( #1146, #538, #1049 ) ) REPRESENTATION_CONTEXT ( 'NONE', 'WORKASPACE' ) );
#661 = CARTESIAN_POINT ( 'NONE',  ( -1.400000000000000133, 0.000000000000000000, -1.014999999999999680 ) ) ;
#662 = VECTOR ( 'NONE', #543, 1000.000000000000000 ) ;
#663 = VERTEX_POINT ( 'NONE', #610 ) ;
#664 =( LENGTH_UNIT ( ) NAMED_UNIT ( * ) SI_UNIT ( .MILLI., .METRE. ) );
#665 = DIRECTION ( 'NONE',  ( -1.000000000000000000, -0.000000000000000000, -0.000000000000000000 ) ) ;
#666 = EDGE_LOOP ( 'NONE', ( #1031, #1174, #1248, #730 ) ) ;
#667 = VERTEX_POINT ( 'NONE', #595 ) ;
#668 = ADVANCED_BREP_SHAPE_REPRESENTATION ( 'SS2PH10-M3', ( #31, #26, #467, #354 ), #1043 ) ;
#669 = FILL_AREA_STYLE ('',( #557 ) ) ;
#670 = CARTESIAN_POINT ( 'NONE',  ( 1.699999999999999734, 0.000000000000000000, 1.015000000000000124 ) ) ;
#671 = SURFACE_STYLE_FILL_AREA ( #955 ) ;
#672 = ADVANCED_FACE ( 'NONE', ( #10 ), #495, .F. ) ;
#673 = VERTEX_POINT ( 'NONE', #37 ) ;
#674 = ORIENTED_EDGE ( 'NONE', *, *, #89, .T. ) ;
#675 =( NAMED_UNIT ( * ) PLANE_ANGLE_UNIT ( ) SI_UNIT ( $, .RADIAN. ) );
#676 =( LENGTH_UNIT ( ) NAMED_UNIT ( * ) SI_UNIT ( .MILLI., .METRE. ) );
#677 = FILL_AREA_STYLE_COLOUR ( '', #140 ) ;
#678 = DIRECTION ( 'NONE',  ( 0.000000000000000000, 1.000000000000000000, 0.000000000000000000 ) ) ;
#679 = VECTOR ( 'NONE', #1009, 1000.000000000000000 ) ;
#680 = COLOUR_RGB ( '',0.9882352941176471006, 0.7372549019607843590, 0.5137254901960783826 ) ;
#681 = EDGE_CURVE ( 'NONE', #63, #673, #296, .T. ) ;
#682 =( GEOMETRIC_REPRESENTATION_CONTEXT ( 3 ) GLOBAL_UNCERTAINTY_ASSIGNED_CONTEXT ( ( #149 ) ) GLOBAL_UNIT_ASSIGNED_CONTEXT ( ( #1175, #270, #1 ) ) REPRESENTATION_CONTEXT ( 'NONE', 'WORKASPACE' ) );
#683 = ORIENTED_EDGE ( 'NONE', *, *, #1125, .T. ) ;
#684 = SURFACE_SIDE_STYLE ('',( #1085 ) ) ;
#685 = CARTESIAN_POINT ( 'NONE',  ( -1.700000000000000178, 0.000000000000000000, -1.014999999999999680 ) ) ;
#686 = LINE ( 'NONE', #205, #577 ) ;
#687 = ORIENTED_EDGE ( 'NONE', *, *, #433, .T. ) ;
#688 = EDGE_CURVE ( 'NONE', #1127, #645, #892, .T. ) ;
#689 = FACE_OUTER_BOUND ( 'NONE', #1090, .T. ) ;
#690 = FACE_OUTER_BOUND ( 'NONE', #989, .T. ) ;
#691 = DIRECTION ( 'NONE',  ( -0.06486312108268006693, -0.9978941705027710718, 0.000000000000000000 ) ) ;
#692 = VERTEX_POINT ( 'NONE', #32 ) ;
#693 = DIRECTION ( 'NONE',  ( -1.000000000000000000, 0.000000000000000000, 0.000000000000000000 ) ) ;
#694 = EDGE_CURVE ( 'NONE', #415, #174, #207, .T. ) ;
#695 = LINE ( 'NONE', #219, #1208 ) ;
#696 = SURFACE_STYLE_USAGE ( .BOTH. , #91 ) ;
#697 = CARTESIAN_POINT ( 'NONE',  ( -1.400000000000000133, 0.000000000000000000, 1.015000000000000124 ) ) ;
#698 =( LENGTH_UNIT ( ) NAMED_UNIT ( * ) SI_UNIT ( .MILLI., .METRE. ) );
#699 = PRESENTATION_LAYER_ASSIGNMENT (  '', '', ( #1266 ) ) ;
#700 = ORIENTED_EDGE ( 'NONE', *, *, #449, .F. ) ;
#701 = COLOUR_RGB ( '',0.9882352941176471006, 0.7372549019607843590, 0.5137254901960783826 ) ;
#702 = VECTOR ( 'NONE', #73, 1000.000000000000000 ) ;
#703 = VECTOR ( 'NONE', #278, 1000.000000000000000 ) ;
#704 = COLOUR_RGB ( '',0.9882352941176471006, 0.7372549019607843590, 0.5137254901960783826 ) ;
#705 = ADVANCED_FACE ( 'NONE', ( #690 ), #423, .F. ) ;
#706 =( NAMED_UNIT ( * ) PLANE_ANGLE_UNIT ( ) SI_UNIT ( $, .RADIAN. ) );
#707 =( GEOMETRIC_REPRESENTATION_CONTEXT ( 3 ) GLOBAL_UNCERTAINTY_ASSIGNED_CONTEXT ( ( #213 ) ) GLOBAL_UNIT_ASSIGNED_CONTEXT ( ( #601, #1188, #1113 ) ) REPRESENTATION_CONTEXT ( 'NONE', 'WORKASPACE' ) );
#708 = PRODUCT_DEFINITION_CONTEXT ( 'detailed design', #363, 'design' ) ;
#709 = DIRECTION ( 'NONE',  ( 1.172110456741085828E-16, 0.000000000000000000, 1.000000000000000000 ) ) ;
#710 =( LENGTH_UNIT ( ) NAMED_UNIT ( * ) SI_UNIT ( .MILLI., .METRE. ) );
#711 = VERTEX_POINT ( 'NONE', #117 ) ;
#712 = CARTESIAN_POINT ( 'NONE',  ( 1.549999999999999822, -0.2250000000000000056, -0.3800000000000000044 ) ) ;
#713 = CARTESIAN_POINT ( 'NONE',  ( -1.400000000000000133, 0.000000000000000000, 1.015000000000000124 ) ) ;
#714 = EDGE_CURVE ( 'NONE', #68, #470, #308, .T. ) ;
#715 = ORIENTED_EDGE ( 'NONE', *, *, #635, .F. ) ;
#716 = SURFACE_SIDE_STYLE ('',( #102 ) ) ;
#717 = SURFACE_STYLE_USAGE ( .BOTH. , #114 ) ;
#718 = DIRECTION ( 'NONE',  ( 0.000000000000000000, 0.000000000000000000, 1.000000000000000000 ) ) ;
#719 = DIRECTION ( 'NONE',  ( -1.000000000000000000, -0.000000000000000000, -0.000000000000000000 ) ) ;
#720 = EDGE_CURVE ( 'NONE', #376, #1033, #1194, .T. ) ;
#721 = ORIENTED_EDGE ( 'NONE', *, *, #121, .T. ) ;
#722 = DIRECTION ( 'NONE',  ( 0.000000000000000000, 1.000000000000000000, 0.000000000000000000 ) ) ;
#723 = VECTOR ( 'NONE', #722, 1000.000000000000000 ) ;
#724 = MECHANICAL_DESIGN_GEOMETRIC_PRESENTATION_REPRESENTATION (  '', ( #389 ), #490 ) ;
#725 = VECTOR ( 'NONE', #473, 1000.000000000000000 ) ;
#726 = DIRECTION ( 'NONE',  ( -1.000000000000000000, 0.000000000000000000, -0.000000000000000000 ) ) ;
#727 = MECHANICAL_DESIGN_GEOMETRIC_PRESENTATION_REPRESENTATION (  '', ( #413 ), #1210 ) ;
#728 = DIRECTION ( 'NONE',  ( 0.000000000000000000, -0.000000000000000000, -1.000000000000000000 ) ) ;
#729 = FACE_OUTER_BOUND ( 'NONE', #666, .T. ) ;
#730 = ORIENTED_EDGE ( 'NONE', *, *, #1170, .T. ) ;
#731 = LINE ( 'NONE', #1221, #620 ) ;
#732 = ORIENTED_EDGE ( 'NONE', *, *, #934, .F. ) ;
#733 = EDGE_CURVE ( 'NONE', #871, #182, #512, .T. ) ;
#734 = CARTESIAN_POINT ( 'NONE',  ( 0.000000000000000000, 0.000000000000000000, 0.000000000000000000 ) ) ;
#735 = UNCERTAINTY_MEASURE_WITH_UNIT (LENGTH_MEASURE( 1.000000000000000082E-05 ), #698, 'distance_accuracy_value', 'NONE');
#736 = SURFACE_SIDE_STYLE ('',( #241 ) ) ;
#737 =( NAMED_UNIT ( * ) PLANE_ANGLE_UNIT ( ) SI_UNIT ( $, .RADIAN. ) );
#738 = VERTEX_POINT ( 'NONE', #801 ) ;
#739 = EDGE_LOOP ( 'NONE', ( #547, #279, #69, #518 ) ) ;
#740 = CARTESIAN_POINT ( 'NONE',  ( 1.699999999999999734, 0.000000000000000000, -1.014999999999999680 ) ) ;
#741 = CARTESIAN_POINT ( 'NONE',  ( -1.635000000000000009, -1.000000000000000000, 0.9250000000000001554 ) ) ;
#742 = EDGE_CURVE ( 'NONE', #663, #871, #1024, .T. ) ;
#743 = CARTESIAN_POINT ( 'NONE',  ( 0.5499999999999999334, -0.2250000000000000056, 1.015000000000000124 ) ) ;
#744 = ORIENTED_EDGE ( 'NONE', *, *, #232, .F. ) ;
#745 = PRESENTATION_STYLE_ASSIGNMENT (( #618 ) ) ;
#746 = ORIENTED_EDGE ( 'NONE', *, *, #5, .F. ) ;
#747 = MECHANICAL_DESIGN_GEOMETRIC_PRESENTATION_REPRESENTATION (  '', ( #115 ), #659 ) ;
#748 = VECTOR ( 'NONE', #99, 1000.000000000000000 ) ;
#749 = CARTESIAN_POINT ( 'NONE',  ( 1.549999999999999822, -0.2250000000000000056, -0.3800000000000000044 ) ) ;
#750 = AXIS2_PLACEMENT_3D ( 'NONE', #1246, #545, #1054 ) ;
#751 = AXIS2_PLACEMENT_3D ( 'NONE', #221, #1115, #1036 ) ;
#752 = EDGE_CURVE ( 'NONE', #376, #949, #303, .T. ) ;
#753 = DIRECTION ( 'NONE',  ( -0.000000000000000000, -0.000000000000000000, 1.000000000000000000 ) ) ;
#754 = AXIS2_PLACEMENT_3D ( 'NONE', #1251, #646, #840 ) ;
#755 = DIRECTION ( 'NONE',  ( -4.683633182170951978E-17, 0.9959744388432287820, 0.08963769949589049657 ) ) ;
#756 = ORIENTED_EDGE ( 'NONE', *, *, #593, .F. ) ;
#757 = CARTESIAN_POINT ( 'NONE',  ( -1.692847718389803191, -0.1100351016953374922, 0.5999999999999999778 ) ) ;
#758 = SURFACE_STYLE_USAGE ( .BOTH. , #1147 ) ;
#759 = ORIENTED_EDGE ( 'NONE', *, *, #1051, .T. ) ;
#760 = EDGE_CURVE ( 'NONE', #470, #535, #500, .T. ) ;
#761 = ORIENTED_EDGE ( 'NONE', *, *, #733, .F. ) ;
#762 = LINE ( 'NONE', #259, #702 ) ;
#763 = ORIENTED_EDGE ( 'NONE', *, *, #340, .F. ) ;
#764 = EDGE_CURVE ( 'NONE', #554, #711, #111, .T. ) ;
#765 = VERTEX_POINT ( 'NONE', #623 ) ;
#766 = LINE ( 'NONE', #685, #600 ) ;
#767 = DIRECTION ( 'NONE',  ( 0.000000000000000000, 0.000000000000000000, 1.000000000000000000 ) ) ;
#768 = AXIS2_PLACEMENT_3D ( 'NONE', #414, #1119, #227 ) ;
#769 = EDGE_LOOP ( 'NONE', ( #201, #362, #1122, #152 ) ) ;
#770 = ORIENTED_EDGE ( 'NONE', *, *, #159, .F. ) ;
#771 =( LENGTH_UNIT ( ) NAMED_UNIT ( * ) SI_UNIT ( .MILLI., .METRE. ) );
#772 = PRODUCT_RELATED_PRODUCT_CATEGORY ( 'part', '', ( #81 ) ) ;
#773 = DIRECTION ( 'NONE',  ( 0.000000000000000000, 0.000000000000000000, -1.000000000000000000 ) ) ;
#774 = PLANE ( 'NONE',  #750 ) ;
#775 = ORIENTED_EDGE ( 'NONE', *, *, #333, .T. ) ;
#776 = ORIENTED_EDGE ( 'NONE', *, *, #129, .F. ) ;
#777 = FILL_AREA_STYLE ('',( #783 ) ) ;
#778 = EDGE_CURVE ( 'NONE', #262, #163, #402, .T. ) ;
#779 = LINE ( 'NONE', #477, #431 ) ;
#780 = DIRECTION ( 'NONE',  ( 0.000000000000000000, 0.000000000000000000, 1.000000000000000000 ) ) ;
#781 = PRESENTATION_STYLE_ASSIGNMENT (( #807 ) ) ;
#782 = ORIENTED_EDGE ( 'NONE', *, *, #1191, .F. ) ;
#783 = FILL_AREA_STYLE_COLOUR ( '', #168 ) ;
#784 = PLANE ( 'NONE',  #1268 ) ;
#785 =( NAMED_UNIT ( * ) SI_UNIT ( $, .STERADIAN. ) SOLID_ANGLE_UNIT ( ) );
#786 = EDGE_CURVE ( 'NONE', #667, #420, #1109, .T. ) ;
#787 = UNCERTAINTY_MEASURE_WITH_UNIT (LENGTH_MEASURE( 1.000000000000000082E-05 ), #559, 'distance_accuracy_value', 'NONE');
#788 = VECTOR ( 'NONE', #1141, 1000.000000000000000 ) ;
#789 = VECTOR ( 'NONE', #755, 1000.000000000000000 ) ;
#790 = DIRECTION ( 'NONE',  ( 0.000000000000000000, 1.000000000000000000, 0.000000000000000000 ) ) ;
#791 = MECHANICAL_DESIGN_GEOMETRIC_PRESENTATION_REPRESENTATION (  '', ( #471 ), #831 ) ;
#792 = ORIENTED_EDGE ( 'NONE', *, *, #786, .F. ) ;
#793 = SURFACE_STYLE_FILL_AREA ( #1020 ) ;
#794 = CARTESIAN_POINT ( 'NONE',  ( 0.000000000000000000, -0.2250000000000000056, 0.000000000000000000 ) ) ;
#795 = FILL_AREA_STYLE_COLOUR ( '', #680 ) ;
#796 = EDGE_CURVE ( 'NONE', #977, #68, #506, .T. ) ;
#797 = ORIENTED_EDGE ( 'NONE', *, *, #752, .F. ) ;
#798 = DIRECTION ( 'NONE',  ( -5.225070710773514002E-16, 0.000000000000000000, 1.000000000000000000 ) ) ;
#799 = PRESENTATION_STYLE_ASSIGNMENT (( #717 ) ) ;
#800 = SURFACE_STYLE_FILL_AREA ( #397 ) ;
#801 = CARTESIAN_POINT ( 'NONE',  ( -1.700000000000000178, 0.000000000000000000, -0.5999999999999999778 ) ) ;
#802 =( NAMED_UNIT ( * ) SI_UNIT ( $, .STERADIAN. ) SOLID_ANGLE_UNIT ( ) );
#803 = VERTEX_POINT ( 'NONE', #315 ) ;
#804 = CARTESIAN_POINT ( 'NONE',  ( 1.949999999999999734, -0.2250000000000000056, 0.3800000000000000044 ) ) ;
#805 = CARTESIAN_POINT ( 'NONE',  ( -1.849999999999999867, -0.2250000000000000056, 0.5999999999999999778 ) ) ;
#806 = CARTESIAN_POINT ( 'NONE',  ( 0.000000000000000000, -0.2250000000000000056, -0.9947499999999998010 ) ) ;
#807 = SURFACE_STYLE_USAGE ( .BOTH. , #1185 ) ;
#808 = VERTEX_POINT ( 'NONE', #712 ) ;
#809 = FACE_OUTER_BOUND ( 'NONE', #1168, .T. ) ;
#810 = VECTOR ( 'NONE', #466, 1000.000000000000000 ) ;
#811 = STYLED_ITEM ( 'NONE', ( #781 ), #31 ) ;
#812 = DIRECTION ( 'NONE',  ( 0.000000000000000000, 0.000000000000000000, -1.000000000000000000 ) ) ;
#813 =( LENGTH_UNIT ( ) NAMED_UNIT ( * ) SI_UNIT ( .MILLI., .METRE. ) );
#814 = CARTESIAN_POINT ( 'NONE',  ( 1.634999999999999787, -1.000000000000000000, -0.9249999999999999334 ) ) ;
#815 = VERTEX_POINT ( 'NONE', #1114 ) ;
#816 = FILL_AREA_STYLE ('',( #1013 ) ) ;
#817 = ADVANCED_FACE ( 'NONE', ( #818 ), #220, .F. ) ;
#818 = FACE_OUTER_BOUND ( 'NONE', #820, .T. ) ;
#819 = CARTESIAN_POINT ( 'NONE',  ( 1.549999999999999822, -0.2250000000000000056, 0.3800000000000000044 ) ) ;
#820 = EDGE_LOOP ( 'NONE', ( #763, #1279, #568, #1064 ) ) ;
#821 = CARTESIAN_POINT ( 'NONE',  ( -1.700000000000000178, 0.000000000000000000, 1.015000000000000124 ) ) ;
#822 = DIRECTION ( 'NONE',  ( 0.000000000000000000, -0.000000000000000000, -1.000000000000000000 ) ) ;
#823 = DIRECTION ( 'NONE',  ( -0.06460310257542797863, 0.9938938857758157219, -0.08945044971982311910 ) ) ;
#824 = CARTESIAN_POINT ( 'NONE',  ( -1.399999999999999911, -0.2250000000000000056, -0.5999999999999999778 ) ) ;
#825 = VERTEX_POINT ( 'NONE', #327 ) ;
#826 = EDGE_CURVE ( 'NONE', #1196, #1157, #947, .T. ) ;
#827 = COLOUR_RGB ( '',0.9882352941176471006, 0.7372549019607843590, 0.5137254901960783826 ) ;
#828 = VECTOR ( 'NONE', #992, 1000.000000000000000 ) ;
#829 = PRESENTATION_LAYER_ASSIGNMENT (  '', '', ( #811 ) ) ;
#830 = VECTOR ( 'NONE', #1261, 1000.000000000000000 ) ;
#831 =( GEOMETRIC_REPRESENTATION_CONTEXT ( 3 ) GLOBAL_UNCERTAINTY_ASSIGNED_CONTEXT ( ( #642 ) ) GLOBAL_UNIT_ASSIGNED_CONTEXT ( ( #1052, #937, #1150 ) ) REPRESENTATION_CONTEXT ( 'NONE', 'WORKASPACE' ) );
#832 = LINE ( 'NONE', #155, #533 ) ;
#833 = LINE ( 'NONE', #1239, #266 ) ;
#834 = ORIENTED_EDGE ( 'NONE', *, *, #1136, .T. ) ;
#835 = EDGE_CURVE ( 'NONE', #808, #1084, #1245, .T. ) ;
#836 = CARTESIAN_POINT ( 'NONE',  ( 1.549999999999999822, -0.2250000000000000056, 0.3800000000000000044 ) ) ;
#837 = LINE ( 'NONE', #1138, #952 ) ;
#838 = ORIENTED_EDGE ( 'NONE', *, *, #247, .F. ) ;
#839 = DIRECTION ( 'NONE',  ( 0.000000000000000000, 0.000000000000000000, 1.000000000000000000 ) ) ;
#840 = DIRECTION ( 'NONE',  ( 0.000000000000000000, 0.000000000000000000, -1.000000000000000000 ) ) ;
#841 = LINE ( 'NONE', #1027, #1272 ) ;
#842 =( NAMED_UNIT ( * ) PLANE_ANGLE_UNIT ( ) SI_UNIT ( $, .RADIAN. ) );
#843 = LINE ( 'NONE', #349, #388 ) ;
#844 = ORIENTED_EDGE ( 'NONE', *, *, #1236, .T. ) ;
#845 = VECTOR ( 'NONE', #133, 1000.000000000000000 ) ;
#846 = CARTESIAN_POINT ( 'NONE',  ( 1.549999999999999822, 0.000000000000000000, 0.3800000000000000044 ) ) ;
#847 = MECHANICAL_DESIGN_GEOMETRIC_PRESENTATION_REPRESENTATION (  '', ( #869 ), #599 ) ;
#848 = AXIS2_PLACEMENT_3D ( 'NONE', #150, #156, #1152 ) ;
#849 = VECTOR ( 'NONE', #391, 1000.000000000000000 ) ;
#850 = DIRECTION ( 'NONE',  ( -1.000000000000000000, 0.000000000000000000, 2.224004456380521903E-16 ) ) ;
#851 = VECTOR ( 'NONE', #1048, 1000.000000000000000 ) ;
#852 = ORIENTED_EDGE ( 'NONE', *, *, #1083, .F. ) ;
#853 = VERTEX_POINT ( 'NONE', #248 ) ;
#854 =( NAMED_UNIT ( * ) PLANE_ANGLE_UNIT ( ) SI_UNIT ( $, .RADIAN. ) );
#855 = PRESENTATION_STYLE_ASSIGNMENT (( #374 ) ) ;
#856 = CARTESIAN_POINT ( 'NONE',  ( -1.700000000000000178, 0.000000000000000000, 1.015000000000000124 ) ) ;
#857 = ADVANCED_FACE ( 'NONE', ( #53 ), #1223, .T. ) ;
#858 = ORIENTED_EDGE ( 'NONE', *, *, #593, .T. ) ;
#859 = ORIENTED_EDGE ( 'NONE', *, *, #688, .T. ) ;
#860 = DIRECTION ( 'NONE',  ( 1.000000000000000000, 0.000000000000000000, -0.000000000000000000 ) ) ;
#861 = DIRECTION ( 'NONE',  ( 1.000000000000000000, 0.000000000000000000, 0.000000000000000000 ) ) ;
#862 = ORIENTED_EDGE ( 'NONE', *, *, #89, .F. ) ;
#863 = EDGE_CURVE ( 'NONE', #1132, #243, #348, .T. ) ;
#864 = ORIENTED_EDGE ( 'NONE', *, *, #919, .F. ) ;
#865 = DIRECTION ( 'NONE',  ( 0.000000000000000000, 1.000000000000000000, -0.000000000000000000 ) ) ;
#866 = COLOUR_RGB ( '',0.9882352941176471006, 0.7372549019607843590, 0.5137254901960783826 ) ;
#867 = DIRECTION ( 'NONE',  ( 0.000000000000000000, -1.000000000000000000, 0.000000000000000000 ) ) ;
#868 = DIRECTION ( 'NONE',  ( 0.000000000000000000, 1.000000000000000000, 0.000000000000000000 ) ) ;
#869 = STYLED_ITEM ( 'NONE', ( #1153 ), #183 ) ;
#870 = PRESENTATION_LAYER_ASSIGNMENT (  '', '', ( #144 ) ) ;
#871 = VERTEX_POINT ( 'NONE', #940 ) ;
#872 = VECTOR ( 'NONE', #246, 1000.000000000000000 ) ;
#873 = ORIENTED_EDGE ( 'NONE', *, *, #357, .F. ) ;
#874 = EDGE_CURVE ( 'NONE', #663, #158, #1035, .T. ) ;
#875 = PLANE ( 'NONE',  #932 ) ;
#876 = DIRECTION ( 'NONE',  ( 1.000000000000000000, 0.000000000000000000, 0.000000000000000000 ) ) ;
#877 = VERTEX_POINT ( 'NONE', #253 ) ;
#878 = ORIENTED_EDGE ( 'NONE', *, *, #1186, .T. ) ;
#879 = ADVANCED_FACE ( 'NONE', ( #457 ), #342, .T. ) ;
#880 = CARTESIAN_POINT ( 'NONE',  ( -1.399999999999999911, -0.2250000000000000056, -0.5999999999999999778 ) ) ;
#881 = ORIENTED_EDGE ( 'NONE', *, *, #1160, .T. ) ;
#882 = FILL_AREA_STYLE ('',( #984 ) ) ;
#883 = CARTESIAN_POINT ( 'NONE',  ( 1.549999999999999822, 0.000000000000000000, -0.3800000000000000044 ) ) ;
#884 = FACE_OUTER_BOUND ( 'NONE', #1259, .T. ) ;
#885 = VECTOR ( 'NONE', #1217, 1000.000000000000000 ) ;
#886 = VECTOR ( 'NONE', #1258, 1000.000000000000000 ) ;
#887 = FACE_OUTER_BOUND ( 'NONE', #1192, .T. ) ;
#888 = AXIS2_PLACEMENT_3D ( 'NONE', #603, #972, #198 ) ;
#889 = ORIENTED_EDGE ( 'NONE', *, *, #449, .T. ) ;
#890 = SURFACE_STYLE_USAGE ( .BOTH. , #716 ) ;
#891 = CARTESIAN_POINT ( 'NONE',  ( -1.399999999999999911, 0.000000000000000000, -0.5999999999999999778 ) ) ;
#892 = LINE ( 'NONE', #24, #885 ) ;
#893 = VERTEX_POINT ( 'NONE', #130 ) ;
#894 =( LENGTH_UNIT ( ) NAMED_UNIT ( * ) SI_UNIT ( .MILLI., .METRE. ) );
#895 = FILL_AREA_STYLE ('',( #204 ) ) ;
#896 = DIRECTION ( 'NONE',  ( -0.000000000000000000, -0.000000000000000000, 1.000000000000000000 ) ) ;
#897 = UNCERTAINTY_MEASURE_WITH_UNIT (LENGTH_MEASURE( 1.000000000000000082E-05 ), #894, 'distance_accuracy_value', 'NONE');
#898 = CARTESIAN_POINT ( 'NONE',  ( -1.700000000000000178, 0.000000000000000000, -1.014999999999999680 ) ) ;
#899 = LINE ( 'NONE', #100, #23 ) ;
#900 = ORIENTED_EDGE ( 'NONE', *, *, #927, .T. ) ;
#901 = FILL_AREA_STYLE_COLOUR ( '', #827 ) ;
#902 = CARTESIAN_POINT ( 'NONE',  ( -1.849999999999999867, -0.2250000000000000056, 0.5999999999999999778 ) ) ;
#903 = SURFACE_SIDE_STYLE ('',( #1015 ) ) ;
#904 = DIRECTION ( 'NONE',  ( -1.000000000000000000, -0.000000000000000000, -0.000000000000000000 ) ) ;
#905 = DIRECTION ( 'NONE',  ( -5.225070710773514002E-16, 0.000000000000000000, 1.000000000000000000 ) ) ;
#906 = CLOSED_SHELL ( 'NONE', ( #1244, #985, #672, #12, #1129, #98, #541, #43, #817, #1179, #261, #222, #372, #588, #705, #108, #633, #314 ) ) ;
#907 = COLOUR_RGB ( '',0.9882352941176471006, 0.7372549019607843590, 0.5137254901960783826 ) ;
#908 = COLOUR_RGB ( '',0.9882352941176471006, 0.7372549019607843590, 0.5137254901960783826 ) ;
#909 = ORIENTED_EDGE ( 'NONE', *, *, #960, .F. ) ;
#910 = SURFACE_STYLE_USAGE ( .BOTH. , #14 ) ;
#911 = COLOUR_RGB ( '',0.7529411764705882248, 0.7529411764705882248, 0.7529411764705882248 ) ;
#912 = VECTOR ( 'NONE', #412, 1000.000000000000000 ) ;
#913 = ADVANCED_FACE ( 'NONE', ( #1183 ), #189, .T. ) ;
#914 = COLOUR_RGB ( '',0.9882352941176471006, 0.7372549019607843590, 0.5137254901960783826 ) ;
#915 = CARTESIAN_POINT ( 'NONE',  ( -1.399999999999999911, -0.2250000000000000056, 0.5999999999999999778 ) ) ;
#916 = DIRECTION ( 'NONE',  ( -0.000000000000000000, 0.000000000000000000, 1.000000000000000000 ) ) ;
#917 = CARTESIAN_POINT ( 'NONE',  ( 1.549999999999999822, -0.2250000000000000056, 0.3800000000000000044 ) ) ;
#918 = PLANE ( 'NONE',  #509 ) ;
#919 = EDGE_CURVE ( 'NONE', #125, #503, #171, .T. ) ;
#920 = DIRECTION ( 'NONE',  ( 1.000000000000000000, 0.000000000000000000, 0.000000000000000000 ) ) ;
#921 = DIRECTION ( 'NONE',  ( 0.000000000000000000, -1.000000000000000000, 0.000000000000000000 ) ) ;
#922 = CARTESIAN_POINT ( 'NONE',  ( 1.949999999999999734, -0.2250000000000000056, 0.3800000000000000044 ) ) ;
#923 = VERTEX_POINT ( 'NONE', #589 ) ;
#924 =( LENGTH_UNIT ( ) NAMED_UNIT ( * ) SI_UNIT ( .MILLI., .METRE. ) );
#925 = CARTESIAN_POINT ( 'NONE',  ( -1.692847718389803191, -0.1100351016953374922, -0.5999999999999999778 ) ) ;
#926 = DIRECTION ( 'NONE',  ( 1.000000000000000000, 0.000000000000000000, 0.000000000000000000 ) ) ;
#927 = EDGE_CURVE ( 'NONE', #554, #274, #779, .T. ) ;
#928 = LINE ( 'NONE', #519, #723 ) ;
#929 = VECTOR ( 'NONE', #335, 1000.000000000000000 ) ;
#930 = MECHANICAL_DESIGN_GEOMETRIC_PRESENTATION_REPRESENTATION (  '', ( #1021 ), #44 ) ;
#931 = DIRECTION ( 'NONE',  ( 0.000000000000000000, -1.000000000000000000, 0.000000000000000000 ) ) ;
#932 = AXIS2_PLACEMENT_3D ( 'NONE', #498, #1092, #301 ) ;
#933 = PLANE ( 'NONE',  #1162 ) ;
#934 = EDGE_CURVE ( 'NONE', #923, #765, #1276, .T. ) ;
#935 = ORIENTED_EDGE ( 'NONE', *, *, #927, .F. ) ;
#936 = CARTESIAN_POINT ( 'NONE',  ( 1.549999999999999822, 0.000000000000000000, 0.3800000000000000044 ) ) ;
#937 =( NAMED_UNIT ( * ) PLANE_ANGLE_UNIT ( ) SI_UNIT ( $, .RADIAN. ) );
#938 = DIRECTION ( 'NONE',  ( 0.000000000000000000, 0.000000000000000000, -1.000000000000000000 ) ) ;
#939 = UNCERTAINTY_MEASURE_WITH_UNIT (LENGTH_MEASURE( 1.000000000000000082E-05 ), #664, 'distance_accuracy_value', 'NONE');
#940 = CARTESIAN_POINT ( 'NONE',  ( 0.5499999999999999334, -0.2250000000000000056, 1.015000000000000124 ) ) ;
#941 = CARTESIAN_POINT ( 'NONE',  ( 0.5499999999999999334, -0.2250000000000000056, -0.9947499999999998010 ) ) ;
#942 = VERTEX_POINT ( 'NONE', #880 ) ;
#943 = PLANE ( 'NONE',  #527 ) ;
#944 = FACE_OUTER_BOUND ( 'NONE', #217, .T. ) ;
#945 = EDGE_CURVE ( 'NONE', #320, #470, #90, .T. ) ;
#946 = LINE ( 'NONE', #741, #1167 ) ;
#947 = LINE ( 'NONE', #1232, #350 ) ;
#948 =( NAMED_UNIT ( * ) SI_UNIT ( $, .STERADIAN. ) SOLID_ANGLE_UNIT ( ) );
#949 = VERTEX_POINT ( 'NONE', #1078 ) ;
#950 = ORIENTED_EDGE ( 'NONE', *, *, #990, .F. ) ;
#951 = SURFACE_SIDE_STYLE ('',( #650 ) ) ;
#952 = VECTOR ( 'NONE', #643, 1000.000000000000000 ) ;
#953 = EDGE_CURVE ( 'NONE', #711, #877, #572, .T. ) ;
#954 = PRESENTATION_LAYER_ASSIGNMENT (  '', '', ( #1041 ) ) ;
#955 = FILL_AREA_STYLE ('',( #965 ) ) ;
#956 = ORIENTED_EDGE ( 'NONE', *, *, #796, .F. ) ;
#957 = ORIENTED_EDGE ( 'NONE', *, *, #239, .T. ) ;
#958 = SURFACE_STYLE_USAGE ( .BOTH. , #1070 ) ;
#959 = CARTESIAN_POINT ( 'NONE',  ( 0.5499999999999999334, -0.2250000000000000056, -1.015000000000000124 ) ) ;
#960 = EDGE_CURVE ( 'NONE', #667, #1033, #766, .T. ) ;
#961 = ORIENTED_EDGE ( 'NONE', *, *, #742, .T. ) ;
#962 = ORIENTED_EDGE ( 'NONE', *, *, #567, .T. ) ;
#963 = SURFACE_STYLE_USAGE ( .BOTH. , #481 ) ;
#964 =( NAMED_UNIT ( * ) SI_UNIT ( $, .STERADIAN. ) SOLID_ANGLE_UNIT ( ) );
#965 = FILL_AREA_STYLE_COLOUR ( '', #908 ) ;
#966 = ORIENTED_EDGE ( 'NONE', *, *, #990, .T. ) ;
#967 = EDGE_CURVE ( 'NONE', #853, #803, #1165, .T. ) ;
#968 = VERTEX_POINT ( 'NONE', #360 ) ;
#969 = AXIS2_PLACEMENT_3D ( 'NONE', #592, #1209, #798 ) ;
#970 = CLOSED_SHELL ( 'NONE', ( #183, #442, #384, #502, #913, #1004, #496, #879, #558, #482 ) ) ;
#971 = CARTESIAN_POINT ( 'NONE',  ( -1.400000000000000133, -0.2250000000000000056, -1.014999999999999680 ) ) ;
#972 = DIRECTION ( 'NONE',  ( 0.000000000000000000, 0.000000000000000000, 1.000000000000000000 ) ) ;
#973 = STYLED_ITEM ( 'NONE', ( #799 ), #1004 ) ;
#974 = VECTOR ( 'NONE', #868, 1000.000000000000000 ) ;
#975 = MECHANICAL_DESIGN_GEOMETRIC_PRESENTATION_REPRESENTATION (  '', ( #144 ), #657 ) ;
#976 = ORIENTED_EDGE ( 'NONE', *, *, #714, .T. ) ;
#977 = VERTEX_POINT ( 'NONE', #383 ) ;
#978 = DIRECTION ( 'NONE',  ( -1.000000000000000000, 0.000000000000000000, -0.000000000000000000 ) ) ;
#979 = DIRECTION ( 'NONE',  ( 0.000000000000000000, 0.000000000000000000, 1.000000000000000000 ) ) ;
#980 = SURFACE_STYLE_FILL_AREA ( #1066 ) ;
#981 = FILL_AREA_STYLE_COLOUR ( '', #188 ) ;
#982 = DIRECTION ( 'NONE',  ( -0.9978941705027711828, 0.06486312108268008081, 0.000000000000000000 ) ) ;
#983 = ORIENTED_EDGE ( 'NONE', *, *, #1186, .F. ) ;
#984 = FILL_AREA_STYLE_COLOUR ( '', #1164 ) ;
#985 = ADVANCED_FACE ( 'NONE', ( #1282 ), #784, .F. ) ;
#986 = DIRECTION ( 'NONE',  ( -0.000000000000000000, 1.000000000000000000, -0.000000000000000000 ) ) ;
#987 = CARTESIAN_POINT ( 'NONE',  ( -1.849999999999999867, -0.2250000000000000056, 0.5999999999999999778 ) ) ;
#988 = CARTESIAN_POINT ( 'NONE',  ( 0.000000000000000000, -0.2250000000000000056, 0.9947500000000002451 ) ) ;
#989 = EDGE_LOOP ( 'NONE', ( #532, #591, #546, #715 ) ) ;
#990 = EDGE_CURVE ( 'NONE', #815, #1196, #1171, .T. ) ;
#991 = CARTESIAN_POINT ( 'NONE',  ( -1.849999999999999867, 0.000000000000000000, 0.5999999999999999778 ) ) ;
#992 = DIRECTION ( 'NONE',  ( 0.000000000000000000, -0.9959744388432287820, -0.08963769949589049657 ) ) ;
#993 = VECTOR ( 'NONE', #1203, 1000.000000000000000 ) ;
#994 = VECTOR ( 'NONE', #6, 1000.000000000000114 ) ;
#995 = PLANE ( 'NONE',  #575 ) ;
#996 = VECTOR ( 'NONE', #773, 1000.000000000000000 ) ;
#997 =( GEOMETRIC_REPRESENTATION_CONTEXT ( 3 ) GLOBAL_UNCERTAINTY_ASSIGNED_CONTEXT ( ( #105 ) ) GLOBAL_UNIT_ASSIGNED_CONTEXT ( ( #771, #675, #185 ) ) REPRESENTATION_CONTEXT ( 'NONE', 'WORKASPACE' ) );
#998 = VERTEX_POINT ( 'NONE', #670 ) ;
#999 = DIRECTION ( 'NONE',  ( 0.000000000000000000, 0.000000000000000000, -1.000000000000000000 ) ) ;
#1000 = DIRECTION ( 'NONE',  ( 0.000000000000000000, 1.000000000000000000, 0.000000000000000000 ) ) ;
#1001 = SURFACE_STYLE_USAGE ( .BOTH. , #1099 ) ;
#1002 = EDGE_CURVE ( 'NONE', #692, #125, #180, .T. ) ;
#1003 = DIRECTION ( 'NONE',  ( 0.06460310257542797863, 0.9938938857758157219, -0.08945044971982311910 ) ) ;
#1004 = ADVANCED_FACE ( 'NONE', ( #472 ), #875, .T. ) ;
#1005 = ORIENTED_EDGE ( 'NONE', *, *, #127, .F. ) ;
#1006 = PLANE ( 'NONE',  #1159 ) ;
#1007 = DIRECTION ( 'NONE',  ( 0.000000000000000000, 1.000000000000000000, 0.000000000000000000 ) ) ;
#1008 =( NAMED_UNIT ( * ) SI_UNIT ( $, .STERADIAN. ) SOLID_ANGLE_UNIT ( ) );
#1009 = DIRECTION ( 'NONE',  ( 5.225070710773519919E-16, 0.000000000000000000, 1.000000000000000000 ) ) ;
#1010 =( NAMED_UNIT ( * ) SI_UNIT ( $, .STERADIAN. ) SOLID_ANGLE_UNIT ( ) );
#1011 = EDGE_CURVE ( 'NONE', #125, #815, #511, .T. ) ;
#1012 = ORIENTED_EDGE ( 'NONE', *, *, #874, .F. ) ;
#1013 = FILL_AREA_STYLE_COLOUR ( '', #907 ) ;
#1014 = FILL_AREA_STYLE ('',( #677 ) ) ;
#1015 = SURFACE_STYLE_FILL_AREA ( #146 ) ;
#1016 = CARTESIAN_POINT ( 'NONE',  ( -1.399999999999999911, -0.2250000000000000056, 0.5999999999999999778 ) ) ;
#1017 = CARTESIAN_POINT ( 'NONE',  ( 0.000000000000000000, -0.09061601031643654047, -1.006844559071520484 ) ) ;
#1018 = MECHANICAL_DESIGN_GEOMETRIC_PRESENTATION_REPRESENTATION (  '', ( #1267 ), #428 ) ;
#1019 = ORIENTED_EDGE ( 'NONE', *, *, #1065, .F. ) ;
#1020 = FILL_AREA_STYLE ('',( #901 ) ) ;
#1021 = STYLED_ITEM ( 'NONE', ( #245 ), #467 ) ;
#1022 = EDGE_CURVE ( 'NONE', #569, #1056, #8, .T. ) ;
#1023 = VECTOR ( 'NONE', #520, 1000.000000000000000 ) ;
#1024 = LINE ( 'NONE', #199, #748 ) ;
#1025 = EDGE_LOOP ( 'NONE', ( #950, #109, #497, #858 ) ) ;
#1026 = DIRECTION ( 'NONE',  ( -1.000000000000000000, 0.000000000000000000, 0.000000000000000000 ) ) ;
#1027 = CARTESIAN_POINT ( 'NONE',  ( 1.549999999999999822, 0.000000000000000000, 0.3800000000000000044 ) ) ;
#1028 = EDGE_CURVE ( 'NONE', #871, #27, #695, .T. ) ;
#1029 = DIRECTION ( 'NONE',  ( 1.000000000000000000, 0.000000000000000000, 0.000000000000000000 ) ) ;
#1030 = SURFACE_STYLE_USAGE ( .BOTH. , #343 ) ;
#1031 = ORIENTED_EDGE ( 'NONE', *, *, #967, .F. ) ;
#1032 = CARTESIAN_POINT ( 'NONE',  ( 0.000000000000000000, -0.2250000000000000056, 0.000000000000000000 ) ) ;
#1033 = VERTEX_POINT ( 'NONE', #20 ) ;
#1034 = CARTESIAN_POINT ( 'NONE',  ( 1.549999999999999822, -0.2250000000000000056, -0.3800000000000000044 ) ) ;
#1035 = LINE ( 'NONE', #450, #929 ) ;
#1036 = DIRECTION ( 'NONE',  ( 0.000000000000000000, -0.000000000000000000, -1.000000000000000000 ) ) ;
#1037 = ORIENTED_EDGE ( 'NONE', *, *, #271, .F. ) ;
#1038 = CARTESIAN_POINT ( 'NONE',  ( -1.400000000000000133, -0.09061601031643660986, -1.006844559071520484 ) ) ;
#1039 =( GEOMETRIC_REPRESENTATION_CONTEXT ( 3 ) GLOBAL_UNCERTAINTY_ASSIGNED_CONTEXT ( ( #735 ) ) GLOBAL_UNIT_ASSIGNED_CONTEXT ( ( #698, #215, #1010 ) ) REPRESENTATION_CONTEXT ( 'NONE', 'WORKASPACE' ) );
#1040 =( LENGTH_UNIT ( ) NAMED_UNIT ( * ) SI_UNIT ( .MILLI., .METRE. ) );
#1041 = STYLED_ITEM ( 'NONE', ( #563 ), #482 ) ;
#1042 = CARTESIAN_POINT ( 'NONE',  ( -1.692847718389803191, -0.1100351016953374922, 0.000000000000000000 ) ) ;
#1043 =( GEOMETRIC_REPRESENTATION_CONTEXT ( 3 ) GLOBAL_UNCERTAINTY_ASSIGNED_CONTEXT ( ( #392 ) ) GLOBAL_UNIT_ASSIGNED_CONTEXT ( ( #676, #854, #160 ) ) REPRESENTATION_CONTEXT ( 'NONE', 'WORKASPACE' ) );
#1044 = CARTESIAN_POINT ( 'NONE',  ( 0.000000000000000000, -0.2250000000000000056, 0.000000000000000000 ) ) ;
#1045 = LINE ( 'NONE', #432, #368 ) ;
#1046 = PLANE ( 'NONE',  #406 ) ;
#1047 = ORIENTED_EDGE ( 'NONE', *, *, #300, .F. ) ;
#1048 = DIRECTION ( 'NONE',  ( -0.000000000000000000, 1.000000000000000000, -0.000000000000000000 ) ) ;
#1049 =( NAMED_UNIT ( * ) SI_UNIT ( $, .STERADIAN. ) SOLID_ANGLE_UNIT ( ) );
#1050 = ORIENTED_EDGE ( 'NONE', *, *, #177, .F. ) ;
#1051 = EDGE_CURVE ( 'NONE', #942, #475, #483, .T. ) ;
#1052 =( LENGTH_UNIT ( ) NAMED_UNIT ( * ) SI_UNIT ( .MILLI., .METRE. ) );
#1053 = CARTESIAN_POINT ( 'NONE',  ( 1.549999999999999822, -0.2250000000000000056, -0.3800000000000000044 ) ) ;
#1054 = DIRECTION ( 'NONE',  ( -0.000000000000000000, 0.000000000000000000, 1.000000000000000000 ) ) ;
#1055 = ORIENTED_EDGE ( 'NONE', *, *, #239, .F. ) ;
#1056 = VERTEX_POINT ( 'NONE', #29 ) ;
#1057 = STYLED_ITEM ( 'NONE', ( #1096 ), #515 ) ;
#1058 = VECTOR ( 'NONE', #319, 1000.000000000000000 ) ;
#1059 = COLOUR_RGB ( '',0.7529411764705882248, 0.7529411764705882248, 0.7529411764705882248 ) ;
#1060 = MECHANICAL_DESIGN_GEOMETRIC_PRESENTATION_REPRESENTATION (  '', ( #530 ), #1269 ) ;
#1061 = DIRECTION ( 'NONE',  ( 0.000000000000000000, -0.000000000000000000, -1.000000000000000000 ) ) ;
#1062 = VECTOR ( 'NONE', #35, 1000.000000000000000 ) ;
#1063 = DIRECTION ( 'NONE',  ( 5.225070710773519919E-16, 0.000000000000000000, 1.000000000000000000 ) ) ;
#1064 = ORIENTED_EDGE ( 'NONE', *, *, #953, .F. ) ;
#1065 = EDGE_CURVE ( 'NONE', #63, #1127, #396, .T. ) ;
#1066 = FILL_AREA_STYLE ('',( #565 ) ) ;
#1067 = LINE ( 'NONE', #176, #1121 ) ;
#1068 = ORIENTED_EDGE ( 'NONE', *, *, #635, .T. ) ;
#1069 = ORIENTED_EDGE ( 'NONE', *, *, #714, .F. ) ;
#1070 = SURFACE_SIDE_STYLE ('',( #276 ) ) ;
#1071 = CARTESIAN_POINT ( 'NONE',  ( 0.000000000000000000, 0.000000000000000000, 0.000000000000000000 ) ) ;
#1072 = DIRECTION ( 'NONE',  ( 0.000000000000000000, 0.000000000000000000, -1.000000000000000000 ) ) ;
#1073 = EDGE_CURVE ( 'NONE', #569, #1157, #614, .T. ) ;
#1074 = EDGE_LOOP ( 'NONE', ( #674, #1180, #1116, #45, #1278, #1285, #344, #759 ) ) ;
#1075 = ORIENTED_EDGE ( 'NONE', *, *, #945, .F. ) ;
#1076 = CLOSED_SHELL ( 'NONE', ( #515, #469, #521, #1091, #857, #65 ) ) ;
#1077 = VECTOR ( 'NONE', #861, 1000.000000000000000 ) ;
#1078 = CARTESIAN_POINT ( 'NONE',  ( -1.635000000000000009, -1.000000000000000000, 0.9250000000000001554 ) ) ;
#1079 = DIRECTION ( 'NONE',  ( -0.000000000000000000, 0.000000000000000000, 1.000000000000000000 ) ) ;
#1080 = MECHANICAL_DESIGN_GEOMETRIC_PRESENTATION_REPRESENTATION (  '', ( #1057 ), #119 ) ;
#1081 = PLANE ( 'NONE',  #165 ) ;
#1082 = AXIS2_PLACEMENT_3D ( 'NONE', #1034, #938, #651 ) ;
#1083 = EDGE_CURVE ( 'NONE', #998, #877, #417, .T. ) ;
#1084 = VERTEX_POINT ( 'NONE', #883 ) ;
#1085 = SURFACE_STYLE_FILL_AREA ( #777 ) ;
#1086 = DIRECTION ( 'NONE',  ( -1.000000000000000000, -0.000000000000000000, -0.000000000000000000 ) ) ;
#1087 = LINE ( 'NONE', #3, #849 ) ;
#1088 = UNCERTAINTY_MEASURE_WITH_UNIT (LENGTH_MEASURE( 1.000000000000000082E-05 ), #652, 'distance_accuracy_value', 'NONE');
#1089 = SURFACE_STYLE_FILL_AREA ( #304 ) ;
#1090 = EDGE_LOOP ( 'NONE', ( #983, #1012, #961, #1264 ) ) ;
#1091 = ADVANCED_FACE ( 'NONE', ( #492 ), #1211, .T. ) ;
#1092 = DIRECTION ( 'NONE',  ( -1.000000000000000000, 0.000000000000000000, 0.000000000000000000 ) ) ;
#1093 =( NAMED_UNIT ( * ) PLANE_ANGLE_UNIT ( ) SI_UNIT ( $, .RADIAN. ) );
#1094 = CARTESIAN_POINT ( 'NONE',  ( 0.5499999999999999334, -0.2250000000000000056, 1.015000000000000124 ) ) ;
#1095 = ORIENTED_EDGE ( 'NONE', *, *, #1198, .F. ) ;
#1096 = PRESENTATION_STYLE_ASSIGNMENT (( #910 ) ) ;
#1097 = DIRECTION ( 'NONE',  ( -1.000000000000000000, 0.000000000000000000, 0.000000000000000000 ) ) ;
#1098 = EDGE_CURVE ( 'NONE', #178, #317, #647, .T. ) ;
#1099 = SURFACE_SIDE_STYLE ('',( #800 ) ) ;
#1100 = CARTESIAN_POINT ( 'NONE',  ( 0.000000000000000000, 0.000000000000000000, 0.000000000000000000 ) ) ;
#1101 = VECTOR ( 'NONE', #1212, 1000.000000000000000 ) ;
#1102 = VECTOR ( 'NONE', #624, 1000.000000000000000 ) ;
#1103 = PRESENTATION_STYLE_ASSIGNMENT (( #501 ) ) ;
#1104 = AXIS2_PLACEMENT_3D ( 'NONE', #836, #1235, #339 ) ;
#1105 = EDGE_LOOP ( 'NONE', ( #298, #539, #775, #395 ) ) ;
#1106 = DIRECTION ( 'NONE',  ( 0.000000000000000000, 0.08963769949589049657, -0.9959744388432287820 ) ) ;
#1107 = VECTOR ( 'NONE', #1134, 1000.000000000000000 ) ;
#1108 = SURFACE_STYLE_FILL_AREA ( #1014 ) ;
#1109 = LINE ( 'NONE', #214, #679 ) ;
#1110 = DIRECTION ( 'NONE',  ( 1.000000000000000000, 0.000000000000000000, 0.000000000000000000 ) ) ;
#1111 = ORIENTED_EDGE ( 'NONE', *, *, #720, .T. ) ;
#1112 =( NAMED_UNIT ( * ) PLANE_ANGLE_UNIT ( ) SI_UNIT ( $, .RADIAN. ) );
#1113 =( NAMED_UNIT ( * ) SI_UNIT ( $, .STERADIAN. ) SOLID_ANGLE_UNIT ( ) );
#1114 = CARTESIAN_POINT ( 'NONE',  ( -1.399999999999999911, 0.000000000000000000, -0.5999999999999999778 ) ) ;
#1115 = DIRECTION ( 'NONE',  ( 0.000000000000000000, -1.000000000000000000, 0.000000000000000000 ) ) ;
#1116 = ORIENTED_EDGE ( 'NONE', *, *, #681, .T. ) ;
#1117 = PLANE ( 'NONE',  #1181 ) ;
#1118 = CARTESIAN_POINT ( 'NONE',  ( -1.399999999999999911, -0.2250000000000000056, -0.5999999999999999778 ) ) ;
#1119 = DIRECTION ( 'NONE',  ( -1.000000000000000000, 0.000000000000000000, 5.225070710773518933E-16 ) ) ;
#1120 = CARTESIAN_POINT ( 'NONE',  ( -1.700000000000000178, 0.000000000000000000, 1.015000000000000124 ) ) ;
#1121 = VECTOR ( 'NONE', #566, 1000.000000000000000 ) ;
#1122 = ORIENTED_EDGE ( 'NONE', *, *, #619, .T. ) ;
#1123 = CARTESIAN_POINT ( 'NONE',  ( 1.949999999999999734, -0.2250000000000000056, -0.3800000000000000044 ) ) ;
#1124 = STYLED_ITEM ( 'NONE', ( #387 ), #496 ) ;
#1125 = EDGE_CURVE ( 'NONE', #949, #243, #946, .T. ) ;
#1126 = LINE ( 'NONE', #628, #662 ) ;
#1127 = VERTEX_POINT ( 'NONE', #122 ) ;
#1128 = DIRECTION ( 'NONE',  ( 0.000000000000000000, 1.000000000000000000, -0.000000000000000000 ) ) ;
#1129 = ADVANCED_FACE ( 'NONE', ( #252 ), #1144, .F. ) ;
#1130 = DIRECTION ( 'NONE',  ( -0.06486312108268028898, 0.9978941705027710718, 0.000000000000000000 ) ) ;
#1131 = DIRECTION ( 'NONE',  ( 0.000000000000000000, 1.000000000000000000, 0.000000000000000000 ) ) ;
#1132 = VERTEX_POINT ( 'NONE', #443 ) ;
#1133 = LINE ( 'NONE', #626, #22 ) ;
#1134 = DIRECTION ( 'NONE',  ( 0.000000000000000000, 0.9959744388432287820, -0.08963769949589028840 ) ) ;
#1135 = UNCERTAINTY_MEASURE_WITH_UNIT (LENGTH_MEASURE( 1.000000000000000082E-05 ), #1283, 'distance_accuracy_value', 'NONE');
#1136 = EDGE_CURVE ( 'NONE', #1132, #638, #148, .T. ) ;
#1137 = FILL_AREA_STYLE_COLOUR ( '', #701 ) ;
#1138 = CARTESIAN_POINT ( 'NONE',  ( 1.549999999999999822, 0.000000000000000000, 0.3800000000000000044 ) ) ;
#1139 = PRESENTATION_LAYER_ASSIGNMENT (  '', '', ( #405 ) ) ;
#1140 = ORIENTED_EDGE ( 'NONE', *, *, #627, .T. ) ;
#1141 = DIRECTION ( 'NONE',  ( 1.000000000000000000, 0.000000000000000000, 0.000000000000000000 ) ) ;
#1142 = MECHANICAL_DESIGN_GEOMETRIC_PRESENTATION_REPRESENTATION (  '', ( #1201 ), #574 ) ;
#1143 = VECTOR ( 'NONE', #678, 1000.000000000000000 ) ;
#1144 = PLANE ( 'NONE',  #390 ) ;
#1145 = PRESENTATION_LAYER_ASSIGNMENT (  '', '', ( #413 ) ) ;
#1146 =( LENGTH_UNIT ( ) NAMED_UNIT ( * ) SI_UNIT ( .MILLI., .METRE. ) );
#1147 = SURFACE_SIDE_STYLE ('',( #671 ) ) ;
#1148 = EDGE_CURVE ( 'NONE', #274, #825, #257, .T. ) ;
#1149 = ORIENTED_EDGE ( 'NONE', *, *, #688, .F. ) ;
#1150 =( NAMED_UNIT ( * ) SI_UNIT ( $, .STERADIAN. ) SOLID_ANGLE_UNIT ( ) );
#1151 = DIRECTION ( 'NONE',  ( 0.06486312108268028898, -0.9978941705027710718, 0.000000000000000000 ) ) ;
#1152 = DIRECTION ( 'NONE',  ( 5.225070710773518933E-16, 0.000000000000000000, 1.000000000000000000 ) ) ;
#1153 = PRESENTATION_STYLE_ASSIGNMENT (( #758 ) ) ;
#1154 = LINE ( 'NONE', #1172, #974 ) ;
#1155 = EDGE_LOOP ( 'NONE', ( #1260, #881, #617, #1069, #1187, #1111, #909, #1068 ) ) ;
#1156 = CARTESIAN_POINT ( 'NONE',  ( 0.000000000000000000, -0.2250000000000000056, 0.000000000000000000 ) ) ;
#1157 = VERTEX_POINT ( 'NONE', #52 ) ;
#1158 = ORIENTED_EDGE ( 'NONE', *, *, #1051, .F. ) ;
#1159 = AXIS2_PLACEMENT_3D ( 'NONE', #804, #94, #999 ) ;
#1160 = EDGE_CURVE ( 'NONE', #262, #535, #1237, .T. ) ;
#1161 = AXIS2_PLACEMENT_3D ( 'NONE', #1044, #66, #728 ) ;
#1162 = AXIS2_PLACEMENT_3D ( 'NONE', #743, #1213, #316 ) ;
#1163 = VECTOR ( 'NONE', #583, 1000.000000000000000 ) ;
#1164 = COLOUR_RGB ( '',0.9882352941176471006, 0.7372549019607843590, 0.5137254901960783826 ) ;
#1165 = LINE ( 'NONE', #1257, #810 ) ;
#1166 = DIRECTION ( 'NONE',  ( 0.000000000000000000, -1.000000000000000000, 0.000000000000000000 ) ) ;
#1167 = VECTOR ( 'NONE', #233, 1000.000000000000000 ) ;
#1168 = EDGE_LOOP ( 'NONE', ( #1095, #134, #687, #474 ) ) ;
#1169 = ORIENTED_EDGE ( 'NONE', *, *, #1011, .T. ) ;
#1170 = EDGE_CURVE ( 'NONE', #692, #803, #832, .T. ) ;
#1171 = LINE ( 'NONE', #282, #703 ) ;
#1172 = CARTESIAN_POINT ( 'NONE',  ( -1.399999999999999911, -0.2250000000000000056, 0.5999999999999999778 ) ) ;
#1173 = EDGE_LOOP ( 'NONE', ( #1158, #267, #209, #632 ) ) ;
#1174 = ORIENTED_EDGE ( 'NONE', *, *, #627, .F. ) ;
#1175 =( LENGTH_UNIT ( ) NAMED_UNIT ( * ) SI_UNIT ( .MILLI., .METRE. ) );
#1176 = DIRECTION ( 'NONE',  ( 1.000000000000000000, 0.000000000000000000, 0.000000000000000000 ) ) ;
#1177 = CARTESIAN_POINT ( 'NONE',  ( 1.699999999999999734, 0.000000000000000000, 1.015000000000000124 ) ) ;
#1178 = CARTESIAN_POINT ( 'NONE',  ( 1.549999999999999822, 0.000000000000000000, -0.3800000000000000044 ) ) ;
#1179 = ADVANCED_FACE ( 'NONE', ( #427 ), #537, .F. ) ;
#1180 = ORIENTED_EDGE ( 'NONE', *, *, #84, .T. ) ;
#1181 = AXIS2_PLACEMENT_3D ( 'NONE', #218, #693, #400 ) ;
#1182 = VECTOR ( 'NONE', #297, 1000.000000000000000 ) ;
#1183 = FACE_OUTER_BOUND ( 'NONE', #739, .T. ) ;
#1184 = LINE ( 'NONE', #991, #510 ) ;
#1185 = SURFACE_SIDE_STYLE ('',( #1089 ) ) ;
#1186 = EDGE_CURVE ( 'NONE', #158, #182, #57, .T. ) ;
#1187 = ORIENTED_EDGE ( 'NONE', *, *, #232, .T. ) ;
#1188 =( NAMED_UNIT ( * ) PLANE_ANGLE_UNIT ( ) SI_UNIT ( $, .RADIAN. ) );
#1189 = PLANE ( 'NONE',  #1225 ) ;
#1190 = CARTESIAN_POINT ( 'NONE',  ( 0.5499999999999999334, -0.2250000000000000056, -1.015000000000000124 ) ) ;
#1191 = EDGE_CURVE ( 'NONE', #765, #877, #841, .T. ) ;
#1192 = EDGE_LOOP ( 'NONE', ( #75, #1233, #852, #440, #82, #976, #1075, #889 ) ) ;
#1193 = DIRECTION ( 'NONE',  ( 1.000000000000000000, 0.000000000000000000, 0.000000000000000000 ) ) ;
#1194 = LINE ( 'NONE', #398, #324 ) ;
#1195 = CARTESIAN_POINT ( 'NONE',  ( 1.549999999999999822, 0.000000000000000000, 0.3800000000000000044 ) ) ;
#1196 = VERTEX_POINT ( 'NONE', #334 ) ;
#1197 = CARTESIAN_POINT ( 'NONE',  ( 0.000000000000000000, -0.09061601031643677640, 1.006844559071520928 ) ) ;
#1198 = EDGE_CURVE ( 'NONE', #317, #968, #135, .T. ) ;
#1199 = CARTESIAN_POINT ( 'NONE',  ( 1.699999999999999734, 0.000000000000000000, 1.015000000000000124 ) ) ;
#1200 = DIRECTION ( 'NONE',  ( 1.000000000000000000, 0.000000000000000000, 0.000000000000000000 ) ) ;
#1201 = STYLED_ITEM ( 'NONE', ( #745 ), #558 ) ;
#1202 = UNCERTAINTY_MEASURE_WITH_UNIT (LENGTH_MEASURE( 1.000000000000000082E-05 ), #1146, 'distance_accuracy_value', 'NONE');
#1203 = DIRECTION ( 'NONE',  ( -1.000000000000000000, 0.000000000000000000, 0.000000000000000000 ) ) ;
#1204 = COLOUR_RGB ( '',0.9882352941176471006, 0.7372549019607843590, 0.5137254901960783826 ) ;
#1205 = VECTOR ( 'NONE', #926, 1000.000000000000000 ) ;
#1206 = LINE ( 'NONE', #1195, #226 ) ;
#1207 = ORIENTED_EDGE ( 'NONE', *, *, #1002, .T. ) ;
#1208 = VECTOR ( 'NONE', #812, 1000.000000000000000 ) ;
#1209 = DIRECTION ( 'NONE',  ( -1.000000000000000000, 0.000000000000000000, -5.225070710773514002E-16 ) ) ;
#1210 =( GEOMETRIC_REPRESENTATION_CONTEXT ( 3 ) GLOBAL_UNCERTAINTY_ASSIGNED_CONTEXT ( ( #92 ) ) GLOBAL_UNIT_ASSIGNED_CONTEXT ( ( #1216, #706, #294 ) ) REPRESENTATION_CONTEXT ( 'NONE', 'WORKASPACE' ) );
#1211 = PLANE ( 'NONE',  #435 ) ;
#1212 = DIRECTION ( 'NONE',  ( -4.688441826964343312E-16, -0.000000000000000000, -1.000000000000000000 ) ) ;
#1213 = DIRECTION ( 'NONE',  ( 1.000000000000000000, 0.000000000000000000, 0.000000000000000000 ) ) ;
#1214 = ORIENTED_EDGE ( 'NONE', *, *, #1002, .F. ) ;
#1215 = SURFACE_STYLE_FILL_AREA ( #816 ) ;
#1216 =( LENGTH_UNIT ( ) NAMED_UNIT ( * ) SI_UNIT ( .MILLI., .METRE. ) );
#1217 = DIRECTION ( 'NONE',  ( -5.225070710773514002E-16, 0.000000000000000000, 1.000000000000000000 ) ) ;
#1218 = CARTESIAN_POINT ( 'NONE',  ( -1.400000000000000133, -0.2250000000000000056, -0.9947499999999998010 ) ) ;
#1219 = EDGE_CURVE ( 'NONE', #415, #535, #1126, .T. ) ;
#1220 = ORIENTED_EDGE ( 'NONE', *, *, #5, .T. ) ;
#1221 = CARTESIAN_POINT ( 'NONE',  ( -1.849999999999999867, -0.2250000000000000056, -0.5999999999999999778 ) ) ;
#1222 = CARTESIAN_POINT ( 'NONE',  ( -1.399999999999999911, 0.000000000000000000, -0.5999999999999999778 ) ) ;
#1223 = PLANE ( 'NONE',  #1161 ) ;
#1224 = DIRECTION ( 'NONE',  ( -0.000000000000000000, 0.000000000000000000, 1.000000000000000000 ) ) ;
#1225 = AXIS2_PLACEMENT_3D ( 'NONE', #987, #1079, #1193 ) ;
#1226 = EDGE_CURVE ( 'NONE', #579, #808, #526, .T. ) ;
#1227 = EDGE_LOOP ( 'NONE', ( #956, #264, #797, #744 ) ) ;
#1228 =( NAMED_UNIT ( * ) PLANE_ANGLE_UNIT ( ) SI_UNIT ( $, .RADIAN. ) );
#1229 = AXIS2_PLACEMENT_3D ( 'NONE', #194, #175, #860 ) ;
#1230 = MECHANICAL_DESIGN_GEOMETRIC_PRESENTATION_REPRESENTATION (  '', ( #228 ), #307 ) ;
#1231 = PLANE ( 'NONE',  #310 ) ;
#1232 = CARTESIAN_POINT ( 'NONE',  ( -1.849999999999999867, 0.000000000000000000, -0.5999999999999999778 ) ) ;
#1233 = ORIENTED_EDGE ( 'NONE', *, *, #953, .T. ) ;
#1234 =( NAMED_UNIT ( * ) SI_UNIT ( $, .STERADIAN. ) SOLID_ANGLE_UNIT ( ) );
#1235 = DIRECTION ( 'NONE',  ( 0.000000000000000000, 0.000000000000000000, 1.000000000000000000 ) ) ;
#1236 = EDGE_CURVE ( 'NONE', #475, #738, #128, .T. ) ;
#1237 = LINE ( 'NONE', #238, #1107 ) ;
#1238 = PRESENTATION_STYLE_ASSIGNMENT (( #544 ) ) ;
#1239 = CARTESIAN_POINT ( 'NONE',  ( 1.549999999999999822, 0.000000000000000000, -0.3800000000000000044 ) ) ;
#1240 = EDGE_LOOP ( 'NONE', ( #193, #756, #562, #72 ) ) ;
#1241 = LINE ( 'NONE', #639, #845 ) ;
#1242 = FILL_AREA_STYLE ('',( #615 ) ) ;
#1243 = CARTESIAN_POINT ( 'NONE',  ( 1.549999999999999822, -0.2250000000000000056, -0.3800000000000000044 ) ) ;
#1244 = ADVANCED_FACE ( 'NONE', ( #40 ), #1231, .F. ) ;
#1245 = LINE ( 'NONE', #1053, #286 ) ;
#1246 = CARTESIAN_POINT ( 'NONE',  ( 1.549999999999999822, -0.2250000000000000056, 0.3800000000000000044 ) ) ;
#1247 = COLOUR_RGB ( '',0.7529411764705882248, 0.7529411764705882248, 0.7529411764705882248 ) ;
#1248 = ORIENTED_EDGE ( 'NONE', *, *, #300, .T. ) ;
#1249 = VECTOR ( 'NONE', #1003, 999.9999999999998863 ) ;
#1250 =( GEOMETRIC_REPRESENTATION_CONTEXT ( 3 ) GLOBAL_UNCERTAINTY_ASSIGNED_CONTEXT ( ( #240 ) ) GLOBAL_UNIT_ASSIGNED_CONTEXT ( ( #25, #737, #336 ) ) REPRESENTATION_CONTEXT ( 'NONE', 'WORKASPACE' ) );
#1251 = CARTESIAN_POINT ( 'NONE',  ( 0.5499999999999999334, -0.2250000000000000056, 1.015000000000000124 ) ) ;
#1252 = LINE ( 'NONE', #1222, #493 ) ;
#1253 = FILL_AREA_STYLE ('',( #1137 ) ) ;
#1254 =( NAMED_UNIT ( * ) PLANE_ANGLE_UNIT ( ) SI_UNIT ( $, .RADIAN. ) );
#1255 = ORIENTED_EDGE ( 'NONE', *, *, #1219, .F. ) ;
#1256 = VERTEX_POINT ( 'NONE', #846 ) ;
#1257 = CARTESIAN_POINT ( 'NONE',  ( 0.5499999999999999334, 0.000000000000000000, -1.015000000000000124 ) ) ;
#1258 = DIRECTION ( 'NONE',  ( -5.225070710773514002E-16, 0.000000000000000000, 1.000000000000000000 ) ) ;
#1259 = EDGE_LOOP ( 'NONE', ( #480, #1019, #1274, #561 ) ) ;
#1260 = ORIENTED_EDGE ( 'NONE', *, *, #778, .F. ) ;
#1261 = DIRECTION ( 'NONE',  ( -1.000000000000000000, 0.000000000000000000, 0.000000000000000000 ) ) ;
#1262 = LINE ( 'NONE', #365, #789 ) ;
#1263 = EDGE_LOOP ( 'NONE', ( #93, #7, #60, #166 ) ) ;
#1264 = ORIENTED_EDGE ( 'NONE', *, *, #733, .T. ) ;
#1265 = DIRECTION ( 'NONE',  ( 0.000000000000000000, 0.000000000000000000, -1.000000000000000000 ) ) ;
#1266 = STYLED_ITEM ( 'NONE', ( #136 ), #879 ) ;
#1267 = STYLED_ITEM ( 'NONE', ( #1238 ), #857 ) ;
#1268 = AXIS2_PLACEMENT_3D ( 'NONE', #1071, #867, #1270 ) ;
#1269 =( GEOMETRIC_REPRESENTATION_CONTEXT ( 3 ) GLOBAL_UNCERTAINTY_ASSIGNED_CONTEXT ( ( #1135 ) ) GLOBAL_UNIT_ASSIGNED_CONTEXT ( ( #1283, #1093, #785 ) ) REPRESENTATION_CONTEXT ( 'NONE', 'WORKASPACE' ) );
#1270 = DIRECTION ( 'NONE',  ( 0.000000000000000000, -0.000000000000000000, -1.000000000000000000 ) ) ;
#1271 = FACE_OUTER_BOUND ( 'NONE', #1074, .T. ) ;
#1272 = VECTOR ( 'NONE', #920, 1000.000000000000000 ) ;
#1273 = ORIENTED_EDGE ( 'NONE', *, *, #247, .T. ) ;
#1274 = ORIENTED_EDGE ( 'NONE', *, *, #84, .F. ) ;
#1275 = CARTESIAN_POINT ( 'NONE',  ( 0.000000000000000000, 0.000000000000000000, 0.000000000000000000 ) ) ;
#1276 = LINE ( 'NONE', #272, #268 ) ;
#1277 = FILL_AREA_STYLE ('',( #981 ) ) ;
#1278 = ORIENTED_EDGE ( 'NONE', *, *, #127, .T. ) ;
#1279 = ORIENTED_EDGE ( 'NONE', *, *, #934, .T. ) ;
#1280 = PLANE ( 'NONE',  #370 ) ;
#1281 = EDGE_CURVE ( 'NONE', #420, #738, #1252, .T. ) ;
#1282 = FACE_OUTER_BOUND ( 'NONE', #446, .T. ) ;
#1283 =( LENGTH_UNIT ( ) NAMED_UNIT ( * ) SI_UNIT ( .MILLI., .METRE. ) );
#1284 = CARTESIAN_POINT ( 'NONE',  ( -1.399999999999999911, -0.2250000000000000056, 0.5999999999999999778 ) ) ;
#1285 = ORIENTED_EDGE ( 'NONE', *, *, #778, .T. ) ;
ENDSEC;
END-ISO-10303-21;
